<?xml version="1.0" standalone="no"?>
<!DOCTYPE svg PUBLIC "-//W3C//DTD SVG 1.1//EN" "http://www.w3.org/Graphics/SVG/1.1/DTD/svg11.dtd" >
<svg xmlns="http://www.w3.org/2000/svg" xmlns:xlink="http://www.w3.org/1999/xlink" version="1.1">
<metadata>
Created by FontForge 20170731 at Fri Mar 22 20:29:14 2013
 By Aleksey,,,
Copyright (c) 2013 by Hannes von Doehren. All rights reserved.
</metadata>
<defs>
<font id="MikadoBold" horiz-adv-x="500" >
  <font-face 
    font-family="Mikado Bold"
    font-weight="700"
    font-stretch="normal"
    units-per-em="1000"
    panose-1="2 0 0 0 0 0 0 0 0 0"
    ascent="750"
    descent="-250"
    x-height="496.5"
    cap-height="701.5"
    bbox="-94.0556 -315.727 1181 975"
    underline-thickness="50"
    underline-position="-200"
    unicode-range="U+000D-FB02"
  />
<missing-glyph horiz-adv-x="612" 
d="M50 720h512v-720h-512v720zM266 283h48q0 26 14 47t34 36t40 29.5t34 36t14 48.5q0 51 -36.5 85t-101.5 34q-39 0 -67 -14.5t-41.5 -37t-19 -43.5t-5.5 -41h47q0 40 21 66.5t65 26.5q41 0 64 -21.5t23 -54.5q0 -23 -21 -45t-45.5 -38t-45.5 -46t-21 -68zM255 194v-71h68
v71h-68z" />
    <glyph glyph-name="fi" unicode="fi" horiz-adv-x="637" 
d="M261 493q31 -2 98.5 -1.5t142.5 0.5t83 -3q4 -1 -0.5 -241t-7.5 -246q-3 -5 -75 -4.5t-74 3.5q-1 1 -2.5 62.5t-3 150.5t-1.5 154q-29 -1 -67 -1.5t-64 -0.5t-27 1q-1 0 2 -90.5t5 -182.5t0 -94q-4 -4 -80.5 -7.5t-82.5 3.5q-4 7 -4 368h-43t-40 1q-3 2 -7.5 56t-0.5 58
q2 3 25.5 6t45.5 5l22 2l-1 4v11t-0.5 16t-1 20.5t-0.5 22.5q0 72 51.5 129.5t138.5 57.5q115 0 186 -60q-3 -19 -24.5 -64t-27.5 -45q-4 -1 -15.5 5.5t-31 13t-42.5 6.5q-77 0 -77 -76q0 -7 0.5 -23t0.5 -17z" />
    <glyph glyph-name="fl" unicode="fl" horiz-adv-x="644" 
d="M355 493q9 -74 -4 -126q-86 -2 -88 0q-1 0 2 -90.5t5 -182.5t0 -94q-4 -4 -80.5 -7.5t-82.5 3.5q-4 7 -4 368h-43t-40 1q-3 2 -7.5 56t-0.5 58q2 3 25.5 6t45.5 5l22 2l-1 4v11t-0.5 16t-1 20.5t-0.5 22.5q0 73 59 130t157 57q89 0 147 -37l17 26q94 4 111 -2
q3 -1 -1.5 -366.5t-6.5 -371.5q-3 -5 -75 -4.5t-74 3.5q-2 2 -4.5 225.5t-2.5 345.5q-36 38 -85 38q-37 0 -60.5 -20t-23.5 -57q0 -7 0.5 -23t0.5 -17h94z" />
    <glyph glyph-name="f_f" unicode="ff" horiz-adv-x="738" 
d="M597 499q3 -1 34.5 -1t61.5 -2.5t33 -8.5q7 -97 -2 -113q-3 -5 -62.5 -6.5t-62.5 -0.5q-1 0 2 -90.5t5 -182.5t0 -94q-5 -5 -84.5 -9t-81.5 5q-5 87 -5 374q-168 -6 -171 -3l5 -182q5 -182 2 -185q-4 -4 -82 -7.5t-84 3.5q-4 7 -4 368h-42t-39 1q-3 2 -7.5 56t-0.5 58
q2 3 25 6t45 5l22 2v4v11.5t-0.5 14.5t-0.5 17.5v17.5q0 84 58.5 138.5t146.5 54.5q90 0 172 -53q48 56 132 56q100 0 159 -50q-4 -23 -18 -69.5t-19 -47.5q-4 0 -30.5 11.5t-47.5 11.5q-30 0 -44.5 -20t-14.5 -50v-40zM262 499q2 -1 32 -1t72.5 -0.5t68.5 -2.5v59
q0 18 1 27q-43 25 -88 25q-86 0 -86 -71v-36z" />
    <glyph glyph-name=".notdef" horiz-adv-x="612" 
d="M50 720h512v-720h-512v720zM266 283h48q0 26 14 47t34 36t40 29.5t34 36t14 48.5q0 51 -36.5 85t-101.5 34q-39 0 -67 -14.5t-41.5 -37t-19 -43.5t-5.5 -41h47q0 40 21 66.5t65 26.5q41 0 64 -21.5t23 -54.5q0 -23 -21 -45t-45.5 -38t-45.5 -46t-21 -68zM255 194v-71h68
v71h-68z" />
    <glyph glyph-name=".null" horiz-adv-x="0" 
 />
    <glyph glyph-name=".null" horiz-adv-x="0" 
 />
    <glyph glyph-name="nonmarkingreturn" horiz-adv-x="333" 
 />
    <glyph glyph-name="CR" unicode="&#xd;" horiz-adv-x="0" 
 />
    <glyph glyph-name="space" unicode=" " horiz-adv-x="195" 
 />
    <glyph glyph-name="exclam" unicode="!" horiz-adv-x="298" 
d="M257 103q0 -53 -23.5 -81t-82.5 -28q-47 0 -76.5 31t-29.5 83q0 41 30.5 68t78.5 27q47 -1 75 -26.5t28 -73.5zM47 698q15 7 98.5 10.5t100.5 -2.5q0 -81 -15.5 -185.5t-30.5 -169.5t-19 -72q-5 -7 -33 -5.5t-31 5.5q-3 3 -20 74.5t-34 175t-16 169.5z" />
    <glyph glyph-name="quotedbl" unicode="&#x22;" horiz-adv-x="407" 
d="M59 430l-3 30q-2 30 -5.5 72t-7 85t-5 73.5t-0.5 31.5t63 4t63 -1q0 -15 -8 -153.5t-11 -138.5q-2 0 -24 -1t-42 -2h-20zM263 430l-3 30q-2 30 -5.5 72t-7 85t-5 73.5t-0.5 31.5t63.5 4t63.5 -1q0 -16 -8 -154t-12 -138q-2 0 -24 -1t-42 -2h-20z" />
    <glyph glyph-name="numbersign" unicode="#" horiz-adv-x="615" 
d="M84 4l34 169q-84 -4 -88 3q-3 5 0.5 38.5t7.5 34.5q2 1 25.5 2.5t46.5 2.5l22 2q0 2 15.5 70.5t16.5 68.5h-6q-5 0 -13.5 -0.5t-19.5 -1t-22 -0.5h-20t-15.5 0.5t-7.5 1.5q-4 4 2 40.5t9 36.5q6 0 57 3.5t52 4.5l44 219q2 2 27.5 4.5t46.5 2.5t24 -2q0 -3 -26 -112.5
t-26 -110.5t67 0.5t71 2.5q3 1 23 105.5t20 110.5q0 4 89 4q2 0 -11 -55t-25.5 -109.5t-9.5 -53.5q4 1 48 1t44 -3q0 -7 -3.5 -48t-5.5 -41l-102 2l-32 -137q100 0 100 -5q0 -81 -4 -81q-104 0 -106 -2l-43 -179q-82 1 -84 3q-2 1 13.5 81.5t18.5 90.5q0 1 -7.5 1.5
t-19.5 0.5h-26.5t-29 -0.5t-26.5 -0.5t-20 -1h-8l-9 -42l-18 -86l-9 -42zM222 261q4 0 65.5 0.5t65.5 1.5q3 0 9.5 34t11.5 67l5 34h-130q-2 -9 -5 -23t-10 -44.5t-10.5 -50t-1.5 -19.5z" />
    <glyph glyph-name="dollar" unicode="$" horiz-adv-x="589" 
d="M269 -86q-2 4 -2 81q-72 2 -137.5 24.5t-96.5 46.5q-1 6 3 21.5t11.5 34t15.5 35.5t15.5 27.5t10.5 9.5q84 -55 176 -67q0 49 -2 163q-6 1 -18 5q-107 29 -156.5 73t-49.5 130q0 81 58.5 140.5t163.5 70.5q0 72 1 73q3 5 19 6.5t30.5 1t14.5 -1.5v-78q67 -3 124 -19
t87 -37q9 -7 -18.5 -64t-35.5 -57q-2 1 -28 12t-61 21.5t-68 13.5v-160q118 -31 176 -75t58 -133q0 -79 -60 -141t-174 -73v-80zM403 197q0 42 -77 72v-143q77 8 77 71zM191 508q0 -21 14 -37t57 -31q0 94 -1 137q-70 -12 -70 -69z" />
    <glyph glyph-name="percent" unicode="%" horiz-adv-x="838" 
d="M173 -3q-2 3 182 359t190 359q7 3 51.5 -3t43.5 -14q-1 -13 -177.5 -365t-189.5 -355q-16 -4 -56 4.5t-44 14.5zM197 341q-79 0 -125 44.5t-46 134.5q0 87 48 130.5t122 43.5q73 0 117.5 -46.5t44.5 -129.5q0 -74 -41 -125.5t-120 -51.5zM190 447q29 0 47 16.5t18 51.5
q0 34 -15 57t-44 23q-67 0 -67 -80q0 -34 18 -51t43 -17zM648 -10q-81 0 -128 45.5t-47 138.5q0 89 49 133.5t125 44.5q74 0 119.5 -47.5t45.5 -132.5q0 -76 -42 -129t-122 -53zM640 95q31 0 51.5 18.5t20.5 55.5q0 36 -16.5 60.5t-48.5 24.5q-38 0 -56 -23.5t-18 -61.5
q0 -37 19.5 -55.5t47.5 -18.5z" />
    <glyph glyph-name="ampersand" unicode="&#x26;" horiz-adv-x="692" 
d="M570 369q14 1 58.5 -32.5t51.5 -48.5l-103 -124l92 -87q-16 -32 -54.5 -67t-53.5 -36l-92 96q-1 -1 -7 -6.5t-11 -9.5t-14 -11.5t-18.5 -12.5t-22 -12t-27 -12t-31 -9.5t-36 -6.5t-40.5 -2q-99 0 -157 53t-58 133q0 33 10.5 63.5t22.5 49.5t36 41t35.5 30t35.5 24
q-85 81 -85 156q0 73 56.5 124.5t152.5 51.5q85 0 143.5 -49t58.5 -127q0 -30 -13 -59t-32 -48t-38 -34t-32 -22l-13 -7l93 -94q61 57 92 95zM295 448q21 8 46.5 30t25.5 48q0 28 -16.5 44t-48.5 16q-26 0 -44 -17t-18 -37q0 -19 17.5 -43t37.5 -41zM209 195q0 -26 21 -45
t49 -19q26 0 50 11.5t35 23.5l12 11l-101 118q-1 -1 -10 -8t-17.5 -15.5t-18 -20t-15 -26.5t-5.5 -30z" />
    <glyph glyph-name="quotesingle" unicode="'" horiz-adv-x="203" 
d="M59 430l-3 30q-2 30 -5.5 72t-7 85t-5 73.5t-0.5 31.5t63.5 4t63.5 -1q0 -14 -8.5 -153t-11.5 -139q-2 0 -24 -1t-42 -2h-20z" />
    <glyph glyph-name="parenleft" unicode="(" horiz-adv-x="377" 
d="M332 -129q-3 0 -17.5 3.5t-43 15.5t-59.5 30t-64 52.5t-59 78t-43 110.5t-17 147q0 79 17 145t44.5 108.5t61 75t67 49.5t61 27t44.5 13t18 2q6 -9 10.5 -49t4.5 -52q0 -2 -11.5 -4.5t-29.5 -9.5t-40 -19t-44 -35.5t-40 -55.5t-29.5 -83.5t-11.5 -114.5q0 -62 12 -114
t31 -85t42 -58t46.5 -38.5t42.5 -21.5t31 -11l12 -3q-1 -16 -9.5 -41.5t-16.5 -43.5t-10 -18z" />
    <glyph glyph-name="parenright" unicode=")" horiz-adv-x="376" 
d="M43 730q3 0 18 -3.5t43.5 -15.5t59 -30t64 -52.5t59 -78t42.5 -110.5t17 -147q0 -79 -17 -145t-44.5 -108.5t-61 -75t-67 -49.5t-61 -27t-44.5 -13t-18 -2q-5 9 -14 51.5t-9 49.5q0 2 12 4.5t30.5 9.5t41.5 19t46 35.5t41.5 55.5t30.5 83.5t12 114.5q0 62 -11.5 114
t-30 85t-40.5 58t-44 38.5t-40.5 21.5t-29.5 11l-12 3q2 16 8 41t11.5 43.5t7.5 18.5z" />
    <glyph glyph-name="asterisk" unicode="*" horiz-adv-x="417" 
d="M169 414q-2 0 -1.5 19.5t2 40t2.5 40.5l2 19q0 1 -24 -15.5t-48.5 -33t-25.5 -16.5q-2 0 -22 33t-20 36t50 33.5t50 31.5t-49 34.5t-49 36.5t22 28t26 27q2 1 45.5 -32.5t44.5 -33.5t4.5 25t6.5 50l3 25q65 0 66 -3q1 -2 -1 -30.5t-3.5 -56.5t-0.5 -28t26.5 12t51.5 23.5
t27 10.5q2 -2 10 -22.5t15 -40t6 -19.5l-11 -3l-28 -7t-32 -8.5t-27 -7.5l-11 -3l93 -55q0 -1 -24 -35t-27 -35q-2 -1 -21 16t-39 36l-19 18q-1 1 1 -22.5t4 -49t2 -28.5q0 -5 -36 -8.5t-41 -1.5z" />
    <glyph glyph-name="plus" unicode="+" horiz-adv-x="537" 
d="M228 44q-1 5 -3 56.5t-4 100.5t-3 50t-89.5 -2t-91.5 0q-2 2 -5 23.5t-4.5 42t-0.5 20.5l195 3v196q41 7 93 -1v-187h193q1 -81 -4 -85q-3 -3 -91 -8.5t-90 -6.5q-3 -2 -4 -101.5t-2 -100.5q-3 -3 -44.5 -5t-44.5 5z" />
    <glyph glyph-name="comma" unicode="," horiz-adv-x="279" 
d="M245 92q0 -56 -34.5 -138t-73.5 -149q-2 -2 -21 2.5t-40.5 15t-28.5 20.5q-1 1 11.5 27t32.5 65.5t27 54.5q-35 4 -60.5 31t-25.5 69q0 52 31 80.5t87 25.5q40 -3 67.5 -27.5t27.5 -76.5z" />
    <glyph glyph-name="hyphen" unicode="-" horiz-adv-x="398" 
d="M346 348q3 -14 2.5 -41t-2.5 -53t-4 -27l-20 -1q-20 0 -49 -1t-64.5 -1.5t-66 -1t-53.5 -0.5t-27 1q-7 5 -11 35.5t-3 54t2 28.5q4 2 148.5 6.5t147.5 0.5z" />
    <glyph glyph-name="period" unicode="." horiz-adv-x="279" 
d="M247 95q0 -52 -31.5 -80.5t-89.5 -27.5q-37 2 -65.5 31.5t-28.5 73.5q0 53 31 82.5t89 25.5q40 -2 67.5 -27t27.5 -78z" />
    <glyph glyph-name="slash" unicode="/" horiz-adv-x="478" 
d="M19 -41q0 2 168.5 405.5t170.5 405.5q101 -17 102 -22q0 -8 -167.5 -416.5t-176.5 -406.5q-98 21 -97 34z" />
    <glyph glyph-name="zero" unicode="0" horiz-adv-x="611" 
d="M308 -17q-137 0 -203.5 87.5t-66.5 272.5q0 186 69.5 276t194.5 90q126 0 199 -90t73 -279q0 -174 -68 -265.5t-198 -91.5zM301 135q53 0 76.5 47.5t23.5 148.5q0 110 -23 165t-76 55q-102 0 -102 -213q0 -104 23.5 -153.5t77.5 -49.5z" />
    <glyph glyph-name="one" unicode="1" horiz-adv-x="414" 
d="M346 4q-8 -3 -85 -5.5t-84 4.5q-1 56 -0.5 112.5t3 204.5t3.5 197q-2 -1 -4.5 -2.5t-11.5 -6t-17.5 -8.5t-20 -10t-22 -11t-21.5 -10t-19.5 -8.5t-14.5 -5.5t-8 -2q-6 1 -24 64.5t-15 66.5q12 13 119.5 65t129.5 59q21 -2 55.5 -10t41.5 -16q0 -638 -5 -678z" />
    <glyph glyph-name="two" unicode="2" horiz-adv-x="520" 
d="M260 157l2 -4l209 5q5 -5 6 -44t-2 -76t-7 -37q-16 -2 -215.5 -3t-204.5 2q-4 2 -13 57t-6 70q36 41 95.5 102t91.5 95.5t58.5 76.5t26.5 73q0 33 -19 54.5t-58 21.5q-28 0 -54 -13.5t-32 -20.5t-20 -23q-15 10 -52 55.5t-36 56.5q1 5 9.5 16.5t27 27.5t43.5 30t64 23.5
t82 9.5q101 0 163 -54.5t62 -152.5q0 -34 -11.5 -69.5t-28 -65t-49.5 -69.5t-59 -68t-73 -76z" />
    <glyph glyph-name="three" unicode="3" horiz-adv-x="533" 
d="M392 359v-6q34 -7 70.5 -46.5t36.5 -107.5q0 -100 -71.5 -155.5t-176.5 -55.5q-82 0 -143 26t-89 57q-2 11 30.5 58.5t50.5 55.5q52 -47 130 -47q46 0 70.5 22t24.5 54q0 35 -26.5 55t-76.5 20q-8 0 -44 -0.5t-44 -0.5q-9 11 -9.5 71t9.5 67q10 0 47 -1t51 -1
q31 0 56.5 15.5t25.5 51.5q0 35 -24.5 53.5t-61.5 18.5q-62 0 -104 -44q-14 1 -93 102q78 91 221 91q101 0 164.5 -52.5t63.5 -141.5q0 -60 -28.5 -101t-59.5 -58z" />
    <glyph glyph-name="four" unicode="4" horiz-adv-x="589" 
d="M475 0q-85 -15 -158 5l1 125q-27 -2 -138.5 -2.5t-152.5 1.5q-5 23 -10.5 68t-4.5 64q23 51 135.5 226t153.5 223q130 -3 178 -22l-1 -421q70 -1 88 -3q2 -5 2 -37.5t-1 -62.5l-1 -30q0 -2 -93 -2l1 -32v-66zM328 503l-5 1q-20 -29 -78.5 -121t-71.5 -119l147 1z" />
    <glyph glyph-name="five" unicode="5" horiz-adv-x="541" 
d="M15 78q3 18 32 72.5t35 54.5q1 0 23 -16.5t59.5 -33t76.5 -16.5q42 0 67.5 23.5t25.5 69.5q0 37 -21 60t-62 25q-38 1 -98 -29l-85 50q0 68 9.5 196.5t20.5 164.5q10 3 182 6.5t200 -1.5q2 -141 -3 -143l-254 -7l-6 -122q7 5 35 11.5t59 6.5q91 0 146 -57t55 -158
q0 -120 -72.5 -183.5t-189.5 -63.5q-81 0 -150.5 32.5t-84.5 57.5z" />
    <glyph glyph-name="six" unicode="6" horiz-adv-x="564" 
d="M232 420l3 -4q47 36 106 36q83 0 144 -56t61 -166q0 -118 -72 -179.5t-185 -61.5q-47 0 -91 17.5t-81.5 52t-60 93.5t-22.5 134q0 73 22 140.5t54.5 115t72.5 85.5t74 59t61 29q13 0 62.5 -41t55.5 -62q-74 -27 -133.5 -81.5t-70.5 -110.5zM204 232q0 -46 23 -75.5
t69 -29.5q47 0 72.5 28t25.5 71q0 44 -23.5 74.5t-69.5 30.5q-48 0 -72.5 -29.5t-24.5 -69.5z" />
    <glyph glyph-name="seven" unicode="7" horiz-adv-x="482" 
d="M57 26l236 518l-262 -3q-7 16 -9.5 81.5t2.5 72.5q29 4 136.5 5t201 1t94.5 -1q2 0 6 -33.5t7 -66.5l3 -33q-234 -579 -235 -579q-7 0 -40.5 3.5t-79.5 13t-60 21.5z" />
    <glyph glyph-name="eight" unicode="8" horiz-adv-x="591" 
d="M34 197q0 60 35 104t82 65q-40 19 -69 59t-29 90q0 96 66.5 146t170.5 50q108 0 175 -50.5t67 -147.5q0 -49 -24.5 -87.5t-61.5 -56.5q45 -21 78.5 -67t33.5 -108q0 -98 -72.5 -153t-183.5 -55q-124 0 -196 52t-72 159zM291 435q84 0 84 67q0 34 -20 55.5t-61 21.5
q-43 0 -65 -20.5t-22 -52.5t21 -51.5t63 -19.5zM202 211q0 -41 23.5 -64.5t70.5 -23.5q48 0 73 22.5t25 59.5q0 41 -23.5 66t-71.5 25q-49 0 -73 -24t-24 -61z" />
    <glyph glyph-name="nine" unicode="9" horiz-adv-x="563" 
d="M331 284l-3 4q-47 -36 -113 -36q-36 0 -69.5 13t-63 39t-47 70t-17.5 101q0 117 72 178.5t185 61.5q47 0 90.5 -17.5t81 -52t60 -93.5t22.5 -134q0 -73 -21.5 -140.5t-54 -115t-72.5 -85.5t-74 -59t-61 -29q-14 0 -63 41t-55 62q73 27 132 82t71 110zM359 472
q0 46 -23 75.5t-68 29.5q-47 0 -72.5 -27.5t-25.5 -70.5q0 -45 23.5 -75.5t68.5 -30.5q48 0 72.5 29.5t24.5 69.5z" />
    <glyph glyph-name="colon" unicode=":" horiz-adv-x="291" 
d="M248 89q0 -49 -30 -76t-85 -26q-34 2 -61.5 29.5t-27.5 69.5q0 51 29.5 78.5t84.5 24.5q38 -2 64 -26t26 -74zM247 390q0 -50 -30 -77t-86 -26q-35 1 -62.5 29.5t-27.5 70.5q0 51 30 79.5t85 24.5q39 -2 65 -26t26 -75z" />
    <glyph glyph-name="semicolon" unicode=";" horiz-adv-x="295" 
d="M251 79q0 -95 -103 -274q-2 -2 -20 2.5t-39 14t-27 19.5q-1 1 11 26t31 62t26 52q-33 4 -57.5 30.5t-24.5 65.5q0 50 29.5 77t82.5 24q38 -3 64.5 -26t26.5 -73zM248 390q0 -50 -30 -77t-86 -26q-35 1 -62.5 29.5t-27.5 70.5q0 51 30 79.5t85 24.5q39 -2 65 -26t26 -75z
" />
    <glyph glyph-name="less" unicode="&#x3c;" horiz-adv-x="480" 
d="M36 255q-9 0 -9 83q0 4 191.5 82t195.5 74q5 -4 18 -39.5t11 -39.5q-2 -3 -137 -63l-135 -59q-1 -1 63 -33t129 -63.5t67 -31.5t-4.5 -20.5t-14.5 -41.5t-10 -24q-2 -2 -91.5 42t-180 89t-93.5 45z" />
    <glyph glyph-name="equal" unicode="=" horiz-adv-x="516" 
d="M58 347q-7 1 -6 72q0 11 1 10q398 2 408 -15q5 -10 3 -26.5t-6.5 -32t-5.5 -16.5q-1 0 -98 2t-196 4t-100 2zM76 144q-4 4 -9.5 39.5t0.5 40.5q2 2 192 8t190 3q0 -4 -4.5 -52t-5.5 -48q-35 0 -197.5 3t-165.5 6z" />
    <glyph glyph-name="greater" unicode="&#x3e;" horiz-adv-x="488" 
d="M76 46q-2 2 -9.5 23.5t-13.5 41.5t-4 20t74.5 38t143.5 76t70 39t-149 63.5t-150 65.5q-2 4 11 39t18 39q4 4 197 -72.5t193 -81.5q0 -1 0.5 -10.5t1.5 -21t1 -23.5t-1 -20t-3 -8q-3 0 -97.5 -53t-187.5 -105t-95 -50z" />
    <glyph glyph-name="question" unicode="?" horiz-adv-x="461" 
d="M129 268q-4 4 -6.5 44.5t-2.5 79.5l-1 38q70 0 111 19.5t41 57.5q0 24 -20.5 44.5t-62.5 20.5q-28 0 -55.5 -7t-40.5 -15l-14 -7l-15 27.5t-23 49.5t-12 44q20 22 68.5 37.5t117.5 15.5q93 0 156 -51t63 -142q0 -85 -51 -135.5t-131 -60.5l-5 -58q-57 -9 -117 -2z
M288 103q0 -53 -23 -81t-83 -28q-47 0 -76 31t-29 83q0 41 30.5 68t78.5 27q47 -1 74.5 -26.5t27.5 -73.5z" />
    <glyph glyph-name="at" unicode="@" horiz-adv-x="1012" 
d="M497 349q-45 0 -67 -38t-22 -91q0 -42 18 -63.5t46 -21.5q34 0 59.5 32.5t25.5 88.5q0 41 -17 67t-43 26zM580 91h-7q-54 -69 -130 -69q-74 0 -116.5 54t-42.5 138q0 117 63 182t136 65t105 -68q4 26 12 59q28 0 65 -7.5t45 -18.5l-29 -175q-8 -60 -8 -85q0 -57 42 -57
q55 0 97 64.5t42 180.5q0 42 -14.5 84.5t-46.5 84t-93.5 67.5t-144.5 26q-84 0 -153 -26.5t-114 -68.5t-76 -95.5t-44.5 -106t-13.5 -101.5q0 -159 87.5 -251.5t224.5 -92.5q102 0 182 42q12 -7 25 -37t13 -45q0 -13 -29.5 -29.5t-88.5 -29.5t-126 -13q-174 0 -293 131
t-119 320q0 75 20 147.5t63 140.5t104.5 119t151 82t194.5 31q179 0 294.5 -103.5t115.5 -276.5q0 -88 -24 -158.5t-63 -112.5t-84 -64t-92 -22q-51 0 -85.5 27.5t-44.5 67.5z" />
    <glyph glyph-name="A" unicode="A" horiz-adv-x="710" 
d="M513 -9q-16 36 -53 150h-213q-44 -144 -47 -148q-4 -3 -91 4t-95 13q16 61 116 372.5t106 315.5q7 5 108.5 8t120.5 -1q2 -1 55 -149.5t111 -322t67 -224.5q-9 -6 -55 -10.5t-87 -6.5t-43 -1zM360 542q-1 0 -3 -0.5t-3 -0.5q-50 -177 -80 -263q68 2 166 2q-36 99 -80 262
z" />
    <glyph glyph-name="B" unicode="B" horiz-adv-x="638" 
d="M245 289l-2 -151q31 -4 68 -4q57 0 85.5 21t28.5 57q0 80 -120 80q-6 0 -60 -3zM237 561l-1 -142q11 -1 43 -1q110 0 110 73q0 37 -33 55t-73 18q-16 0 -46 -3zM484 366v-6q52 -11 90.5 -56t38.5 -116q0 -194 -280 -194q-69 0 -163 4.5t-98 7.5t-7 339t-1 343q2 5 85 8.5
t116 3.5q86 0 150 -16t107.5 -60t43.5 -114q0 -101 -82 -144z" />
    <glyph glyph-name="C" unicode="C" horiz-adv-x="649" 
d="M220 348q0 -100 51 -150t122 -50q77 0 158 59q15 -11 41 -54t42 -77q-35 -40 -106 -68.5t-153 -28.5q-168 0 -255.5 105t-87.5 271q0 154 101 255t268 101q79 0 140.5 -20t88.5 -46q0 -17 -25 -75.5t-42 -73.5q-82 48 -160 48t-130.5 -55.5t-52.5 -140.5z" />
    <glyph glyph-name="D" unicode="D" horiz-adv-x="701" 
d="M66 3q-4 43 -1.5 341.5t8.5 351.5q31 8 219 8q172 0 274.5 -100t102.5 -255q0 -166 -94.5 -263t-291.5 -97q-173 0 -217 14zM484 340q0 88 -53.5 143t-136.5 55q-27 0 -53 -2q1 -100 -4 -380q24 -4 64 -4q183 0 183 188z" />
    <glyph glyph-name="E" unicode="E" horiz-adv-x="582" 
d="M534 147q6 -26 5.5 -81t-4.5 -69q4 -2 -96.5 -3.5t-218.5 -0.5t-155 5q-4 63 -1.5 329t7.5 371q69 4 268.5 5.5t206.5 -2.5q5 -13 5.5 -70.5t-3.5 -81.5q-22 -2 -135 -2.5t-175 1.5l2 -122q223 3 233 -6q3 -2 4 -13.5t1.5 -27t0 -33.5t-1 -33t-1.5 -26v-11q0 -4 -82.5 -4
t-153.5 2q0 -93 -1 -128q236 5 295 1z" />
    <glyph glyph-name="F" unicode="F" horiz-adv-x="573" 
d="M249 3q-4 -7 -87.5 -9t-88.5 3q-3 30 -7 339.5t-1 361.5q33 5 253 5.5t229 -4.5q6 -12 6 -70.5t-4 -81.5q-28 -3 -135 -2t-174 3l4 -176q71 1 156 -1t89 -6q3 -2 4.5 -13t1.5 -25v-31t-0.5 -31t-0.5 -25l-1 -10q0 -8 -246 -3q4 -165 2 -224z" />
    <glyph glyph-name="G" unicode="G" horiz-adv-x="688" 
d="M218 348q0 -103 48 -156t127 -53q41 0 90 18l-2 95q-96 -3 -116 -4q-4 5 -4.5 62.5t3.5 65.5q25 6 149.5 10t131.5 -2q5 -11 4 -159t-4 -168q-37 -29 -113.5 -53t-156.5 -24q-168 0 -255.5 104.5t-87.5 270.5q0 155 97.5 255.5t263.5 100.5q79 0 140 -21t90 -47
q0 -14 -30.5 -71t-44.5 -72q-76 43 -152 43q-77 0 -127.5 -55t-50.5 -140z" />
    <glyph glyph-name="H" unicode="H" horiz-adv-x="755" 
d="M682 -1q-2 -10 -46.5 -12t-88 1t-43.5 7q-1 42 -3 263q-162 -2 -247 -1q0 -183 -3 -261q-25 -7 -102 -8t-78 6q-4 49 -6.5 348.5t2.5 356.5q2 14 89 12.5t90 -8.5q4 -73 6 -283q124 2 249 2q2 231 5 269q24 6 99.5 6.5t78.5 -4.5q6 -2 5.5 -324t-7.5 -370z" />
    <glyph glyph-name="I" unicode="I" horiz-adv-x="317" 
d="M70 694q25 8 99 7.5t79 -5.5q5 -32 4.5 -340t-5.5 -356q-5 -12 -91 -11.5t-87 7.5q-4 63 -4 339.5t5 358.5z" />
    <glyph glyph-name="J" unicode="J" horiz-adv-x="482" 
d="M3 49q-2 10 24.5 71t38.5 72q1 -1 7 -5t8 -5t8 -5t9 -5.5l9 -4.5t10 -4.5t10.5 -3.5t11.5 -3t11.5 -1.5t13.5 -0.5q35 0 57 22.5t22 74.5q0 71 -3.5 234t-3.5 209q26 7 100 10.5t78 -1.5q9 -46 9 -466q0 -122 -60 -185.5t-168 -63.5q-131 0 -192 61z" />
    <glyph glyph-name="K" unicode="K" horiz-adv-x="658" 
d="M68 696q12 8 92 8t87 -4q2 -12 1 -78.5t-4 -143.5l-2 -77q244 302 252 302q10 0 79 -22.5t70 -30.5q0 -5 -48.5 -70.5t-96.5 -128.5l-49 -63q34 -47 115.5 -192.5t85.5 -161.5q-1 -7 -72.5 -30.5t-93.5 -18.5q-6 5 -41.5 67t-74.5 133t-46 82l-75 -84l1 -186
q-14 -4 -90 -5.5t-82 2.5q-6 5 -12 347.5t4 354.5z" />
    <glyph glyph-name="L" unicode="L" horiz-adv-x="539" 
d="M518 156q6 -24 7 -84t-3 -72q0 -4 -215 -3.5t-240 4.5q-4 57 -2.5 364t6.5 333q4 5 88.5 7t86.5 -2q2 -25 0 -263t-4 -285q225 8 276 1z" />
    <glyph glyph-name="M" unicode="M" horiz-adv-x="879" 
d="M439 237h5q32 136 77 293t57 168q7 7 82.5 8.5t89.5 -2.5q5 -3 55 -332.5t50 -357.5q-5 -9 -48 -16.5t-78 -9t-42 1.5q-12 62 -53 436h-4q-76 -305 -119 -428q-12 -5 -76 -4.5t-68 6.5q-8 19 -49.5 179t-62.5 249h-4q-5 -32 -19 -141.5t-25.5 -188t-17.5 -104.5
q-26 -2 -96 6.5t-71 16.5q3 40 56 345t62 335q4 11 77 12.5t89 -3.5q13 -20 60.5 -189t72.5 -280z" />
    <glyph glyph-name="N" unicode="N" horiz-adv-x="739" 
d="M664 7q-3 -12 -79.5 -16t-85.5 3q-8 10 -51 78t-106.5 169t-102.5 162q0 -57 2.5 -207t0.5 -192q-26 -7 -99.5 -7t-74.5 7q-4 48 -5 340t5 348q3 12 82.5 15t82.5 -4q187 -289 265 -432q1 66 0 169t-1.5 154t1.5 96q26 6 97 6t76 -5q5 -1 2.5 -318.5t-9.5 -365.5z" />
    <glyph glyph-name="O" unicode="O" horiz-adv-x="753" 
d="M374 713q159 0 253 -100t94 -274q0 -69 -20.5 -131t-61 -114t-108.5 -82.5t-154 -30.5q-159 0 -252.5 102.5t-93.5 271.5q0 94 37 173.5t116.5 132t189.5 52.5zM530 352q0 97 -42 147.5t-111 50.5q-76 0 -118.5 -55.5t-42.5 -149.5q0 -86 43 -143t114 -57q78 0 117.5 55
t39.5 152z" />
    <glyph glyph-name="P" unicode="P" horiz-adv-x="629" 
d="M255 358q36 -2 70 -2q50 0 80.5 22t30.5 66q0 95 -130 95q-28 0 -51 -3v-178zM255 0q-3 -5 -94 -6.5t-92 3.5q-4 40 -4 343.5t6 351.5q94 11 243 11q143 0 219.5 -65t76.5 -183q0 -132 -75 -193t-221 -61q-9 0 -29 0.5t-25 0.5v-74t-1 -88.5t-4 -39.5z" />
    <glyph glyph-name="Q" unicode="Q" horiz-adv-x="754" 
d="M376 713q159 0 252.5 -100t93.5 -274q0 -99 -43 -184.5t-126 -130.5q43 -64 143 -114q-10 -27 -53 -71t-63 -54q-60 21 -118 78t-90 120q-39 0 -86 10q-119 25 -186.5 122.5t-67.5 239.5q0 69 21 132t62 114t108.5 81.5t152.5 30.5zM536 353q0 88 -42.5 143.5
t-112.5 55.5q-77 0 -118 -55t-41 -150t42.5 -147.5t111.5 -52.5q78 0 119 55.5t41 150.5z" />
    <glyph glyph-name="R" unicode="R" horiz-adv-x="658" 
d="M237 0q-8 -3 -88.5 -5t-82.5 2q-4 32 -1 339t9 356q94 11 237 11q302 0 302 -243q0 -145 -127 -197q35 -42 72.5 -95t59 -87t19.5 -36q-9 -12 -71.5 -37.5t-84.5 -24.5q-1 0 -26 38t-68 101.5t-79 110.5q-4 -1 -13 -1q-29 0 -53 2q-3 -221 -5 -234zM252 373q29 -3 72 -3
q51 0 80.5 21.5t29.5 64.5q0 92 -116 92q-36 0 -66 -3v-172z" />
    <glyph glyph-name="S" unicode="S" horiz-adv-x="581" 
d="M277 -5q-76 0 -144 23t-102 48q-1 4 1 14.5t6.5 23.5t9.5 28t11 29t11.5 25t10 17.5t6.5 5.5q1 -1 12.5 -8t19.5 -11.5t22.5 -12.5t28.5 -13.5t30.5 -11t34.5 -8.5t35 -3q97 0 97 61q0 26 -27 44t-100 33q-102 21 -153 72.5t-51 146.5q0 90 70 151.5t192 61.5
q76 0 139.5 -17t94.5 -42q9 -7 -20 -73.5t-37 -65.5q-94 44 -173 44q-43 0 -65.5 -15.5t-22.5 -41.5q0 -24 22 -38.5t92 -30.5q110 -25 169.5 -74.5t59.5 -144.5q0 -88 -71.5 -152.5t-208.5 -64.5z" />
    <glyph glyph-name="T" unicode="T" horiz-adv-x="570" 
d="M22 545q-6 21 -7 82.5t3 64.5q10 5 252 10.5t276 0.5q10 -3 11 -77.5t-5 -75.5q-16 -2 -177 -8q3 -502 -1 -538q-5 -6 -89.5 -8t-85.5 4q-8 108 -3 544q-146 -2 -174 1z" />
    <glyph glyph-name="U" unicode="U" horiz-adv-x="716" 
d="M71 690q3 11 88.5 10.5t88.5 -7.5q2 -8 0 -81t-5.5 -168.5t-3.5 -136.5q0 -80 28 -115t87 -35q116 0 116 146q0 73 -3.5 228t-3.5 170q10 7 98 10t90 -4q8 -36 8 -415q0 -311 -302 -311q-301 0 -301 305q0 89 4.5 228t10.5 176z" />
    <glyph glyph-name="V" unicode="V" horiz-adv-x="666" 
d="M328 211q1 0 3 0.5t3 0.5q12 58 63 245.5t70 247.5q5 4 93.5 -1.5t91.5 -15.5q-13 -62 -108 -372.5t-102 -315.5q-8 -5 -99.5 -8t-111.5 1q-2 1 -52 150t-104 322.5t-63 223.5q5 12 92 18t92 0q7 -15 64.5 -227.5t67.5 -268.5z" />
    <glyph glyph-name="W" unicode="W" horiz-adv-x="956" 
d="M482 434h-6q-100 -399 -122 -434q-6 -8 -89 -8.5t-97 4.5q-7 3 -74.5 331t-67.5 357q5 9 48.5 16.5t78.5 8.5t42 -1q10 -43 43.5 -214.5t41.5 -247.5h4q20 90 62.5 247t60.5 207q13 4 80 4t72 -6q9 -20 53 -197.5t60 -256.5h4q9 69 43 237t48 222q27 3 98 -5.5t72 -17.5
q-3 -36 -71.5 -340t-79.5 -338q-5 -11 -85.5 -12.5t-95.5 4.5q-12 27 -55.5 181t-67.5 259z" />
    <glyph glyph-name="X" unicode="X" horiz-adv-x="626" 
d="M313 226h-6q-33 -65 -78 -148.5t-49 -83.5q-23 -4 -96.5 15t-75.5 26q-1 5 71 137.5t104 185.5q-9 14 -84.5 152.5t-74.5 146.5q0 8 76 31.5t86 20.5q3 -2 25.5 -41.5t51.5 -96t45 -94.5h6q124 231 132 232q11 1 85 -21t75 -30t-76.5 -147.5t-86.5 -152.5
q32 -54 104.5 -182.5t71.5 -133.5q-3 -7 -78 -30t-98 -20q-4 1 -50 84t-80 150z" />
    <glyph glyph-name="Y" unicode="Y" horiz-adv-x="629" 
d="M629 658q0 -10 -225 -390q2 -231 -3 -268q-3 -8 -48 -10t-89 1.5t-44 7.5q-2 28 2 271q-212 376 -211 387q1 8 77 31.5t86 20.5q3 -2 29.5 -51.5t60 -115.5t49.5 -103h6q10 18 31 57.5t38.5 72t36.5 66.5t30.5 54t13.5 20q11 1 85 -21t75 -30z" />
    <glyph glyph-name="Z" unicode="Z" horiz-adv-x="573" 
d="M265 157v-3q21 1 141.5 0.5t129.5 -3.5q4 -1 2.5 -74t-5.5 -76q-6 -4 -247 -5t-243 3q-4 12 -7 49t-2.5 63.5t0.5 33.5q1 2 63.5 92.5t130.5 189t81 115.5l1 4h-266q-3 1 -7 76t3 78q9 3 244 4t241 0q2 -2 9 -73t5 -79q-1 -2 -63 -93.5t-130.5 -189.5t-80.5 -112z" />
    <glyph glyph-name="bracketleft" unicode="[" horiz-adv-x="368" 
d="M192 -40l154 -3q1 -107 -2 -108q-1 -1 -22 -0.5t-52 1t-67.5 1.5t-67 2t-51.5 1l-21 1l-6 857l290 4q1 0 1.5 -26.5t0.5 -49.5t-1 -28q-2 -2 -74 -4.5t-83 -1.5q-6 -5 1 -643v-3z" />
    <glyph glyph-name="backslash" unicode="\" horiz-adv-x="435" 
d="M325 -27q-10 -3 -158 360.5t-148 372.5q0 2 23.5 12t47.5 19l24 9q2 -2 152 -361t150 -361q0 -3 -40 -25.5t-51 -25.5z" />
    <glyph glyph-name="bracketright" unicode="]" horiz-adv-x="363" 
d="M22 -34q10 0 26 -1t49.5 -2t56.5 -1l22 -1q3 162 4.5 323t-1.5 323q-154 0 -158 4q-1 5 -1 27.5t0.5 49t1.5 26.5l293 -3q-24 -855 -25 -855q-261 0 -265 2q-1 0 -2 11.5t-1 27v31.5v27v11z" />
    <glyph glyph-name="asciicircum" unicode="^" horiz-adv-x="470" 
d="M191 722q4 4 49.5 6.5t52.5 1.5q6 0 79 -135t69 -139q-6 -5 -41.5 -17.5t-40.5 -10.5q-3 2 -60 100.5t-58 99.5q-2 1 -32.5 -50t-60.5 -102.5t-31 -53.5q-2 -3 -42.5 12.5t-45.5 19.5q-4 3 74 131.5t88 136.5z" />
    <glyph glyph-name="underscore" unicode="_" horiz-adv-x="423" 
d="M58 -35q315 -4 315 -6q0 -87 -1 -89t-157.5 -4t-161.5 0q-4 1 -1 49t6 50z" />
    <glyph glyph-name="grave" unicode="`" horiz-adv-x="400" 
d="M61 638q-2 1 9.5 23t25 44.5t18.5 22.5q2 1 58 -28t111 -58l55 -30q-29 -70 -46 -76q-2 0 -59 25t-114 51t-58 26z" />
    <glyph glyph-name="a" unicode="a" 
d="M33 392q0 8 13.5 25t36.5 37t63.5 34.5t87.5 14.5q97 0 158.5 -56.5t61.5 -162.5q0 -79 -3 -176.5t-5 -102.5q-1 -3 -33.5 -3t-64.5 2l-31 1l-9 43q-55 -55 -128 -55q-78 0 -116.5 41t-38.5 110q0 66 51 106.5t128 40.5q56 0 93 -27q1 23 -0.5 35.5t-8.5 30.5t-26.5 27
t-51.5 9q-27 0 -50 -11t-35.5 -22.5t-14.5 -11.5q-7 0 -42.5 31.5t-34.5 39.5zM159 147q0 -25 18.5 -40.5t46.5 -15.5q32 0 49 16t17 40q0 26 -19 41.5t-47 15.5q-29 0 -47 -16.5t-18 -40.5z" />
    <glyph glyph-name="b" unicode="b" horiz-adv-x="594" 
d="M352 -10q-52 0 -95 23t-54 39v-59q-11 -4 -71.5 -5t-62.5 2q-6 19 -20 373t2 383q21 15 90.5 11t77.5 -11q3 -3 5.5 -141.5t1.5 -162.5q10 16 49 36.5t89 20.5q84 -1 143 -64t59 -177q0 -131 -61.5 -199.5t-152.5 -68.5zM414 247q0 48 -29 78t-73 30q-46 0 -72 -28.5
t-26 -78.5q0 -47 26 -77.5t71 -30.5q48 0 75.5 28t27.5 79z" />
    <glyph glyph-name="c" unicode="c" horiz-adv-x="480" 
d="M184 240q0 -64 33.5 -88.5t76.5 -24.5q13 0 27 3t27.5 8t22 9.5t19.5 10.5l10 5q13 4 60 -97q-20 -33 -68 -56t-104 -23q-68 0 -120 22.5t-82 61t-45 83.5t-15 94q0 100 71.5 175t187.5 75q48 0 90.5 -11.5t62 -23.5t21.5 -18q3 -11 -14 -69.5t-29 -62.5q-2 0 -19 10.5
t-44.5 22t-53.5 11.5q-54 0 -84.5 -30t-30.5 -87z" />
    <glyph glyph-name="d" unicode="d" horiz-adv-x="608" 
d="M248 -3q-90 0 -155 67.5t-65 186.5q0 111 69 176.5t163 66.5q43 0 81.5 -19.5t47.5 -33.5q0 302 7 307q7 6 78.5 8t87.5 -5q2 -1 -4.5 -372.5t-8.5 -379.5q-2 -2 -30.5 -4.5t-65 -1.5t-52.5 7q0 34 -3 55q-10 -15 -53 -36.5t-97 -21.5zM200 245q0 -49 27.5 -76.5
t70.5 -27.5q48 0 73.5 29t25.5 76q0 48 -28.5 76t-70.5 28q-46 0 -72 -28.5t-26 -76.5z" />
    <glyph glyph-name="e" unicode="e" horiz-adv-x="504" 
d="M182 204q0 -40 28 -63t79 -23q60 0 117 35q8 -8 29.5 -52.5t22.5 -55.5q-23 -22 -72 -39.5t-105 -17.5q-127 0 -190.5 71.5t-63.5 177.5q0 108 64.5 184.5t176.5 76.5q96 0 155 -62t59 -150q0 -47 -9 -77q-34 -5 -142 -6t-149 1zM181 296l157 3q2 38 -17 62.5t-54 24.5
q-38 0 -62 -25.5t-24 -64.5z" />
    <glyph glyph-name="f" unicode="f" horiz-adv-x="403" 
d="M261 499l63 -2q63 -2 67 -10q7 -97 -2 -113q-3 -5 -63 -6.5t-63 -0.5q-1 0 2 -90.5t5 -182.5t0 -94q-4 -4 -80.5 -7.5t-82.5 3.5q-4 7 -4 368h-43t-40 1q-3 2 -7.5 56t-0.5 58q2 3 25.5 6t45.5 5l22 2l-1 6v15.5t-0.5 21.5t-1 26t-0.5 26q0 67 47 116.5t128 49.5
q100 0 159 -50q-4 -23 -18 -69.5t-19 -47.5q-4 0 -30.5 11.5t-47.5 11.5q-30 0 -45 -20t-16 -50v-25z" />
    <glyph glyph-name="g" unicode="g" horiz-adv-x="606" 
d="M408 490q13 8 75 6t65 -5q3 -16 9 -390q1 -95 -20.5 -161.5t-60 -100.5t-81 -48t-93.5 -14q-80 0 -141 25t-73 47q18 62 50 107q1 1 18.5 -9t52.5 -22.5t72 -12.5q118 0 115 150q-6 -10 -19 -22t-45.5 -24.5t-72.5 -12.5q-89 0 -160 63.5t-71 172.5q0 113 69.5 183.5
t164.5 70.5q89 0 144 -57q0 3 1 27t1 27zM201 239q0 -48 25.5 -76.5t71.5 -28.5q42 0 71 28t29 76q0 47 -25.5 76t-74.5 29q-42 0 -69.5 -27.5t-27.5 -76.5z" />
    <glyph glyph-name="h" unicode="h" horiz-adv-x="588" 
d="M55 749q7 7 80 9t78 -12q2 -18 -0.5 -152t-4.5 -154q44 60 131 60q100 0 152 -58t52 -157q0 -56 -5 -162.5t-9 -119.5q-3 -6 -78.5 -7t-76.5 1q-1 21 -0.5 67t1 120t0.5 84q0 36 -19.5 63.5t-55.5 27.5q-39 0 -62 -25t-23 -57q0 -276 -4 -280q-2 -3 -77.5 -1.5t-77.5 5.5
q-3 5 -3.5 355.5t2.5 392.5z" />
    <glyph glyph-name="i" unicode="i" horiz-adv-x="266" 
d="M53 493q5 7 81.5 5.5t80.5 -5.5q2 -3 -2 -244.5t-6 -246.5q-3 -5 -75 -4.5t-74 3.5t-5.5 243t0.5 249zM47 652q0 45 19 69t69 24q41 0 66.5 -26.5t25.5 -72.5q0 -33 -26 -55.5t-66 -22.5t-64 22t-24 62z" />
    <glyph glyph-name="j" unicode="j" horiz-adv-x="268" 
d="M58 494q37 5 73 3.5t62 -5.5t28 -6q1 -1 -1.5 -80t-5.5 -201t-3 -204q0 -173 -144 -224q-4 -1 -23 12.5t-39 39t-25 50.5q7 2 18 9.5t24.5 22t22.5 41.5t9 60q-3 481 4 482zM233 660q0 -45 -18.5 -68.5t-69.5 -23.5q-41 0 -66 26t-25 72q0 34 25.5 56.5t65.5 22.5t64 -22
t24 -63z" />
    <glyph glyph-name="k" unicode="k" horiz-adv-x="550" 
d="M52 749q12 8 81.5 7.5t76.5 -4.5q2 -18 1 -112.5t-4 -203.5l-3 -110q198 186 208 186q8 0 62 -34t55 -43q0 -6 -38 -43t-77 -70l-38 -34l170 -262q-2 -7 -65 -30.5t-86 -20.5q-4 0 -71 115t-71 114q-4 0 -14.5 -9t-18.5 -17l-9 -9l5 -178q-145 -1 -152 5q-7 5 -14 374
t2 379z" />
    <glyph glyph-name="l" unicode="l" horiz-adv-x="262" 
d="M65 748q10 9 78.5 9.5t69.5 -5.5q5 -8 -1.5 -350.5t-10.5 -409.5q-135 -1 -143 4q-7 4 -5 373.5t12 378.5z" />
    <glyph glyph-name="m" unicode="m" horiz-adv-x="856" 
d="M52 487q8 10 79 7.5t79 -10.5q-2 -50 -3 -54q45 68 141 68q84 0 128 -72q23 40 66 56t85 16q92 0 137 -56t45 -155q0 -178 -7 -288q-1 -6 -77.5 -7.5t-78.5 1.5q-1 17 -0.5 62.5t1.5 123t1 92.5q0 86 -66 86q-37 0 -54 -27.5t-17 -57.5q0 -170 -6 -270q-2 -6 -77 -4.5
t-77 3.5q-2 18 -1.5 63t1.5 122t1 85q0 86 -66 86q-36 0 -55 -24t-19 -52q0 -279 -5 -286q-2 -3 -76 -1.5t-76 5.5q-1 2 -2.5 81t-1.5 187t1 220z" />
    <glyph glyph-name="n" unicode="n" horiz-adv-x="582" 
d="M52 481q6 9 79 13t79 -3q-3 -59 -3 -60q47 70 152 70q81 0 129 -59.5t48 -156.5q0 -187 -8 -285q-1 -7 -76.5 -7.5t-77.5 1.5q-2 19 -1.5 64t1.5 123.5t1 86.5q0 42 -19 67t-57 25q-39 0 -63.5 -25.5t-24.5 -56.5q0 -273 -4 -278q-2 -3 -76 -1.5t-76 5.5q-1 2 -2.5 78.5
t-1.5 181.5t1 217z" />
    <glyph glyph-name="o" unicode="o" horiz-adv-x="559" 
d="M379 238q0 55 -26.5 80t-66.5 27q-52 1 -79 -28t-27 -80q0 -50 27 -79t65 -30q52 -1 79.5 28t27.5 82zM278 497q110 0 182.5 -70.5t72.5 -190.5q0 -101 -68.5 -173.5t-184.5 -74.5q-110 0 -182 71t-72 190q0 99 70 173.5t182 74.5z" />
    <glyph glyph-name="p" unicode="p" horiz-adv-x="608" 
d="M361 498q93 0 156 -67t63 -187q0 -115 -67 -182t-164 -68q-44 0 -82.5 15.5t-46.5 28.5q0 -5 0.5 -37.5t0.5 -64.5t-0.5 -67t-1.5 -57.5t-4 -24.5q-7 -6 -78.5 -8t-86.5 5q-1 27 0 181.5t4.5 340t7.5 195.5l150 -5q0 -3 -0.5 -27t-0.5 -27q5 8 21.5 20t52 24t76.5 12z
M411 242q0 49 -26.5 76.5t-68.5 27.5q-49 0 -74.5 -28t-25.5 -75q0 -48 28.5 -77t67.5 -29q46 0 72.5 29t26.5 76z" />
    <glyph glyph-name="q" unicode="q" horiz-adv-x="597" 
d="M242 501q39 0 77 -14.5t55 -26.5t24 -20q7 50 8 53q4 1 67 3.5t67 -0.5q4 -8 3.5 -344t-4.5 -368q-5 -13 -81 -9t-81 10q-3 2 -3 255q-8 -14 -48.5 -30.5t-93.5 -16.5q-84 0 -144 63.5t-60 176.5q0 131 61.5 199.5t152.5 68.5zM187 243q0 -47 29.5 -77.5t73.5 -30.5
q46 0 71.5 29t25.5 80q0 47 -25.5 76t-70.5 29q-48 0 -76 -27.5t-28 -78.5z" />
    <glyph glyph-name="r" unicode="r" horiz-adv-x="401" 
d="M386 491q12 -7 2 -79t-23 -88q-45 11 -70 10q-33 -1 -52 -21.5t-24 -55.5q-1 -9 0.5 -76t2.5 -118.5t-1 -63.5q-2 -3 -83.5 -3.5t-83.5 3.5q-2 2 -2 234.5t3 246.5q6 11 78 15.5t78 -3.5v-69q49 87 175 68z" />
    <glyph glyph-name="s" unicode="s" horiz-adv-x="455" 
d="M233 -17q-67 0 -129 20t-76 35q-4 5 6 34.5t23 56t17 24.5q1 -1 19.5 -11.5t34 -18.5t41 -15.5t47.5 -7.5q60 0 60 36q0 17 -17 27t-64 19q-84 14 -124 50.5t-40 99.5q0 80 52 124.5t144 44.5q62 0 117.5 -15.5t68.5 -28.5q6 -6 -16 -60t-28 -55q-1 0 -21 10t-50 19.5
t-56 9.5q-28 0 -42 -11.5t-14 -27.5q0 -17 16 -25.5t59 -14.5q91 -13 131.5 -47.5t40.5 -103.5q0 -72 -50.5 -120t-149.5 -48z" />
    <glyph glyph-name="t" unicode="t" horiz-adv-x="406" 
d="M248 360q0 -2 -1 -33.5t-2 -75t-1 -68.5q0 -52 49 -54q20 0 44 11.5t29 10.5q8 -2 21 -49t14 -66q-5 -6 -14.5 -14t-47.5 -21.5t-84 -13.5q-84 0 -127.5 42.5t-43.5 117.5q0 13 1 40.5t2 57.5t2 57.5t1 45.5l1 19l-16 1q-16 0 -33.5 1t-19.5 3q-4 4 -4 62.5t4 59.5
q1 0 37.5 -0.5t36.5 1.5q1 1 1 56.5t5 60.5q6 6 77 11.5t75 1.5q2 -7 1 -37t-2.5 -63.5t-0.5 -33.5q0 2 58 1.5t64 -8.5q4 -6 4.5 -35t-0.5 -55l-2 -25q-3 -5 -35 -5.5t-62.5 -0.5t-30.5 -3z" />
    <glyph glyph-name="u" unicode="u" horiz-adv-x="576" 
d="M519 2q-7 -9 -74 -8t-75 8v32t1 25q-20 -29 -58.5 -51.5t-89.5 -22.5q-179 0 -179 214q0 86 13 290q1 7 77 7.5t78 -2.5q1 -5 -1 -65.5t-4.5 -129t-2.5 -83.5q0 -90 76 -90q39 0 61.5 25.5t23.5 60.5q0 40 2.5 158t5.5 121q2 3 75.5 1.5t76.5 -5.5q3 -12 -6 -485z" />
    <glyph glyph-name="v" unicode="v" horiz-adv-x="545" 
d="M17 474q0 5 66 17.5t79 12.5q2 0 8.5 -17t15.5 -45t19.5 -60.5t21.5 -67.5t19.5 -62.5t14.5 -48.5t7 -23q122 324 127 325t78.5 -15.5t72.5 -20.5q-7 -28 -57.5 -146t-98 -222.5t-50.5 -107.5q-11 -5 -46.5 -4.5t-74 4t-39.5 4.5q-2 3 -42 114t-80.5 230.5t-40.5 132.5z
" />
    <glyph glyph-name="w" unicode="w" horiz-adv-x="794" 
d="M19 475q0 5 66 17t79 12q5 0 26 -82t40 -164l18 -83q13 42 48 130t40 105q-2 5 -8 23.5t-10.5 33t-4.5 19.5q7 7 68 13.5t70 1.5q4 -3 25.5 -79t43.5 -159.5t23 -85.5q2 5 26.5 88.5t48.5 162t26 78.5q6 1 76 -15t69 -20q-9 -43 -83.5 -258t-79.5 -220q-12 -5 -47 -4
t-72.5 4t-38.5 5q-1 1 -10.5 30.5t-26.5 87.5t-31 116q-19 -57 -41.5 -115.5t-35.5 -90t-15 -33.5q-11 -5 -46.5 -4.5t-73 4t-38.5 4.5q-1 2 -33.5 113.5t-65 231t-32.5 133.5z" />
    <glyph glyph-name="x" unicode="x" horiz-adv-x="525" 
d="M7 16q5 16 51.5 90t92.5 140q-16 31 -51 89.5t-58.5 99.5t-23.5 47q0 4 68 13t81 9q4 0 25.5 -37t44.5 -79t24 -44q1 2 11.5 20t24 40.5t27.5 46t24 39.5t12 16q7 2 81.5 -9.5t73.5 -15.5q-6 -19 -50.5 -93t-85.5 -135q16 -31 49.5 -92.5t55.5 -102.5t22 -47
q-1 -5 -68.5 -14.5t-81.5 -9.5q-4 0 -24.5 36t-44.5 81.5t-26 49.5q-5 -8 -29.5 -50.5t-45.5 -78t-23 -35.5q-7 -1 -81.5 10.5t-74.5 15.5z" />
    <glyph glyph-name="y" unicode="y" horiz-adv-x="533" 
d="M532 470q-13 -47 -152.5 -364.5t-151.5 -330.5q-26 -1 -84 24t-67 35q0 2 22.5 50t47 102t29.5 69q-29 57 -96.5 228.5t-66.5 190.5q0 5 68.5 17.5t81.5 12.5q6 0 32 -71t49 -141l23 -71q109 283 114 284q6 1 78.5 -15t72.5 -20z" />
    <glyph glyph-name="z" unicode="z" horiz-adv-x="449" 
d="M40 491q7 1 187.5 4t183.5 2q2 -1 6 -53t2 -58q-1 -2 -99.5 -131.5t-100.5 -132.5q13 3 97 5t97 -4q2 -2 1.5 -63t-4.5 -64q-5 -3 -184.5 -1.5t-182.5 2.5q-2 1 -5 24t-4.5 47.5t1.5 40.5l197 256q-183 -12 -197 1q-7 6 -4.5 64.5t9.5 60.5z" />
    <glyph glyph-name="braceleft" unicode="{" horiz-adv-x="324" 
d="M149 283v-3q30 -10 56.5 -34.5t26.5 -61.5q0 -33 -19.5 -90t-19.5 -83q0 -37 22.5 -51.5t76.5 -14.5q2 -8 2.5 -32.5t0 -46t-1.5 -21.5q-108 0 -162.5 33.5t-54.5 110.5q0 27 18 82t18 93q0 58 -92 58q-5 0 -7 28.5t-1.5 57t3.5 28.5q63 0 87.5 11t24.5 46
q0 10 -15.5 73.5t-15.5 92.5q0 85 54.5 125.5t147.5 40.5q5 -12 6.5 -37t-0.5 -45t-6 -20q-100 0 -100 -79q0 -22 17 -81t17 -83q0 -36 -27.5 -64t-55.5 -33z" />
    <glyph glyph-name="bar" unicode="|" horiz-adv-x="192" 
d="M66 -221q-2 9 -7 481.5t-2 476.5q4 5 23.5 7t37 1t17.5 -2v-959l-52 -8q-15 -1 -17 3z" />
    <glyph glyph-name="braceright" unicode="}" horiz-adv-x="324" 
d="M175 287v3q-30 10 -56.5 35t-26.5 61q0 33 19.5 90t19.5 82q0 38 -22.5 52.5t-76.5 14.5q-2 8 -2.5 32.5t0 46t1.5 21.5q108 0 163 -33.5t55 -110.5q0 -27 -18.5 -82t-18.5 -93q0 -58 93 -58q4 0 6 -28.5t1.5 -57t-3.5 -28.5q-63 0 -87.5 -10.5t-24.5 -46.5
q0 -10 16 -73.5t16 -92.5q0 -85 -54.5 -125.5t-147.5 -40.5q-5 12 -6 37t1 45t5 20q99 0 99 78q0 22 -17 81.5t-17 83.5q0 36 27.5 64t55.5 33z" />
    <glyph glyph-name="asciitilde" unicode="~" horiz-adv-x="557" 
d="M85 268q-1 -1 -6.5 5.5t-13 17t-14 21.5t-11.5 19.5t-5 9.5q0 4 18.5 22t55 36.5t73.5 18.5q38 0 100 -43t92 -43q42 0 91 59q5 -3 20 -18t27.5 -29.5t12.5 -15.5t-7.5 -11.5t-22.5 -25t-33.5 -29t-44 -24.5t-51.5 -10q-31 0 -61.5 13.5t-50 29t-43 29t-41.5 13.5
q-13 0 -25.5 -4.5t-23 -11t-18 -12.5t-13.5 -11z" />
    <glyph glyph-name="uni00A0" unicode="&#xa0;" horiz-adv-x="195" 
 />
    <glyph glyph-name="exclamdown" unicode="&#xa1;" horiz-adv-x="283" 
d="M34 393q0 53 23.5 81t82.5 28q47 -1 76.5 -31.5t29.5 -82.5q0 -41 -30.5 -68t-79.5 -27q-46 1 -74 26.5t-28 73.5zM244 -202q-15 -8 -98.5 -11.5t-100.5 3.5q0 81 15.5 185.5t30.5 169.5t19 72q5 7 33 5.5t31 -5.5t19.5 -75t33.5 -175t17 -169z" />
    <glyph glyph-name="cent" unicode="&#xa2;" horiz-adv-x="506" 
d="M171 -65q6 26 20 68q-79 28 -118.5 95.5t-39.5 149.5q0 100 71.5 175t187.5 75q19 0 51 -4l17 53q3 4 18 0.5t32 -9.5l16 -6l-18 -55q27 -10 45.5 -22t20.5 -18q3 -11 -18 -65.5t-33 -58.5q-2 0 -9.5 4t-22 12t-26.5 13l-69 -215h1q38 0 110 36q13 4 60 -97
q-20 -33 -68 -56t-104 -23q-23 0 -43 3l-24 -75zM187 240q0 -71 47 -98l66 215q-53 -1 -83 -31t-30 -86z" />
    <glyph glyph-name="sterling" unicode="&#xa3;" horiz-adv-x="551" 
d="M38 375h61q-20 102 -20 145q0 94 64 143t160 49q43 0 80.5 -10t61.5 -24.5t42 -31t26 -28t9 -17.5q0 -11 -35.5 -55t-59.5 -56q-3 7 -10 16.5t-32.5 26t-57.5 16.5q-31 0 -51 -21.5t-20 -58.5t14 -96l132 -1q1 -1 1.5 -30t-0.5 -30h-9q-8 -1 -40 -1t-72 -1
q21 -114 -29 -157l65 1q66 1 114.5 0.5t60.5 -3.5q7 -20 9 -57.5t0.5 -65.5t-3.5 -29q-22 -2 -114 -1t-209 2t-126 1q-2 0 -2.5 4.5t-1 13.5t0 18t1 21.5t1 20t1.5 17.5l1 10q29 8 45.5 26.5t21 47.5t2.5 58t-9 68q-11 0 -33 -0.5t-36 -0.5q-4 1 -5 35t1 35z" />
    <glyph glyph-name="currency" unicode="&#xa4;" horiz-adv-x="522" 
d="M103 71q-2 3 -17 20t-25.5 29.5t-9.5 13.5l49 45q-36 49 -36 127q0 49 18 87q-52 50 -48 57q3 3 17 20.5t26 32t13 13.5l50 -57q47 31 121 31q64 0 112 -33l65 62q51 -53 52 -61q2 -8 -59 -71q16 -43 16 -82q0 -74 -39 -126q10 -11 26 -28t25 -27l9 -10q-41 -41 -63 -55
q-10 -7 -73 65q-28 -11 -71 -11q-50 0 -89 14q-61 -66 -69 -56zM259 208q39 0 61 23t22 67q0 39 -21 67t-62 28q-46 0 -67 -26.5t-21 -68.5q0 -40 28.5 -65t59.5 -25z" />
    <glyph glyph-name="yen" unicode="&#xa5;" horiz-adv-x="665" 
d="M96 313l117 -2q-188 334 -187 346q0 8 76 31.5t86 20.5q3 -2 29.5 -51.5t60 -115.5t49.5 -103h6q10 18 31 57.5t38.5 72t36.5 66.5t30.5 54t13.5 20q11 1 85 -21t75 -30q1 -12 -201 -350l106 -1q0 -3 -2.5 -31.5t-3.5 -29.5q-43 -3 -123 -4v-67l135 1q1 -1 1.5 -29.5
t-0.5 -30.5h-13q-13 -1 -49.5 -2t-73.5 -2q0 -85 -3 -112q-5 -12 -93 -10t-89 9q-3 29 -1 108l-128 -4q-4 1 -5 35.5t1 35.5l133 1l2 65q-91 0 -145 1q-3 2 -0.5 36t5.5 36z" />
    <glyph glyph-name="brokenbar" unicode="&#xa6;" horiz-adv-x="194" 
d="M65 377q-6 1 -6.5 178t3.5 181q4 5 22 7t34 1t16 -2v-360l-12.5 -2.5t-28 -3.5t-28.5 1zM61 146q4 5 21.5 6t33 -0.5t15.5 -2.5l3 -365l-52 -8q-15 -1 -17 3q-2 8 -4.5 185t0.5 182z" />
    <glyph glyph-name="section" unicode="&#xa7;" horiz-adv-x="614" 
d="M579 308q0 -44 -25.5 -79.5t-71.5 -56.5q97 -47 97 -133q0 -74 -74 -128.5t-215 -54.5q-73 0 -145.5 17.5t-105.5 37.5q-2 8 9 39.5t25 59t20 26.5q3 -1 10 -4q123 -47 181 -49q48 0 74.5 13t26.5 33q0 22 -28 36.5t-105 26.5q-210 34 -210 165q0 94 86 135
q-86 45 -86 142q0 76 72 128t198 52q77 0 142.5 -14t98.5 -34q9 -6 -19.5 -65.5t-36.5 -59.5l-15 5q-16 6 -31 10.5t-37.5 10t-48 8.5t-49.5 3q-93 0 -93 -43q0 -22 23 -34.5t96 -24.5q113 -18 175 -56.5t62 -111.5zM197 294q0 -60 164 -78q24 2 38.5 18t14.5 37
q0 66 -166 81q-22 -7 -36.5 -23.5t-14.5 -34.5z" />
    <glyph glyph-name="dieresis" unicode="&#xa8;" 
d="M367 558q-39 0 -59.5 20.5t-21.5 55.5t20 57t52 22t54.5 -23t23.5 -52q0 -34 -16.5 -57t-52.5 -23zM145 558q-38 0 -58.5 20.5t-22.5 55.5q-1 35 20 57t52 22t54.5 -23t23.5 -52q0 -34 -16.5 -57t-52.5 -23z" />
    <glyph glyph-name="copyright" unicode="&#xa9;" horiz-adv-x="855" 
d="M34 336q0 202 114.5 303.5t298.5 101.5q165 0 269 -105t104 -294q0 -72 -22.5 -138t-67 -121t-119.5 -88t-171 -33q-180 0 -293 102.5t-113 271.5zM107 336q0 -144 97 -226.5t237 -82.5q83 0 151 32t112 104t44 175q0 64 -18.5 123t-54.5 106.5t-94.5 76t-132.5 28.5
q-91 0 -159 -27.5t-106.5 -75.5t-57 -106.5t-18.5 -126.5zM349 352q0 -55 27.5 -81.5t68.5 -26.5t89 32q19 -11 52 -85q-21 -23 -62 -39t-90 -16q-100 0 -152 61.5t-52 158.5q0 90 60 149.5t159 59.5q47 0 83 -11.5t52 -26.5q1 -10 -14.5 -49t-26.5 -47q-45 28 -92 28
q-44 0 -73 -30.5t-29 -76.5z" />
    <glyph glyph-name="ordfeminine" unicode="&#xaa;" horiz-adv-x="409" 
d="M36 572q0 6 10.5 19t29 28t50.5 26.5t69 11.5q77 0 125 -44t48 -125q0 -202 -6 -217q-1 -2 -25.5 -2t-48.5 1l-25 1l-7 33q-1 0 -6 -4.5t-10 -8.5t-14.5 -9.5t-19.5 -9.5t-24 -7t-29 -3q-62 0 -93 32t-31 85q0 52 41 83.5t102 31.5q45 0 75 -22q1 18 -0.5 28t-7 24
t-21.5 21t-41 7q-23 0 -41.5 -8.5t-28.5 -17.5t-12 -9q-5 0 -32 24.5t-27 30.5zM133 381q0 -19 15.5 -31.5t38.5 -12.5q26 0 40.5 13t14.5 32q0 20 -15.5 32.5t-39.5 12.5t-39 -13.5t-15 -32.5z" />
    <glyph glyph-name="guillemotleft" unicode="&#xab;" horiz-adv-x="509" 
d="M192 44q-2 1 -84 126.5t-82 130.5t82.5 119t86.5 117q3 2 27.5 -16t24.5 -21q0 -1 -52.5 -96t-51.5 -97q0 -1 55 -104.5t55 -106.5q0 -4 -29.5 -28.5t-31.5 -23.5zM413 44q-2 1 -84 126.5t-82 130.5t82.5 119t86.5 117q3 2 27.5 -16t24.5 -21q0 -1 -52.5 -96t-51.5 -97
q0 -1 55 -104.5t55 -106.5q0 -4 -29.5 -28.5t-31.5 -23.5z" />
    <glyph glyph-name="logicalnot" unicode="&#xac;" horiz-adv-x="515" 
d="M44 263q-3 0 -4 21.5t0 43t2 21.5q5 1 417 10l2 -250q0 -5 -43.5 -10t-44.5 0q-5 34 -5 161q-217 -10 -324 3z" />
    <glyph glyph-name="uni00AD" unicode="&#xad;" horiz-adv-x="398" 
d="M346 348q3 -14 2.5 -41t-2.5 -53t-4 -27l-20 -1q-20 0 -49 -1t-64.5 -1.5t-66 -1t-53.5 -0.5t-27 1q-7 5 -11 35.5t-3 54t2 28.5q4 2 148.5 6.5t147.5 0.5z" />
    <glyph glyph-name="registered" unicode="&#xae;" horiz-adv-x="542" 
d="M278 317q-110 0 -178 62t-68 169q0 115 69.5 178.5t175.5 63.5q103 0 168 -64t65 -174q0 -96 -59.5 -165.5t-172.5 -69.5zM281 373q71 0 116.5 44t45.5 127q0 77 -41.5 131.5t-120.5 54.5q-98 0 -141.5 -51.5t-43.5 -134.5q0 -77 54.5 -124t130.5 -47zM246 444
q-3 -1 -32 -1.5t-30 0.5q-1 14 0 112t3 113q34 4 79 4q101 0 101 -79q0 -46 -40 -64q11 -13 22.5 -29.5t18.5 -27t6 -11.5q-2 -4 -25 -13.5t-30 -9.5l-8 12q-8 12 -22 32.5t-26 35.5h-15q0 -9 -0.5 -26t-0.5 -30.5t-1 -17.5zM251 568q5 -1 20 -1q31 0 31 24q0 26 -34 26
q-11 0 -17 -1v-48z" />
    <glyph glyph-name="macron" unicode="&#xaf;" 
d="M92 569q-5 0 -4 46t4 48t160.5 5.5t159.5 -1.5q1 -5 -1.5 -48t-4.5 -43q-1 0 -156 -3.5t-158 -3.5z" />
    <glyph glyph-name="degree" unicode="&#xb0;" horiz-adv-x="385" 
d="M198 387q-80 0 -125.5 41.5t-45.5 126.5q0 80 47 120.5t124 40.5q71 0 116 -44.5t45 -118.5q0 -69 -41 -117.5t-120 -48.5zM196 469q33 0 52.5 20.5t19.5 58.5q0 34 -18 59.5t-54 25.5q-40 0 -58.5 -24.5t-18.5 -60.5q0 -35 24 -57t53 -22z" />
    <glyph glyph-name="plusminus" unicode="&#xb1;" horiz-adv-x="555" 
d="M326 215q-2 0 -16 -3t-17.5 -3.5t-14.5 -1.5t-16.5 -0.5t-14 1.5t-15.5 4q-1 24 -2.5 59t-2.5 53l-1 19q-1 1 -90.5 -2t-91.5 0q-2 2 -5 23.5t-4 42t0 20.5l194 3v196q41 7 93 -1v-187h194q1 -81 -4 -85q-3 -3 -91.5 -8.5t-90.5 -6.5t-4 -123zM494 61l-425 -6q-2 2 -5 24
t-4.5 42.5t-0.5 20.5q40 1 95.5 2.5t192.5 3.5t151 -2q1 -81 -4 -85z" />
    <glyph glyph-name="twosuperior" unicode="&#xb2;" horiz-adv-x="380" 
d="M195 431l1 -2l141 3q2 -2 3.5 -14.5t1.5 -29t-1 -32.5t-2.5 -27t-3.5 -11q-12 -1 -150 -1.5t-143 0.5q-3 2 -9.5 42t-4.5 51q23 25 64.5 65t63 62t40 49.5t18.5 47.5t-12.5 33.5t-37.5 13.5q-42 0 -72 -37q-11 7 -38 40.5t-26 40.5q1 8 16.5 24t54.5 32.5t88 16.5
q70 0 114 -37.5t44 -103.5q0 -53 -36 -102.5t-114 -123.5z" />
    <glyph glyph-name="threesuperior" unicode="&#xb3;" horiz-adv-x="389" 
d="M283 560v-4q23 -4 48.5 -31t25.5 -72q0 -69 -50 -106t-124 -37q-58 0 -100 18t-62 39q-2 7 21.5 41.5t36.5 40.5q33 -31 89 -31q31 0 46.5 13.5t15.5 33.5q0 44 -69 44h-59q-6 8 -6.5 51t6.5 48q7 0 32.5 -0.5t34.5 -0.5q21 0 37.5 9t16.5 31q0 21 -16 32.5t-40 11.5
q-41 0 -71 -28q-11 0 -67 73q56 62 155 62q71 0 115.5 -35.5t44.5 -95.5q0 -40 -19.5 -68t-41.5 -39z" />
    <glyph glyph-name="acute" unicode="&#xb4;" 
d="M387 638q-1 0 -58 -26t-114 -51t-59 -25q-8 3 -19 22t-19 36l-7 18l224 116q5 0 18.5 -22.5t24.5 -44.5t9 -23z" />
    <glyph glyph-name="mu" unicode="&#xb5;" horiz-adv-x="581" 
d="M525 2q-8 -9 -75 -8t-74 8q1 11 0.5 32.5t-0.5 24.5q-49 -73 -129 -73q-27 0 -40 9q-1 -29 -7 -208q-143 -5 -144 4q-6 77 -6 408q0 137 13 290q1 7 76.5 7.5t78.5 -2.5q1 -5 -1 -65.5t-4.5 -129t-2.5 -83.5q0 -90 76 -90q39 0 61.5 25.5t22.5 60.5q0 7 1.5 79.5
t3.5 133.5t3 62q2 3 75.5 1.5t76.5 -5.5q4 -8 -5 -481z" />
    <glyph glyph-name="paragraph" unicode="&#xb6;" horiz-adv-x="628" 
d="M437 -134l12 827q106 -2 109 -3q2 -1 0 -189t-3.5 -370t1.5 -263zM351 695l-19 -827l-119 -2q-2 62 -0.5 168.5t3.5 209.5l2 102q-44 0 -84.5 14t-72 51.5t-31.5 92.5q-1 47 12 82t34 55.5t53 33t63 16.5t70 4h89z" />
    <glyph glyph-name="periodcentered" unicode="&#xb7;" horiz-adv-x="285" 
d="M249 292q0 -52 -31.5 -80.5t-89.5 -27.5q-37 2 -65.5 31.5t-28.5 73.5q0 53 31 82.5t89 25.5q40 -2 67.5 -27t27.5 -78z" />
    <glyph glyph-name="cedilla" unicode="&#xb8;" 
d="M240 37q7 2 32.5 -4t47.5 -13l22 -7q-49 -181 -54 -184q-2 -1 -16 1.5t-32 6t-35.5 7.5t-29.5 7.5t-12 4.5l12 29q12 29 25.5 62t26 61.5t13.5 28.5z" />
    <glyph glyph-name="onesuperior" unicode="&#xb9;" horiz-adv-x="307" 
d="M254 320q-5 -2 -61.5 -3.5t-60.5 2.5q-2 12 4 339q-1 -1 -3 -1.5t-8 -3.5l-12 -6t-14.5 -6.5t-15.5 -7t-14.5 -6.5t-13.5 -5l-10.5 -3.5t-5.5 -1.5q-4 1 -17 47t-11 49q9 9 86 43.5t91 38.5q15 -1 40 -6.5t30 -11.5q0 -430 -4 -457z" />
    <glyph glyph-name="ordmasculine" unicode="&#xba;" horiz-adv-x="459" 
d="M311 452q0 44 -22 63.5t-55 19.5q-42 1 -64.5 -21.5t-22.5 -62.5q0 -38 22.5 -61t53.5 -24q42 -1 65 21.5t23 64.5zM229 653q87 0 144 -54.5t57 -147.5q0 -79 -54.5 -135.5t-145.5 -56.5q-87 0 -144 54.5t-57 147.5q0 76 55 134t145 58z" />
    <glyph glyph-name="guillemotright" unicode="&#xbb;" horiz-adv-x="502" 
d="M95 537q2 -1 84 -121t82 -125t-82 -123t-86 -121q-3 -2 -28 16t-25 21q0 1 52.5 102t51.5 103q0 1 -55 97.5t-55 99.5t29.5 27.5t31.5 23.5zM309 537q2 -1 84 -121t82 -125t-82 -123t-86 -121q-3 -2 -28 16t-25 21q0 1 52.5 102t51.5 103q0 1 -55 97.5t-55 99.5
t29.5 27.5t31.5 23.5z" />
    <glyph glyph-name="onequarter" unicode="&#xbc;" horiz-adv-x="919" 
d="M265 241q-5 -2 -61.5 -3.5t-60.5 2.5q-2 12 4 339q-1 -1 -3 -1.5t-8 -3.5l-12 -6t-14.5 -6.5t-15.5 -7t-14.5 -6.5t-13.5 -5l-10.5 -3.5t-5.5 -1.5q-4 1 -17 47t-11 49q9 9 86 43.5t91 38.5q15 -1 40 -6.5t30 -11.5q0 -430 -4 -457zM219 33l87 171q86 170 172.5 339.5
t90.5 169.5q9 0 43.5 -15t32.5 -23q-4 -17 -169.5 -353.5t-177.5 -336.5q-7 3 -26.5 14.5t-36.5 22t-16 11.5zM823 0q-62 -9 -113 4v82q-122 -5 -200 -1q-4 16 -8 49t-2 47q15 36 91.5 150.5t106.5 148.5q86 0 129 -15l-1 -281q47 0 60 -1v-94q0 -2 -64 -2q1 -86 1 -87z
M718 332h-4q-81 -109 -99 -149l97 1z" />
    <glyph glyph-name="onehalf" unicode="&#xbd;" horiz-adv-x="910" 
d="M265 241q-5 -2 -61.5 -3.5t-60.5 2.5q-2 12 4 339q-1 -1 -3 -1.5t-8 -3.5l-12 -6t-14.5 -6.5t-15.5 -7t-14.5 -6.5t-13.5 -5l-10.5 -3.5t-5.5 -1.5q-4 1 -17 47t-11 49q9 9 86 43.5t91 38.5q15 -1 40 -6.5t30 -11.5q0 -430 -4 -457zM720 111l1 -2l141 3q2 -2 3.5 -14.5
t1.5 -29t-1 -32.5t-2.5 -27t-3.5 -11q-12 -1 -150 -1.5t-143 0.5q-3 2 -9.5 42t-4.5 51q23 25 64.5 65t63 62t40 49.5t18.5 47.5t-12.5 33.5t-37.5 13.5q-42 0 -72 -37q-11 7 -38 40.5t-26 40.5q1 8 16.5 24t54.5 32.5t88 16.5q70 0 114 -37.5t44 -103.5q0 -53 -36 -102.5
t-114 -123.5zM219 33l87 171q86 170 172.5 339.5t90.5 169.5q9 0 43.5 -15t32.5 -23q-4 -17 -169.5 -353.5t-177.5 -336.5q-7 3 -26.5 14.5t-36.5 22t-16 11.5z" />
    <glyph glyph-name="threequarters" unicode="&#xbe;" horiz-adv-x="985" 
d="M288 33l86 171q87 170 173.5 339.5t90.5 169.5q9 0 43.5 -15t32.5 -23q-4 -17 -169.5 -353.5t-177.5 -336.5q-7 3 -26.5 14.5t-36.5 22t-16 11.5zM893 0q-62 -9 -113 4v82q-122 -5 -200 -1q-4 16 -8 49t-2 47q15 36 91.5 150.5t106.5 148.5q86 0 129 -15l-1 -281
q47 0 60 -1v-94q0 -2 -64 -2q1 -86 1 -87zM788 332h-4q-81 -109 -99 -149l97 1zM291 484v-4q23 -4 48.5 -31t25.5 -72q0 -69 -50 -106t-124 -37q-58 0 -100 18t-62 39q-2 7 21.5 41.5t36.5 40.5q33 -31 89 -31q31 0 46.5 13.5t15.5 33.5q0 44 -69 44h-59q-6 8 -6.5 51
t6.5 48q7 0 32.5 -0.5t34.5 -0.5q21 0 37.5 9t16.5 31q0 21 -16 32.5t-40 11.5q-41 0 -71 -28q-11 0 -67 73q56 62 155 62q71 0 115.5 -35.5t44.5 -95.5q0 -40 -19.5 -68t-41.5 -39z" />
    <glyph glyph-name="questiondown" unicode="&#xbf;" horiz-adv-x="455" 
d="M330 229q4 -4 6.5 -44.5t3.5 -78.5v-39q-152 0 -152 -77q0 -24 20.5 -44.5t62.5 -20.5q28 0 55.5 7.5t40.5 14.5l13 7l15 -27.5t23 -49.5t12 -44q-20 -22 -68.5 -37.5t-117.5 -15.5q-93 0 -156 51t-63 142q0 85 51.5 135.5t130.5 60.5l6 58q57 9 117 2zM170 394
q0 53 23.5 81t82.5 28q47 0 76.5 -31t29.5 -83q0 -41 -30.5 -68t-79.5 -27q-46 1 -74 26.5t-28 73.5z" />
    <glyph glyph-name="Agrave" unicode="&#xc0;" horiz-adv-x="710" 
d="M513 -9q-16 36 -53 150h-213q-44 -144 -47 -148q-4 -3 -91 4t-95 13q16 61 116 372.5t106 315.5q7 5 108.5 8t120.5 -1q2 -1 55 -149.5t111 -322t67 -224.5q-9 -6 -55 -10.5t-87 -6.5t-43 -1zM360 542q-1 0 -3 -0.5t-3 -0.5q-50 -177 -80 -263q68 2 166 2q-36 99 -80 262
zM186 846q-2 1 9.5 23t25 44.5t18.5 22.5q2 1 58 -28t111 -58l55 -30q-29 -70 -46 -76q-2 0 -59 25t-114 51t-58 26z" />
    <glyph glyph-name="Aacute" unicode="&#xc1;" horiz-adv-x="710" 
d="M513 -9q-16 36 -53 150h-213q-44 -144 -47 -148q-4 -3 -91 4t-95 13q16 61 116 372.5t106 315.5q7 5 108.5 8t120.5 -1q2 -1 55 -149.5t111 -322t67 -224.5q-9 -6 -55 -10.5t-87 -6.5t-43 -1zM360 542q-1 0 -3 -0.5t-3 -0.5q-50 -177 -80 -263q68 2 166 2q-36 99 -80 262
zM517 846q-1 0 -58 -26t-114 -51t-59 -25q-8 3 -19 22t-19 36l-7 18l224 116q5 0 18.5 -22.5t24.5 -44.5t9 -23z" />
    <glyph glyph-name="Acircumflex" unicode="&#xc2;" horiz-adv-x="710" 
d="M513 -9q-16 36 -53 150h-213q-44 -144 -47 -148q-4 -3 -91 4t-95 13q16 61 116 372.5t106 315.5q7 5 108.5 8t120.5 -1q2 -1 55 -149.5t111 -322t67 -224.5q-9 -6 -55 -10.5t-87 -6.5t-43 -1zM360 542q-1 0 -3 -0.5t-3 -0.5q-50 -177 -80 -263q68 2 166 2q-36 99 -80 262
zM171 818q155 105 174 113l174 -112q-28 -62 -42 -68q-2 -1 -23 9.5t-52.5 27t-56.5 30.5q-126 -71 -129 -69q-6 3 -17.5 20t-19.5 33z" />
    <glyph glyph-name="Atilde" unicode="&#xc3;" horiz-adv-x="710" 
d="M513 -9q-16 36 -53 150h-213q-44 -144 -47 -148q-4 -3 -91 4t-95 13q16 61 116 372.5t106 315.5q7 5 108.5 8t120.5 -1q2 -1 55 -149.5t111 -322t67 -224.5q-9 -6 -55 -10.5t-87 -6.5t-43 -1zM360 542q-1 0 -3 -0.5t-3 -0.5q-50 -177 -80 -263q68 2 166 2q-36 99 -80 262
zM173 864q40 52 102 52q29 0 79.5 -28.5t77.5 -28.5q31 0 68 37q6 -2 19.5 -35t14.5 -51q-1 -2 -3.5 -6t-12 -13.5t-20 -16.5t-29 -13t-38.5 -6q-30 0 -84 26.5t-80 26.5q-32 0 -67 -32q-7 -6 -24 69q-3 15 -3 19z" />
    <glyph glyph-name="Adieresis" unicode="&#xc4;" horiz-adv-x="710" 
d="M513 -9q-16 36 -53 150h-213q-44 -144 -47 -148q-4 -3 -91 4t-95 13q16 61 116 372.5t106 315.5q7 5 108.5 8t120.5 -1q2 -1 55 -149.5t111 -322t67 -224.5q-9 -6 -55 -10.5t-87 -6.5t-43 -1zM360 542q-1 0 -3 -0.5t-3 -0.5q-50 -177 -80 -263q68 2 166 2q-36 99 -80 262
zM470 766q-39 0 -59.5 20.5t-21.5 55.5t20 57t52 22t54.5 -23t23.5 -52q0 -34 -16.5 -57t-52.5 -23zM248 766q-38 0 -58.5 20.5t-22.5 55.5q-1 35 20 57t52 22t54.5 -23t23.5 -52q0 -34 -16.5 -57t-52.5 -23z" />
    <glyph glyph-name="Aring" unicode="&#xc5;" horiz-adv-x="710" 
d="M513 -9q-16 36 -53 150h-213q-44 -144 -47 -148q-4 -3 -91 4t-95 13q16 61 116 372.5t106 315.5q7 5 108.5 8t120.5 -1q2 -1 55 -149.5t111 -322t67 -224.5q-9 -6 -55 -10.5t-87 -6.5t-43 -1zM360 542q-1 0 -3 -0.5t-3 -0.5q-50 -177 -80 -263q68 2 166 2q-36 99 -80 262
zM356 730q-50 0 -78.5 25t-28.5 75q0 48 29.5 72t77.5 24q43 0 71 -26t28 -71q0 -41 -25 -70t-74 -29zM354 791q37 0 37 36q0 15 -9.5 26.5t-27.5 11.5q-22 0 -32 -11t-10 -27t13 -26t29 -10z" />
    <glyph glyph-name="AE" unicode="&#xc6;" horiz-adv-x="948" 
d="M900 147q5 -26 4.5 -81t-4.5 -69q4 -2 -96.5 -3.5t-218.5 -0.5t-155 5q-2 58 -2 143h-174q-5 -11 -22.5 -51t-30 -66.5t-16.5 -30.5q-4 -3 -93 4t-97 13q29 71 170 379t149 309q35 7 312 8.5t285 -5.5q10 -21 8.5 -68.5t-6.5 -83.5q-22 -2 -135 -2.5t-174 1.5l2 -122
q221 3 233 -6q3 -3 4 -18t1 -35.5t-0.5 -40t-1.5 -34.5l-1 -16q0 -4 -82 -4t-154 2v-128q236 5 295 1zM425 551l-126 -273q8 0 30 0.5t51.5 1t48.5 0.5q0 33 3 270z" />
    <glyph glyph-name="Ccedilla" unicode="&#xc7;" horiz-adv-x="649" 
d="M220 348q0 -100 51 -150t122 -50q77 0 158 59q15 -11 41 -54t42 -77q-31 -36 -94 -63t-136 -32q-41 -143 -43 -145q-2 -1 -16 1.5t-32 6.5l-36 8t-30 7.5t-12 4.5l8 20q8 19 21 51t22 55q-125 25 -189.5 124t-64.5 241q0 154 101 255t268 101q79 0 140.5 -20t88.5 -46
q0 -17 -25 -75.5t-42 -73.5q-82 48 -160 48t-130.5 -55.5t-52.5 -140.5z" />
    <glyph glyph-name="Egrave" unicode="&#xc8;" horiz-adv-x="582" 
d="M534 147q6 -26 5.5 -81t-4.5 -69q4 -2 -96.5 -3.5t-218.5 -0.5t-155 5q-4 63 -1.5 329t7.5 371q69 4 268.5 5.5t206.5 -2.5q5 -13 5.5 -70.5t-3.5 -81.5q-22 -2 -135 -2.5t-175 1.5l2 -122q223 3 233 -6q3 -2 4 -13.5t1.5 -27t0 -33.5t-1 -33t-1.5 -26v-11q0 -4 -82.5 -4
t-153.5 2q0 -93 -1 -128q236 5 295 1zM147 846q-2 1 9.5 23t25 44.5t18.5 22.5q2 1 58 -28t111 -58l55 -30q-29 -70 -46 -76q-2 0 -59 25t-114 51t-58 26z" />
    <glyph glyph-name="Eacute" unicode="&#xc9;" horiz-adv-x="582" 
d="M534 147q6 -26 5.5 -81t-4.5 -69q4 -2 -96.5 -3.5t-218.5 -0.5t-155 5q-4 63 -1.5 329t7.5 371q69 4 268.5 5.5t206.5 -2.5q5 -13 5.5 -70.5t-3.5 -81.5q-22 -2 -135 -2.5t-175 1.5l2 -122q223 3 233 -6q3 -2 4 -13.5t1.5 -27t0 -33.5t-1 -33t-1.5 -26v-11q0 -4 -82.5 -4
t-153.5 2q0 -93 -1 -128q236 5 295 1zM450 846q-1 0 -58 -26t-114 -51t-59 -25q-8 3 -19 22t-18 36l-8 18l224 116q5 0 18.5 -22.5t24.5 -44.5t9 -23z" />
    <glyph glyph-name="Ecircumflex" unicode="&#xca;" horiz-adv-x="582" 
d="M534 147q6 -26 5.5 -81t-4.5 -69q4 -2 -96.5 -3.5t-218.5 -0.5t-155 5q-4 63 -1.5 329t7.5 371q69 4 268.5 5.5t206.5 -2.5q5 -13 5.5 -70.5t-3.5 -81.5q-22 -2 -135 -2.5t-175 1.5l2 -122q223 3 233 -6q3 -2 4 -13.5t1.5 -27t0 -33.5t-1 -33t-1.5 -26v-11q0 -4 -82.5 -4
t-153.5 2q0 -93 -1 -128q236 5 295 1zM132 818q155 105 174 113l174 -112q-28 -62 -42 -68q-2 -1 -23 9.5t-52.5 27t-56.5 30.5q-126 -71 -129 -69q-6 3 -17.5 20t-19.5 33z" />
    <glyph glyph-name="Edieresis" unicode="&#xcb;" horiz-adv-x="582" 
d="M534 147q6 -26 5.5 -81t-4.5 -69q4 -2 -96.5 -3.5t-218.5 -0.5t-155 5q-4 63 -1.5 329t7.5 371q69 4 268.5 5.5t206.5 -2.5q5 -13 5.5 -70.5t-3.5 -81.5q-22 -2 -135 -2.5t-175 1.5l2 -122q223 3 233 -6q3 -2 4 -13.5t1.5 -27t0 -33.5t-1 -33t-1.5 -26v-11q0 -4 -82.5 -4
t-153.5 2q0 -93 -1 -128q236 5 295 1zM425 766q-39 0 -59.5 20.5t-21.5 55.5t20 57t52 22t54.5 -23t23.5 -52q0 -34 -16.5 -57t-52.5 -23zM203 766q-38 0 -58.5 20.5t-22.5 55.5q-1 35 20 57t52 22t54.5 -23t23.5 -52q0 -34 -16.5 -57t-52.5 -23z" />
    <glyph glyph-name="Igrave" unicode="&#xcc;" horiz-adv-x="317" 
d="M69 694q25 8 99 7.5t79 -5.5q5 -32 4.5 -340t-5.5 -356q-5 -12 -91 -11.5t-87 7.5q-4 63 -4 339.5t5 358.5zM16 846q-2 1 9.5 23t25 44.5t18.5 22.5q2 1 58 -28t111 -58l55 -30q-29 -70 -46 -76q-2 0 -59 25t-114 51t-58 26z" />
    <glyph glyph-name="Iacute" unicode="&#xcd;" horiz-adv-x="317" 
d="M69 694q25 8 99 7.5t79 -5.5q5 -32 4.5 -340t-5.5 -356q-5 -12 -91 -11.5t-87 7.5q-4 63 -4 339.5t5 358.5zM295 846q-1 0 -58 -26t-114 -51t-59 -25q-8 3 -19 22t-19 36l-7 18l224 116q5 0 18.5 -22.5t24.5 -44.5t9 -23z" />
    <glyph glyph-name="Icircumflex" unicode="&#xce;" horiz-adv-x="317" 
d="M69 694q25 8 99 7.5t79 -5.5q5 -32 4.5 -340t-5.5 -356q-5 -12 -91 -11.5t-87 7.5q-4 63 -4 339.5t5 358.5zM-16 818q155 105 174 113l174 -112q-28 -62 -42 -68q-2 -1 -23 9.5t-52.5 27t-56.5 30.5q-126 -71 -129 -69q-6 3 -17.5 20t-19.5 33z" />
    <glyph glyph-name="Idieresis" unicode="&#xcf;" horiz-adv-x="317" 
d="M69 694q25 8 99 7.5t79 -5.5q5 -32 4.5 -340t-5.5 -356q-5 -12 -91 -11.5t-87 7.5q-4 63 -4 339.5t5 358.5zM275 766q-39 0 -59.5 20.5t-21.5 55.5t20 57t52 22t54.5 -23t23.5 -52q0 -34 -16.5 -57t-52.5 -23zM53 766q-38 0 -58.5 20.5t-22.5 55.5q-1 35 20 57t52 22
t54.5 -23t23.5 -52q0 -34 -16.5 -57t-52.5 -23z" />
    <glyph glyph-name="Eth" unicode="&#xd0;" horiz-adv-x="706" 
d="M19 293q-4 0 -3.5 46.5t3.5 48.5h7q6 1 18.5 1.5t25.5 0.5q4 272 8 306q31 8 219 8q172 0 274.5 -100t102.5 -255q0 -166 -94.5 -263t-291.5 -97q-63 0 -132 4.5t-85 9.5q-2 26 -2 291q-28 -1 -50 -1zM489 340q0 88 -53.5 143t-136.5 55q-27 0 -53 -2q0 -93 -1 -142
q92 2 94 -2q2 -5 -0.5 -48.5t-4.5 -43.5h-12q-12 -1 -34 -1.5t-43 -0.5q-2 -50 -2 -142q23 -4 63 -4q183 0 183 188z" />
    <glyph glyph-name="Ntilde" unicode="&#xd1;" horiz-adv-x="739" 
d="M664 7q-3 -12 -79.5 -16t-85.5 3q-8 10 -51 78t-106.5 169t-102.5 162q0 -57 2.5 -207t0.5 -192q-26 -7 -99.5 -7t-74.5 7q-4 48 -5 340t5 348q3 12 82.5 15t82.5 -4q187 -289 265 -432q1 66 0 169t-1.5 154t1.5 96q26 6 97 6t76 -5q5 -1 2.5 -318.5t-9.5 -365.5z
M186 864q40 52 102 52q29 0 79.5 -28.5t77.5 -28.5q31 0 68 37q6 -2 19.5 -35t14.5 -51q-1 -2 -3.5 -6t-12 -13.5t-20 -16.5t-29 -13t-38.5 -6q-30 0 -84 26.5t-80 26.5q-32 0 -67 -32q-7 -6 -24 69q-3 15 -3 19z" />
    <glyph glyph-name="Ograve" unicode="&#xd2;" horiz-adv-x="753" 
d="M374 713q159 0 253 -100t94 -274q0 -69 -20.5 -131t-61 -114t-108.5 -82.5t-154 -30.5q-159 0 -252.5 102.5t-93.5 271.5q0 94 37 173.5t116.5 132t189.5 52.5zM530 352q0 97 -42 147.5t-111 50.5q-76 0 -118.5 -55.5t-42.5 -149.5q0 -86 43 -143t114 -57q78 0 117.5 55
t39.5 152zM220 846q-2 1 9.5 23t25 44.5t18.5 22.5q2 1 58 -28t111 -58l55 -30q-29 -70 -46 -76q-2 0 -59 25t-114 51t-58 26z" />
    <glyph glyph-name="Oacute" unicode="&#xd3;" horiz-adv-x="753" 
d="M374 713q159 0 253 -100t94 -274q0 -69 -20.5 -131t-61 -114t-108.5 -82.5t-154 -30.5q-159 0 -252.5 102.5t-93.5 271.5q0 94 37 173.5t116.5 132t189.5 52.5zM530 352q0 97 -42 147.5t-111 50.5q-76 0 -118.5 -55.5t-42.5 -149.5q0 -86 43 -143t114 -57q78 0 117.5 55
t39.5 152zM544 846q-1 0 -58 -26t-114 -51t-59 -25q-8 3 -19 22t-18 36l-8 18l224 116q5 0 18.5 -22.5t24.5 -44.5t9 -23z" />
    <glyph glyph-name="Ocircumflex" unicode="&#xd4;" horiz-adv-x="753" 
d="M374 713q159 0 253 -100t94 -274q0 -69 -20.5 -131t-61 -114t-108.5 -82.5t-154 -30.5q-159 0 -252.5 102.5t-93.5 271.5q0 94 37 173.5t116.5 132t189.5 52.5zM530 352q0 97 -42 147.5t-111 50.5q-76 0 -118.5 -55.5t-42.5 -149.5q0 -86 43 -143t114 -57q78 0 117.5 55
t39.5 152zM204 818q155 105 174 113l174 -112q-28 -62 -42 -68q-2 -1 -23 9.5t-52.5 27t-56.5 30.5q-126 -71 -129 -69q-6 3 -17.5 20t-19.5 33z" />
    <glyph glyph-name="Otilde" unicode="&#xd5;" horiz-adv-x="753" 
d="M374 713q159 0 253 -100t94 -274q0 -69 -20.5 -131t-61 -114t-108.5 -82.5t-154 -30.5q-159 0 -252.5 102.5t-93.5 271.5q0 94 37 173.5t116.5 132t189.5 52.5zM530 352q0 97 -42 147.5t-111 50.5q-76 0 -118.5 -55.5t-42.5 -149.5q0 -86 43 -143t114 -57q78 0 117.5 55
t39.5 152zM197 864q40 52 102 52q29 0 79.5 -28.5t77.5 -28.5q31 0 68 37q6 -2 19.5 -35t14.5 -51q-1 -2 -3.5 -6t-12 -13.5t-20 -16.5t-29 -13t-38.5 -6q-30 0 -84 26.5t-80 26.5q-32 0 -67 -32q-7 -6 -24 69q-3 15 -3 19z" />
    <glyph glyph-name="Odieresis" unicode="&#xd6;" horiz-adv-x="753" 
d="M374 713q159 0 253 -100t94 -274q0 -69 -20.5 -131t-61 -114t-108.5 -82.5t-154 -30.5q-159 0 -252.5 102.5t-93.5 271.5q0 94 37 173.5t116.5 132t189.5 52.5zM530 352q0 97 -42 147.5t-111 50.5q-76 0 -118.5 -55.5t-42.5 -149.5q0 -86 43 -143t114 -57q78 0 117.5 55
t39.5 152zM495 766q-39 0 -59.5 20.5t-21.5 55.5t20 57t52 22t54.5 -23t23.5 -52q0 -34 -16.5 -57t-52.5 -23zM273 766q-38 0 -58.5 20.5t-22.5 55.5q-1 35 20 57t52 22t54.5 -23t23.5 -52q0 -34 -16.5 -57t-52.5 -23z" />
    <glyph glyph-name="multiply" unicode="&#xd7;" horiz-adv-x="485" 
d="M390 87q-4 3 -41.5 38t-73.5 68.5t-37 33.5q-2 0 -67 -72t-68 -73q-3 0 -20.5 13.5t-33 27t-14.5 14.5l144 154l-139 138q24 35 67 65l132 -132l136 137q58 -57 58 -63q-1 -4 -59 -70t-59 -69t69 -74t70 -73q0 -4 -28.5 -35t-35.5 -28z" />
    <glyph glyph-name="Oslash" unicode="&#xd8;" horiz-adv-x="752" 
d="M72 23q19 25 48 65q-89 101 -89 267q0 94 37 173.5t116.5 132t189.5 52.5q97 0 176 -44q44 60 45 60l93 -46l-6 -9q-6 -9 -21 -29.5t-28 -39.5q88 -97 88 -266q0 -69 -20.5 -131t-61 -114t-108.5 -82.5t-154 -30.5q-95 0 -171 41q-45 -58 -48 -56q-7 3 -20 10t-29 16
t-27 18t-10 13zM216 345q0 -57 22 -97q24 32 98 132.5t111 150.5q-32 19 -70 19q-76 0 -118.5 -55.5t-42.5 -149.5zM530 352q0 50 -17 87q-63 -88 -202 -276q28 -18 62 -18q78 0 117.5 55t39.5 152z" />
    <glyph glyph-name="Ugrave" unicode="&#xd9;" horiz-adv-x="715" 
d="M71 690q3 11 88.5 10.5t88.5 -7.5q2 -8 0 -81t-5.5 -168.5t-3.5 -136.5q0 -80 28 -115t87 -35q116 0 116 146q0 73 -3.5 228t-3.5 170q10 7 98 10t90 -4q8 -36 8 -415q0 -311 -302 -311q-301 0 -301 305q0 89 4.5 228t10.5 176zM179 846q-2 1 9.5 23t25 44.5t18.5 22.5
q2 1 58 -28t111 -58l55 -30q-29 -70 -46 -76q-2 0 -59 25t-114 51t-58 26z" />
    <glyph glyph-name="Uacute" unicode="&#xda;" horiz-adv-x="715" 
d="M71 690q3 11 88.5 10.5t88.5 -7.5q2 -8 0 -81t-5.5 -168.5t-3.5 -136.5q0 -80 28 -115t87 -35q116 0 116 146q0 73 -3.5 228t-3.5 170q10 7 98 10t90 -4q8 -36 8 -415q0 -311 -302 -311q-301 0 -301 305q0 89 4.5 228t10.5 176zM541 846q-1 0 -58 -26t-114 -51t-59 -25
q-8 3 -19 22t-19 36l-7 18l224 116q5 0 18.5 -22.5t24.5 -44.5t9 -23z" />
    <glyph glyph-name="Ucircumflex" unicode="&#xdb;" horiz-adv-x="715" 
d="M71 690q3 11 88.5 10.5t88.5 -7.5q2 -8 0 -81t-5.5 -168.5t-3.5 -136.5q0 -80 28 -115t87 -35q116 0 116 146q0 73 -3.5 228t-3.5 170q10 7 98 10t90 -4q8 -36 8 -415q0 -311 -302 -311q-301 0 -301 305q0 89 4.5 228t10.5 176zM181 818q155 105 174 113l174 -112
q-28 -62 -42 -68q-2 -1 -23 9.5t-52.5 27t-56.5 30.5q-126 -71 -129 -69q-6 3 -17.5 20t-19.5 33z" />
    <glyph glyph-name="Udieresis" unicode="&#xdc;" horiz-adv-x="715" 
d="M71 690q3 11 88.5 10.5t88.5 -7.5q2 -8 0 -81t-5.5 -168.5t-3.5 -136.5q0 -80 28 -115t87 -35q116 0 116 146q0 73 -3.5 228t-3.5 170q10 7 98 10t90 -4q8 -36 8 -415q0 -311 -302 -311q-301 0 -301 305q0 89 4.5 228t10.5 176zM470 766q-39 0 -59.5 20.5t-21.5 55.5
t20 57t52 22t54.5 -23t23.5 -52q0 -34 -16.5 -57t-52.5 -23zM248 766q-38 0 -58.5 20.5t-22.5 55.5q-1 35 20 57t52 22t54.5 -23t23.5 -52q0 -34 -16.5 -57t-52.5 -23z" />
    <glyph glyph-name="Yacute" unicode="&#xdd;" horiz-adv-x="629" 
d="M629 658q0 -10 -225 -390q2 -231 -3 -268q-3 -8 -48 -10t-89 1.5t-44 7.5q-2 28 2 271q-212 376 -211 387q1 8 77 31.5t86 20.5q3 -2 29.5 -51.5t60 -115.5t49.5 -103h6q10 18 31 57.5t38.5 72t36.5 66.5t30.5 54t13.5 20q11 1 85 -21t75 -30zM498 846q-1 0 -58 -26
t-114 -51t-59 -25q-8 3 -19 22t-18 36l-8 18l224 116q5 0 18.5 -22.5t24.5 -44.5t9 -23z" />
    <glyph glyph-name="Thorn" unicode="&#xde;" horiz-adv-x="626" 
d="M255 260q36 -2 70 -2q50 0 80.5 22t30.5 66q0 86 -94 93q-24 2 -36 2q-3 0 -22.5 -1t-28.5 -2v-47.5v-77.5v-53zM255 0q-3 -5 -94 -6.5t-92 3.5q-4 40 -4 344t6 353q9 1 47.5 1.5t82.5 1.5t55 1q2 0 1 -48t0 -48q42 3 70 3q134 0 208.5 -65t74.5 -183q0 -132 -75 -193
t-221 -61q-9 0 -29 0.5t-25 0.5q-1 -90 -5 -104z" />
    <glyph glyph-name="germandbls" unicode="&#xdf;" horiz-adv-x="606" 
d="M214 5q-6 -1 -15 -1.5t-34 -2.5t-45 -2.5t-39 0t-24 3.5q-1 1 -3.5 201t-2.5 275q0 110 64 179.5t189 69.5q117 0 185 -58.5t68 -140.5q0 -32 -12.5 -61.5t-27 -47t-27 -35t-12.5 -28.5t17 -26.5t37.5 -31.5t37.5 -47t17 -69q0 -177 -242 -207q-44 76 -55 131
q57 7 83 24.5t26 56.5q0 23 -23 48.5t-46 54t-23 59.5q0 32 20 61.5t40 54.5t20 48q0 29 -24 49t-62 20q-39 0 -62 -25.5t-24 -75.5q-3 -59 -2.5 -180.5t1.5 -195t0 -100.5z" />
    <glyph glyph-name="agrave" unicode="&#xe0;" horiz-adv-x="499" 
d="M33 392q0 8 13.5 25t36.5 37t63.5 34.5t87.5 14.5q97 0 158.5 -56.5t61.5 -162.5q0 -79 -3 -176.5t-5 -102.5q-1 -3 -33.5 -3t-64.5 2l-31 1l-9 43q-55 -55 -128 -55q-78 0 -116.5 41t-38.5 110q0 66 51 106.5t128 40.5q56 0 93 -27q1 23 -0.5 35.5t-8.5 30.5t-26.5 27
t-51.5 9q-27 0 -50 -11t-35.5 -22.5t-14.5 -11.5q-7 0 -42.5 31.5t-34.5 39.5zM159 147q0 -25 18.5 -40.5t46.5 -15.5q32 0 49 16t17 40q0 26 -19 41.5t-47 15.5q-29 0 -47 -16.5t-18 -40.5zM106 638q-2 1 9.5 23t25 44.5t18.5 22.5q2 1 58 -28t111 -58l55 -30
q-29 -70 -46 -76q-2 0 -59 25t-114 51t-58 26z" />
    <glyph glyph-name="aacute" unicode="&#xe1;" horiz-adv-x="499" 
d="M33 392q0 8 13.5 25t36.5 37t63.5 34.5t87.5 14.5q97 0 158.5 -56.5t61.5 -162.5q0 -79 -3 -176.5t-5 -102.5q-1 -3 -33.5 -3t-64.5 2l-31 1l-9 43q-55 -55 -128 -55q-78 0 -116.5 41t-38.5 110q0 66 51 106.5t128 40.5q56 0 93 -27q1 23 -0.5 35.5t-8.5 30.5t-26.5 27
t-51.5 9q-27 0 -50 -11t-35.5 -22.5t-14.5 -11.5q-7 0 -42.5 31.5t-34.5 39.5zM159 147q0 -25 18.5 -40.5t46.5 -15.5q32 0 49 16t17 40q0 26 -19 41.5t-47 15.5q-29 0 -47 -16.5t-18 -40.5zM400 638q-1 0 -58 -26t-114 -51t-59 -25q-8 3 -19 22t-18 36l-8 18l224 116
q5 0 18.5 -22.5t24.5 -44.5t9 -23z" />
    <glyph glyph-name="acircumflex" unicode="&#xe2;" horiz-adv-x="499" 
d="M33 392q0 8 13.5 25t36.5 37t63.5 34.5t87.5 14.5q97 0 158.5 -56.5t61.5 -162.5q0 -79 -3 -176.5t-5 -102.5q-1 -3 -33.5 -3t-64.5 2l-31 1l-9 43q-55 -55 -128 -55q-78 0 -116.5 41t-38.5 110q0 66 51 106.5t128 40.5q56 0 93 -27q1 23 -0.5 35.5t-8.5 30.5t-26.5 27
t-51.5 9q-27 0 -50 -11t-35.5 -22.5t-14.5 -11.5q-7 0 -42.5 31.5t-34.5 39.5zM159 147q0 -25 18.5 -40.5t46.5 -15.5q32 0 49 16t17 40q0 26 -19 41.5t-47 15.5q-29 0 -47 -16.5t-18 -40.5zM80 610q155 105 174 113l174 -112q-28 -62 -42 -68q-2 -1 -23 9.5t-52.5 27
t-56.5 30.5q-126 -71 -129 -69q-6 3 -17.5 20t-19.5 33z" />
    <glyph glyph-name="atilde" unicode="&#xe3;" horiz-adv-x="499" 
d="M33 392q0 8 13.5 25t36.5 37t63.5 34.5t87.5 14.5q97 0 158.5 -56.5t61.5 -162.5q0 -79 -3 -176.5t-5 -102.5q-1 -3 -33.5 -3t-64.5 2l-31 1l-9 43q-55 -55 -128 -55q-78 0 -116.5 41t-38.5 110q0 66 51 106.5t128 40.5q56 0 93 -27q1 23 -0.5 35.5t-8.5 30.5t-26.5 27
t-51.5 9q-27 0 -50 -11t-35.5 -22.5t-14.5 -11.5q-7 0 -42.5 31.5t-34.5 39.5zM159 147q0 -25 18.5 -40.5t46.5 -15.5q32 0 49 16t17 40q0 26 -19 41.5t-47 15.5q-29 0 -47 -16.5t-18 -40.5zM73 656q40 52 102 52q29 0 79.5 -28.5t77.5 -28.5q31 0 68 37q6 -2 19.5 -35
t14.5 -51q-1 -2 -3.5 -6t-12 -13.5t-20 -16.5t-29 -13t-38.5 -6q-30 0 -84 26.5t-80 26.5q-32 0 -67 -32q-7 -6 -24 69q-3 15 -3 19z" />
    <glyph glyph-name="adieresis" unicode="&#xe4;" horiz-adv-x="499" 
d="M33 392q0 8 13.5 25t36.5 37t63.5 34.5t87.5 14.5q97 0 158.5 -56.5t61.5 -162.5q0 -79 -3 -176.5t-5 -102.5q-1 -3 -33.5 -3t-64.5 2l-31 1l-9 43q-55 -55 -128 -55q-78 0 -116.5 41t-38.5 110q0 66 51 106.5t128 40.5q56 0 93 -27q1 23 -0.5 35.5t-8.5 30.5t-26.5 27
t-51.5 9q-27 0 -50 -11t-35.5 -22.5t-14.5 -11.5q-7 0 -42.5 31.5t-34.5 39.5zM159 147q0 -25 18.5 -40.5t46.5 -15.5q32 0 49 16t17 40q0 26 -19 41.5t-47 15.5q-29 0 -47 -16.5t-18 -40.5zM371 558q-39 0 -59.5 20.5t-21.5 55.5t20 57t52 22t54.5 -23t23.5 -52
q0 -34 -16.5 -57t-52.5 -23zM149 558q-38 0 -58.5 20.5t-22.5 55.5q-1 35 20 57t52 22t54.5 -23t23.5 -52q0 -34 -16.5 -57t-52.5 -23z" />
    <glyph glyph-name="aring" unicode="&#xe5;" horiz-adv-x="499" 
d="M33 392q0 8 13.5 25t36.5 37t63.5 34.5t87.5 14.5q97 0 158.5 -56.5t61.5 -162.5q0 -79 -3 -176.5t-5 -102.5q-1 -3 -33.5 -3t-64.5 2l-31 1l-9 43q-55 -55 -128 -55q-78 0 -116.5 41t-38.5 110q0 66 51 106.5t128 40.5q56 0 93 -27q1 23 -0.5 35.5t-8.5 30.5t-26.5 27
t-51.5 9q-27 0 -50 -11t-35.5 -22.5t-14.5 -11.5q-7 0 -42.5 31.5t-34.5 39.5zM159 147q0 -25 18.5 -40.5t46.5 -15.5q32 0 49 16t17 40q0 26 -19 41.5t-47 15.5q-29 0 -47 -16.5t-18 -40.5zM259 544q-50 0 -78.5 25t-28.5 75q0 48 30 72t77 24q43 0 71 -26t28 -71
q0 -41 -25 -70t-74 -29zM257 605q37 0 37 36q0 15 -9.5 26.5t-27.5 11.5q-22 0 -32 -11t-10 -27t13 -26t29 -10z" />
    <glyph glyph-name="ae" unicode="&#xe6;" horiz-adv-x="849" 
d="M527 204q0 -40 28 -63t79 -23q60 0 117 35q8 -8 29.5 -52.5t22.5 -55.5q-23 -22 -72 -39.5t-105 -17.5q-111 0 -177 60q-2 -42 -3 -43q-1 -3 -33.5 -3t-64.5 2l-31 1l-9 43q-55 -55 -128 -55q-78 0 -116.5 41t-38.5 110q0 66 51 106.5t128 40.5q56 0 93 -27
q1 23 -0.5 35.5t-8.5 30.5t-26.5 27t-51.5 9q-27 0 -50 -11t-35.5 -22.5t-14.5 -11.5q-7 0 -42.5 31.5t-34.5 39.5q0 8 13.5 25t36.5 37t63.5 34.5t87.5 14.5q134 0 190 -98q66 93 189 93q96 0 155 -62t59 -150q0 -47 -9 -77q-34 -5 -142 -6t-149 1zM526 296l157 3
q2 38 -17 62.5t-54 24.5q-38 0 -62 -25.5t-24 -64.5zM159 147q0 -25 18.5 -40.5t46.5 -15.5q32 0 49 16t17 40q0 26 -19 41.5t-47 15.5q-29 0 -47 -16.5t-18 -40.5z" />
    <glyph glyph-name="ccedilla" unicode="&#xe7;" horiz-adv-x="480" 
d="M184 240q0 -64 33.5 -88.5t76.5 -24.5q13 0 27 3t27.5 8t22 9.5t19.5 10.5l10 5q13 4 60 -97q-37 -59 -130 -75q-43 -158 -48 -162q-2 -1 -16 1.5t-32 6t-35.5 7.5t-29.5 7.5t-12 4.5q0 4 57 139q-94 21 -141 92.5t-47 160.5q0 100 71.5 175t187.5 75q48 0 90.5 -11.5
t62 -23.5t21.5 -18q3 -11 -14 -69.5t-29 -62.5q-2 0 -19 10.5t-44.5 22t-53.5 11.5q-54 0 -84.5 -30t-30.5 -87z" />
    <glyph glyph-name="egrave" unicode="&#xe8;" horiz-adv-x="504" 
d="M182 204q0 -40 28 -63t79 -23q60 0 117 35q8 -8 29.5 -52.5t22.5 -55.5q-23 -22 -72 -39.5t-105 -17.5q-127 0 -190.5 71.5t-63.5 177.5q0 108 64.5 184.5t176.5 76.5q96 0 155 -62t59 -150q0 -47 -9 -77q-34 -5 -142 -6t-149 1zM181 296l157 3q2 38 -17 62.5t-54 24.5
q-38 0 -62 -25.5t-24 -64.5zM121 638q-2 1 9.5 23t25 44.5t18.5 22.5q2 1 58 -28t111 -58l55 -30q-29 -70 -46 -76q-2 0 -59 25t-114 51t-58 26z" />
    <glyph glyph-name="eacute" unicode="&#xe9;" horiz-adv-x="504" 
d="M182 204q0 -40 28 -63t79 -23q60 0 117 35q8 -8 29.5 -52.5t22.5 -55.5q-23 -22 -72 -39.5t-105 -17.5q-127 0 -190.5 71.5t-63.5 177.5q0 108 64.5 184.5t176.5 76.5q96 0 155 -62t59 -150q0 -47 -9 -77q-34 -5 -142 -6t-149 1zM181 296l157 3q2 38 -17 62.5t-54 24.5
q-38 0 -62 -25.5t-24 -64.5zM409 638q-1 0 -58 -26t-114 -51t-59 -25q-8 3 -19 22t-19 36l-7 18l224 116q5 0 18.5 -22.5t24.5 -44.5t9 -23z" />
    <glyph glyph-name="ecircumflex" unicode="&#xea;" horiz-adv-x="504" 
d="M182 204q0 -40 28 -63t79 -23q60 0 117 35q8 -8 29.5 -52.5t22.5 -55.5q-23 -22 -72 -39.5t-105 -17.5q-127 0 -190.5 71.5t-63.5 177.5q0 108 64.5 184.5t176.5 76.5q96 0 155 -62t59 -150q0 -47 -9 -77q-34 -5 -142 -6t-149 1zM181 296l157 3q2 38 -17 62.5t-54 24.5
q-38 0 -62 -25.5t-24 -64.5zM96 610q155 105 174 113l174 -112q-28 -62 -42 -68q-2 -1 -23 9.5t-52.5 27t-56.5 30.5q-126 -71 -129 -69q-6 3 -17.5 20t-19.5 33z" />
    <glyph glyph-name="edieresis" unicode="&#xeb;" horiz-adv-x="504" 
d="M182 204q0 -40 28 -63t79 -23q60 0 117 35q8 -8 29.5 -52.5t22.5 -55.5q-23 -22 -72 -39.5t-105 -17.5q-127 0 -190.5 71.5t-63.5 177.5q0 108 64.5 184.5t176.5 76.5q96 0 155 -62t59 -150q0 -47 -9 -77q-34 -5 -142 -6t-149 1zM181 296l157 3q2 38 -17 62.5t-54 24.5
q-38 0 -62 -25.5t-24 -64.5zM386 558q-39 0 -59.5 20.5t-21.5 55.5t20 57t52 22t54.5 -23t23.5 -52q0 -34 -16.5 -57t-52.5 -23zM164 558q-38 0 -58.5 20.5t-22.5 55.5q-1 35 20 57t52 22t54.5 -23t23.5 -52q0 -34 -16.5 -57t-52.5 -23z" />
    <glyph glyph-name="igrave" unicode="&#xec;" horiz-adv-x="266" 
d="M-17 638q-2 1 9.5 23t25 44.5t18.5 22.5q2 1 58 -28t111 -58l55 -30q-29 -70 -46 -76q-2 0 -59 25t-114 51t-58 26zM53 493q5 7 81.5 5.5t80.5 -5.5q2 -3 -2 -244.5t-6 -246.5q-3 -5 -75 -4.5t-74 3.5t-5.5 243t0.5 249z" />
    <glyph glyph-name="iacute" unicode="&#xed;" horiz-adv-x="266" 
d="M282 638q-1 0 -58 -26t-114 -51t-59 -25q-8 3 -19 22t-18 36l-8 18l224 116q5 0 18.5 -22.5t24.5 -44.5t9 -23zM53 493q5 7 81.5 5.5t80.5 -5.5q2 -3 -2 -244.5t-6 -246.5q-3 -5 -75 -4.5t-74 3.5t-5.5 243t0.5 249z" />
    <glyph glyph-name="icircumflex" unicode="&#xee;" horiz-adv-x="266" 
d="M-40 610q155 105 174 113l174 -112q-28 -62 -42 -68q-2 -1 -23 9.5t-52.5 27t-56.5 30.5q-126 -71 -129 -69q-6 3 -17.5 20t-19.5 33zM53 493q5 7 81.5 5.5t80.5 -5.5q2 -3 -2 -244.5t-6 -246.5q-3 -5 -75 -4.5t-74 3.5t-5.5 243t0.5 249z" />
    <glyph glyph-name="idieresis" unicode="&#xef;" horiz-adv-x="266" 
d="M251 558q-39 0 -59.5 20.5t-21.5 55.5t20 57t52 22t54.5 -23t23.5 -52q0 -34 -16.5 -57t-52.5 -23zM29 558q-38 0 -58.5 20.5t-22.5 55.5q-1 35 20 57t52 22t54.5 -23t23.5 -52q0 -34 -16.5 -57t-52.5 -23zM53 493q5 7 81.5 5.5t80.5 -5.5q2 -3 -2 -244.5t-6 -246.5
q-3 -5 -75 -4.5t-74 3.5t-5.5 243t0.5 249z" />
    <glyph glyph-name="eth" unicode="&#xf0;" horiz-adv-x="565" 
d="M393 714q6 -5 16 -23.5t17 -35t6 -17.5q-18 -15 -34 -26q135 -137 135 -326q0 -75 -22.5 -134t-60 -93.5t-81 -52t-90.5 -17.5q-113 0 -184.5 61.5t-71.5 179.5q0 109 59.5 165.5t137.5 56.5q68 0 113 -36l3 4q-9 62 -75 113q-14 -9 -31.5 -19.5l-27.5 -16.5t-12 -8
q-8 0 -22 16t-23.5 32.5t-7.5 18.5q20 14 47 33q-25 14 -52 23q6 21 55.5 62t63.5 41q39 -14 78 -41q12 8 29 18.5t26 15.5zM363 232q0 40 -24.5 69.5t-71.5 29.5q-46 0 -69.5 -30.5t-23.5 -74.5q0 -43 25.5 -71t72.5 -28q45 0 68 29.5t23 75.5z" />
    <glyph glyph-name="ntilde" unicode="&#xf1;" horiz-adv-x="582" 
d="M52 481q6 9 79 13t79 -3q-3 -59 -3 -60q47 70 152 70q81 0 129 -59.5t48 -156.5q0 -187 -8 -285q-1 -7 -76.5 -7.5t-77.5 1.5q-2 19 -1.5 64t1.5 123.5t1 86.5q0 42 -19 67t-57 25q-39 0 -63.5 -25.5t-24.5 -56.5q0 -273 -4 -278q-2 -3 -76 -1.5t-76 5.5q-1 2 -2.5 78.5
t-1.5 181.5t1 217zM114 656q40 52 102 52q29 0 79.5 -28.5t77.5 -28.5q31 0 68 37q6 -2 19.5 -35t14.5 -51q-1 -2 -3.5 -6t-12 -13.5t-20 -16.5t-29 -13t-38.5 -6q-30 0 -84 26.5t-80 26.5q-32 0 -67 -32q-7 -6 -24 69q-3 15 -3 19z" />
    <glyph glyph-name="ograve" unicode="&#xf2;" horiz-adv-x="559" 
d="M379 238q0 55 -26.5 80t-66.5 27q-52 1 -79 -28t-27 -80q0 -50 27 -79t65 -30q52 -1 79.5 28t27.5 82zM278 497q110 0 182.5 -70.5t72.5 -190.5q0 -101 -68.5 -173.5t-184.5 -74.5q-110 0 -182 71t-72 190q0 99 70 173.5t182 74.5zM133 638q-2 1 9.5 23t25 44.5
t18.5 22.5q2 1 58 -28t111 -58l55 -30q-29 -70 -46 -76q-2 0 -59 25t-114 51t-58 26z" />
    <glyph glyph-name="oacute" unicode="&#xf3;" horiz-adv-x="559" 
d="M379 238q0 55 -26.5 80t-66.5 27q-52 1 -79 -28t-27 -80q0 -50 27 -79t65 -30q52 -1 79.5 28t27.5 82zM278 497q110 0 182.5 -70.5t72.5 -190.5q0 -101 -68.5 -173.5t-184.5 -74.5q-110 0 -182 71t-72 190q0 99 70 173.5t182 74.5zM430 638q-1 0 -58 -26t-114 -51
t-59 -25q-8 3 -19 22t-18 36l-8 18l224 116q5 0 18.5 -22.5t24.5 -44.5t9 -23z" />
    <glyph glyph-name="ocircumflex" unicode="&#xf4;" horiz-adv-x="559" 
d="M379 238q0 55 -26.5 80t-66.5 27q-52 1 -79 -28t-27 -80q0 -50 27 -79t65 -30q52 -1 79.5 28t27.5 82zM278 497q110 0 182.5 -70.5t72.5 -190.5q0 -101 -68.5 -173.5t-184.5 -74.5q-110 0 -182 71t-72 190q0 99 70 173.5t182 74.5zM110 610q155 105 174 113l174 -112
q-28 -62 -42 -68q-2 -1 -23 9.5t-52.5 27t-56.5 30.5q-126 -71 -129 -69q-6 3 -17.5 20t-19.5 33z" />
    <glyph glyph-name="otilde" unicode="&#xf5;" horiz-adv-x="559" 
d="M379 238q0 55 -26.5 80t-66.5 27q-52 1 -79 -28t-27 -80q0 -50 27 -79t65 -30q52 -1 79.5 28t27.5 82zM278 497q110 0 182.5 -70.5t72.5 -190.5q0 -101 -68.5 -173.5t-184.5 -74.5q-110 0 -182 71t-72 190q0 99 70 173.5t182 74.5zM102 656q40 52 102 52q29 0 79.5 -28.5
t77.5 -28.5q31 0 68 37q6 -2 19.5 -35t14.5 -51q-1 -2 -3.5 -6t-12 -13.5t-20 -16.5t-29 -13t-38.5 -6q-30 0 -84 26.5t-80 26.5q-32 0 -67 -32q-7 -6 -24 69q-3 15 -3 19z" />
    <glyph glyph-name="odieresis" unicode="&#xf6;" horiz-adv-x="559" 
d="M379 238q0 55 -26.5 80t-66.5 27q-52 1 -79 -28t-27 -80q0 -50 27 -79t65 -30q52 -1 79.5 28t27.5 82zM278 497q110 0 182.5 -70.5t72.5 -190.5q0 -101 -68.5 -173.5t-184.5 -74.5q-110 0 -182 71t-72 190q0 99 70 173.5t182 74.5zM402 558q-39 0 -59.5 20.5t-21.5 55.5
t20 57t52 22t54.5 -23t23.5 -52q0 -34 -16.5 -57t-52.5 -23zM180 558q-38 0 -58.5 20.5t-22.5 55.5q-1 35 20 57t52 22t54.5 -23t23.5 -52q0 -34 -16.5 -57t-52.5 -23z" />
    <glyph glyph-name="divide" unicode="&#xf7;" horiz-adv-x="481" 
d="M441 254l-397 -5q-2 2 -5 23.5t-4.5 42t-0.5 20.5l411 4q1 -81 -4 -85zM163 481q0 42 18 64.5t65 22.5q38 0 62 -24.5t24 -67.5q0 -32 -24.5 -53.5t-61.5 -21.5t-60 21t-23 59zM163 97q0 42 18 64.5t65 22.5q40 0 63.5 -24.5t23.5 -68.5q0 -31 -24.5 -52.5t-62.5 -21.5
t-60.5 21t-22.5 59z" />
    <glyph glyph-name="oslash" unicode="&#xf8;" horiz-adv-x="559" 
d="M44 22q17 20 42 49q-60 69 -60 178q0 99 69.5 173.5t182.5 74.5q79 0 140 -38q21 25 51 57l52 -38l-5 -6q-6 -7 -19 -22.5t-27 -33.5q63 -71 63 -180q0 -101 -69 -173.5t-184 -74.5q-78 0 -141 38q-13 -15 -24 -27t-17 -17l-6 -6q-5 3 -12 8t-17 12.5t-15.5 14.5t-3.5 11
zM385 238q0 38 -13 62l-142 -169q16 -11 41 -11q55 -1 84.5 30t29.5 88zM173 237q0 -29 10 -52q8 9 136 160q-14 7 -33 7q-55 2 -84 -29.5t-29 -85.5z" />
    <glyph glyph-name="ugrave" unicode="&#xf9;" horiz-adv-x="576" 
d="M519 2q-7 -9 -74 -8t-75 8v32t1 25q-20 -29 -58.5 -51.5t-89.5 -22.5q-179 0 -179 214q0 86 13 290q1 7 77 7.5t78 -2.5q1 -5 -1 -65.5t-4.5 -129t-2.5 -83.5q0 -90 76 -90q39 0 61.5 25.5t23.5 60.5q0 40 2.5 158t5.5 121q2 3 75.5 1.5t76.5 -5.5q3 -12 -6 -485z
M139 638q-2 1 9.5 23t25 44.5t18.5 22.5q2 1 58 -28t111 -58l55 -30q-29 -70 -46 -76q-2 0 -59 25t-114 51t-58 26z" />
    <glyph glyph-name="uacute" unicode="&#xfa;" horiz-adv-x="576" 
d="M519 2q-7 -9 -74 -8t-75 8v32t1 25q-20 -29 -58.5 -51.5t-89.5 -22.5q-179 0 -179 214q0 86 13 290q1 7 77 7.5t78 -2.5q1 -5 -1 -65.5t-4.5 -129t-2.5 -83.5q0 -90 76 -90q39 0 61.5 25.5t23.5 60.5q0 40 2.5 158t5.5 121q2 3 75.5 1.5t76.5 -5.5q3 -12 -6 -485z
M449 638q-1 0 -58 -26t-114 -51t-59 -25q-8 3 -19 22t-19 36l-7 18l224 116q5 0 18.5 -22.5t24.5 -44.5t9 -23z" />
    <glyph glyph-name="ucircumflex" unicode="&#xfb;" horiz-adv-x="576" 
d="M519 2q-7 -9 -74 -8t-75 8v32t1 25q-20 -29 -58.5 -51.5t-89.5 -22.5q-179 0 -179 214q0 86 13 290q1 7 77 7.5t78 -2.5q1 -5 -1 -65.5t-4.5 -129t-2.5 -83.5q0 -90 76 -90q39 0 61.5 25.5t23.5 60.5q0 40 2.5 158t5.5 121q2 3 75.5 1.5t76.5 -5.5q3 -12 -6 -485z
M118 610q155 105 174 113l174 -112q-28 -62 -42 -68q-2 -1 -23 9.5t-52.5 27t-56.5 30.5q-126 -71 -129 -69q-6 3 -17.5 20t-19.5 33z" />
    <glyph glyph-name="udieresis" unicode="&#xfc;" horiz-adv-x="576" 
d="M519 2q-7 -9 -74 -8t-75 8v32t1 25q-20 -29 -58.5 -51.5t-89.5 -22.5q-179 0 -179 214q0 86 13 290q1 7 77 7.5t78 -2.5q1 -5 -1 -65.5t-4.5 -129t-2.5 -83.5q0 -90 76 -90q39 0 61.5 25.5t23.5 60.5q0 40 2.5 158t5.5 121q2 3 75.5 1.5t76.5 -5.5q3 -12 -6 -485z
M410 558q-39 0 -59.5 20.5t-21.5 55.5t20 57t52 22t54.5 -23t23.5 -52q0 -34 -16.5 -57t-52.5 -23zM188 558q-38 0 -58.5 20.5t-22.5 55.5q-1 35 20 57t52 22t54.5 -23t23.5 -52q0 -34 -16.5 -57t-52.5 -23z" />
    <glyph glyph-name="yacute" unicode="&#xfd;" horiz-adv-x="533" 
d="M532 470q-13 -47 -152.5 -364.5t-151.5 -330.5q-26 -1 -84 24t-67 35q0 2 22.5 50t47 102t29.5 69q-29 57 -96.5 228.5t-66.5 190.5q0 5 68.5 17.5t81.5 12.5q6 0 32 -71t49 -141l23 -71q109 283 114 284q6 1 78.5 -15t72.5 -20zM449 638q-1 0 -58 -26t-114 -51t-59 -25
q-8 3 -19 22t-19 36l-7 18l224 116q5 0 18.5 -22.5t24.5 -44.5t9 -23z" />
    <glyph glyph-name="thorn" unicode="&#xfe;" horiz-adv-x="598" 
d="M356 -10q-40 0 -75.5 15t-43.5 27v-250q-11 -3 -86.5 -4t-77.5 2q-6 19 -20 478t2 488q21 15 90.5 11t76.5 -11q3 -3 6 -142t2 -162q9 16 48.5 36.5t89.5 20.5q84 -1 143 -64t59 -177q0 -131 -61.5 -199.5t-152.5 -68.5zM418 247q0 48 -29 78t-74 30t-71 -28.5t-26 -78.5
q0 -47 26 -77.5t71 -30.5q48 0 75.5 28t27.5 79z" />
    <glyph glyph-name="ydieresis" unicode="&#xff;" horiz-adv-x="533" 
d="M532 470q-13 -47 -152.5 -364.5t-151.5 -330.5q-26 -1 -84 24t-67 35q0 2 22.5 50t47 102t29.5 69q-29 57 -96.5 228.5t-66.5 190.5q0 5 68.5 17.5t81.5 12.5q6 0 32 -71t49 -141l23 -71q109 283 114 284q6 1 78.5 -15t72.5 -20zM389 558q-39 0 -59.5 20.5t-21.5 55.5
t20 57t52 22t54.5 -23t23.5 -52q0 -34 -16.5 -57t-52.5 -23zM167 558q-38 0 -58.5 20.5t-22.5 55.5q-1 35 20 57t52 22t54.5 -23t23.5 -52q0 -34 -16.5 -57t-52.5 -23z" />
    <glyph glyph-name="Amacron" unicode="&#x100;" horiz-adv-x="710" 
d="M513 -9q-16 36 -53 150h-213q-44 -144 -47 -148q-4 -3 -91 4t-95 13q16 61 116 372.5t106 315.5q7 5 108.5 8t120.5 -1q2 -1 55 -149.5t111 -322t67 -224.5q-9 -6 -55 -10.5t-87 -6.5t-43 -1zM360 542q-1 0 -3 -0.5t-3 -0.5q-50 -177 -80 -263q68 2 166 2q-36 99 -80 262
zM193 777q-5 0 -4 46t4 48t160.5 5.5t159.5 -1.5q1 -5 -1.5 -48t-4.5 -43q-1 0 -156 -3.5t-158 -3.5z" />
    <glyph glyph-name="amacron" unicode="&#x101;" horiz-adv-x="499" 
d="M33 392q0 8 13.5 25t36.5 37t63.5 34.5t87.5 14.5q97 0 158.5 -56.5t61.5 -162.5q0 -79 -3 -176.5t-5 -102.5q-1 -3 -33.5 -3t-64.5 2l-31 1l-9 43q-55 -55 -128 -55q-78 0 -116.5 41t-38.5 110q0 66 51 106.5t128 40.5q56 0 93 -27q1 23 -0.5 35.5t-8.5 30.5t-26.5 27
t-51.5 9q-27 0 -50 -11t-35.5 -22.5t-14.5 -11.5q-7 0 -42.5 31.5t-34.5 39.5zM159 147q0 -25 18.5 -40.5t46.5 -15.5q32 0 49 16t17 40q0 26 -19 41.5t-47 15.5q-29 0 -47 -16.5t-18 -40.5zM96 569q-5 0 -4 46t4 48t160.5 5.5t159.5 -1.5q1 -5 -1.5 -48t-4.5 -43
q-1 0 -156 -3.5t-158 -3.5z" />
    <glyph glyph-name="Abreve" unicode="&#x102;" horiz-adv-x="710" 
d="M513 -9q-16 36 -53 150h-213q-44 -144 -47 -148q-4 -3 -91 4t-95 13q16 61 116 372.5t106 315.5q7 5 108.5 8t120.5 -1q2 -1 55 -149.5t111 -322t67 -224.5q-9 -6 -55 -10.5t-87 -6.5t-43 -1zM360 542q-1 0 -3 -0.5t-3 -0.5q-50 -177 -80 -263q68 2 166 2q-36 99 -80 262
zM358 759q-116 0 -180 91q0 9 19.5 28t40.5 30q54 -52 122 -52q56 0 110 49q11 -3 32.5 -25.5t24.5 -29.5q-21 -34 -68.5 -62.5t-100.5 -28.5z" />
    <glyph glyph-name="abreve" unicode="&#x103;" horiz-adv-x="499" 
d="M33 392q0 8 13.5 25t36.5 37t63.5 34.5t87.5 14.5q97 0 158.5 -56.5t61.5 -162.5q0 -79 -3 -176.5t-5 -102.5q-1 -3 -33.5 -3t-64.5 2l-31 1l-9 43q-55 -55 -128 -55q-78 0 -116.5 41t-38.5 110q0 66 51 106.5t128 40.5q56 0 93 -27q1 23 -0.5 35.5t-8.5 30.5t-26.5 27
t-51.5 9q-27 0 -50 -11t-35.5 -22.5t-14.5 -11.5q-7 0 -42.5 31.5t-34.5 39.5zM159 147q0 -25 18.5 -40.5t46.5 -15.5q32 0 49 16t17 40q0 26 -19 41.5t-47 15.5q-29 0 -47 -16.5t-18 -40.5zM259 551q-116 0 -180 91q0 9 19.5 28t40.5 30q54 -52 122 -52q56 0 110 49
q11 -3 32.5 -25.5t24.5 -29.5q-21 -34 -68.5 -62.5t-100.5 -28.5z" />
    <glyph glyph-name="Aogonek" unicode="&#x104;" horiz-adv-x="710" 
d="M476 -116q0 62 65 108q-16 -1 -28 -1q-16 36 -53 150h-213q-44 -144 -47 -148q-4 -3 -91 4t-95 13q16 61 116 372.5t106 315.5q7 5 108.5 8t120.5 -1q2 -1 55 -149.5t111 -322t67 -224.5q-114 -57 -114 -91q0 -30 29 -30q10 0 22.5 5t19.5 10l7 5q5 0 27.5 -31t17.5 -36
q-21 -23 -56 -42t-72 -19q-44 0 -73.5 29.5t-29.5 74.5zM360 542q-1 0 -3 -0.5t-3 -0.5q-50 -177 -80 -263q68 2 166 2q-36 99 -80 262z" />
    <glyph glyph-name="aogonek" unicode="&#x105;" horiz-adv-x="499" 
d="M218 -119q0 43 29.5 75.5t68.5 52.5l-8 39q-55 -55 -128 -55q-78 0 -116.5 41t-38.5 110q0 66 51 106.5t128 40.5q56 0 93 -27q1 23 -0.5 35.5t-8.5 30.5t-26.5 27t-51.5 9q-27 0 -50 -11t-35.5 -22.5t-14.5 -11.5q-7 0 -42.5 31.5t-34.5 39.5q0 8 13.5 25t36.5 37
t63.5 34.5t87.5 14.5q97 0 158.5 -56.5t61.5 -162.5q0 -79 -3 -176.5t-5 -102.5q-3 -2 -15 -8l-18 -9t-17.5 -9.5t-18 -10.5t-16 -10t-14.5 -11t-10.5 -11t-8 -11.5t-2.5 -10.5q0 -30 29 -30q10 0 22.5 5t19.5 10l7 5q5 1 27.5 -30t17.5 -37q-21 -23 -56 -42t-72 -19
q-44 0 -73.5 30t-29.5 75zM159 147q0 -25 18.5 -40.5t46.5 -15.5q32 0 49 16t17 40q0 26 -19 41.5t-47 15.5q-29 0 -47 -16.5t-18 -40.5z" />
    <glyph glyph-name="Cacute" unicode="&#x106;" horiz-adv-x="649" 
d="M220 348q0 -100 51 -150t122 -50q77 0 158 59q15 -11 41 -54t42 -77q-35 -40 -106 -68.5t-153 -28.5q-168 0 -255.5 105t-87.5 271q0 154 101 255t268 101q79 0 140.5 -20t88.5 -46q0 -17 -25 -75.5t-42 -73.5q-82 48 -160 48t-130.5 -55.5t-52.5 -140.5zM548 846
q-1 0 -58 -26t-114 -51t-59 -25q-8 3 -19 22t-18 36l-8 18l224 116q5 0 18.5 -22.5t24.5 -44.5t9 -23z" />
    <glyph glyph-name="cacute" unicode="&#x107;" horiz-adv-x="480" 
d="M184 240q0 -64 33.5 -88.5t76.5 -24.5q13 0 27 3t27.5 8t22 9.5t19.5 10.5l10 5q13 4 60 -97q-20 -33 -68 -56t-104 -23q-68 0 -120 22.5t-82 61t-45 83.5t-15 94q0 100 71.5 175t187.5 75q48 0 90.5 -11.5t62 -23.5t21.5 -18q3 -11 -14 -69.5t-29 -62.5q-2 0 -19 10.5
t-44.5 22t-53.5 11.5q-54 0 -84.5 -30t-30.5 -87zM422 638q-1 0 -58 -26t-114 -51t-59 -25q-8 3 -19 22t-18 36l-8 18l224 116q5 0 18.5 -22.5t24.5 -44.5t9 -23z" />
    <glyph glyph-name="Ccircumflex" unicode="&#x108;" horiz-adv-x="649" 
d="M220 348q0 -100 51 -150t122 -50q77 0 158 59q15 -11 41 -54t42 -77q-35 -40 -106 -68.5t-153 -28.5q-168 0 -255.5 105t-87.5 271q0 154 101 255t268 101q79 0 140.5 -20t88.5 -46q0 -17 -25 -75.5t-42 -73.5q-82 48 -160 48t-130.5 -55.5t-52.5 -140.5zM221 818
q155 105 174 113l174 -112q-28 -62 -42 -68q-2 -1 -23 9.5t-52.5 27t-56.5 30.5q-126 -71 -129 -69q-6 3 -17.5 20t-19.5 33z" />
    <glyph glyph-name="ccircumflex" unicode="&#x109;" horiz-adv-x="480" 
d="M184 240q0 -64 33.5 -88.5t76.5 -24.5q13 0 27 3t27.5 8t22 9.5t19.5 10.5l10 5q13 4 60 -97q-20 -33 -68 -56t-104 -23q-68 0 -120 22.5t-82 61t-45 83.5t-15 94q0 100 71.5 175t187.5 75q48 0 90.5 -11.5t62 -23.5t21.5 -18q3 -11 -14 -69.5t-29 -62.5q-2 0 -19 10.5
t-44.5 22t-53.5 11.5q-54 0 -84.5 -30t-30.5 -87zM106 610q155 105 174 113l174 -112q-28 -62 -42 -68q-2 -1 -23 9.5t-52.5 27t-56.5 30.5q-126 -71 -129 -69q-6 3 -17.5 20t-19.5 33z" />
    <glyph glyph-name="Cdotaccent" unicode="&#x10a;" horiz-adv-x="649" 
d="M220 348q0 -100 51 -150t122 -50q77 0 158 59q15 -11 41 -54t42 -77q-35 -40 -106 -68.5t-153 -28.5q-168 0 -255.5 105t-87.5 271q0 154 101 255t268 101q79 0 140.5 -20t88.5 -46q0 -17 -25 -75.5t-42 -73.5q-82 48 -160 48t-130.5 -55.5t-52.5 -140.5zM304 852
q0 44 19 68t69 24q41 0 66.5 -26t25.5 -72q0 -33 -26 -56t-66 -23t-64 22.5t-24 62.5z" />
    <glyph glyph-name="cdotaccent" unicode="&#x10b;" horiz-adv-x="480" 
d="M184 240q0 -64 33.5 -88.5t76.5 -24.5q13 0 27 3t27.5 8t22 9.5t19.5 10.5l10 5q13 4 60 -97q-20 -33 -68 -56t-104 -23q-68 0 -120 22.5t-82 61t-45 83.5t-15 94q0 100 71.5 175t187.5 75q48 0 90.5 -11.5t62 -23.5t21.5 -18q3 -11 -14 -69.5t-29 -62.5q-2 0 -19 10.5
t-44.5 22t-53.5 11.5q-54 0 -84.5 -30t-30.5 -87zM188 652q0 44 19 68t69 24q41 0 66.5 -26t25.5 -72q0 -33 -26 -56t-66 -23t-64 22.5t-24 62.5z" />
    <glyph glyph-name="Ccaron" unicode="&#x10c;" horiz-adv-x="649" 
d="M220 348q0 -100 51 -150t122 -50q77 0 158 59q15 -11 41 -54t42 -77q-35 -40 -106 -68.5t-153 -28.5q-168 0 -255.5 105t-87.5 271q0 154 101 255t268 101q79 0 140.5 -20t88.5 -46q0 -17 -25 -75.5t-42 -73.5q-82 48 -160 48t-130.5 -55.5t-52.5 -140.5zM220 858
q31 64 45 70q2 1 130 -71q25 14 57 31t53.5 27.5t23.5 9.5q6 -3 16.5 -19.5t17.5 -31.5l7 -16q-167 -110 -175 -113q-8 4 -52 32t-83 55z" />
    <glyph glyph-name="ccaron" unicode="&#x10d;" horiz-adv-x="480" 
d="M184 240q0 -64 33.5 -88.5t76.5 -24.5q13 0 27 3t27.5 8t22 9.5t19.5 10.5l10 5q13 4 60 -97q-20 -33 -68 -56t-104 -23q-68 0 -120 22.5t-82 61t-45 83.5t-15 94q0 100 71.5 175t187.5 75q48 0 90.5 -11.5t62 -23.5t21.5 -18q3 -11 -14 -69.5t-29 -62.5q-2 0 -19 10.5
t-44.5 22t-53.5 11.5q-54 0 -84.5 -30t-30.5 -87zM102 650q31 64 45 70q2 1 130 -71q25 14 57 31t53.5 27.5t23.5 9.5q6 -3 16.5 -19.5t17.5 -31.5l7 -16q-167 -110 -175 -113q-8 4 -52 32t-83 55z" />
    <glyph glyph-name="Dcaron" unicode="&#x10e;" horiz-adv-x="701" 
d="M66 3q-4 43 -1.5 341.5t8.5 351.5q31 8 219 8q172 0 274.5 -100t102.5 -255q0 -166 -94.5 -263t-291.5 -97q-173 0 -217 14zM484 340q0 88 -53.5 143t-136.5 55q-27 0 -53 -2q1 -100 -4 -380q24 -4 64 -4q183 0 183 188zM139 858q31 64 45 70q2 1 130 -71q25 14 57 31
t53.5 27.5t23.5 9.5q6 -3 16.5 -19.5t17.5 -31.5l7 -16q-167 -110 -175 -113q-8 4 -52 32t-84 55z" />
    <glyph glyph-name="dcaron" unicode="&#x10f;" horiz-adv-x="715" 
d="M248 -3q-90 0 -155 67.5t-65 186.5q0 111 69 176.5t163 66.5q43 0 81.5 -19.5t47.5 -33.5q0 302 7 307q7 6 78.5 8t87.5 -5q2 -1 -4.5 -372.5t-8.5 -379.5q-2 -2 -30.5 -4.5t-65 -1.5t-52.5 7q0 34 -3 55q-10 -15 -53 -36.5t-97 -21.5zM200 245q0 -49 27.5 -76.5
t70.5 -27.5q48 0 73.5 29t25.5 76q0 48 -28.5 76t-70.5 28q-46 0 -72 -28.5t-26 -76.5zM762 632q0 -80 -64 -176q-1 -2 -17 1.5t-34 11.5t-24 16q-1 1 4.5 12t15.5 28t14 26q-30 3 -51.5 25t-21.5 54q0 41 26 63.5t73 19.5q34 -2 56.5 -21t22.5 -60z" />
    <glyph glyph-name="Dcroat" unicode="&#x110;" horiz-adv-x="706" 
d="M19 293q-4 0 -3.5 46.5t3.5 48.5h7q6 1 18.5 1.5t25.5 0.5q4 272 8 306q31 8 219 8q172 0 274.5 -100t102.5 -255q0 -166 -94.5 -263t-291.5 -97q-63 0 -132 4.5t-85 9.5q-2 26 -2 291q-28 -1 -50 -1zM489 340q0 88 -53.5 143t-136.5 55q-27 0 -53 -2q0 -93 -1 -142
q92 2 94 -2q2 -5 -0.5 -48.5t-4.5 -43.5h-12q-12 -1 -34 -1.5t-43 -0.5q-2 -50 -2 -142q23 -4 63 -4q183 0 183 188z" />
    <glyph glyph-name="dcroat" unicode="&#x111;" horiz-adv-x="608" 
d="M627 662q4 -13 3.5 -36.5t-3 -47t-4.5 -23.5q-2 -2 -63 -2q-7 -539 -11 -554q-2 -2 -30.5 -4.5t-65 -1.5t-52.5 7l-3 55q-8 -12 -37 -28.5t-68 -23.5q-22 -5 -57 -5q-77 3 -142.5 72t-65.5 181q0 110 72 176t160 67q43 0 81.5 -19.5t47.5 -33.5q0 3 -0.5 42t-0.5 67
q-85 -2 -102 0q-7 5 -11 31.5t-3.5 47.5t1.5 26l15 1q16 0 45 1t56 2q2 85 7 89q7 6 78.5 8t87.5 -5q0 -50 -1 -88q11 0 26.5 -0.5t27.5 -0.5h12zM200 245q0 -49 27.5 -76.5t70.5 -27.5q48 0 73.5 29t25.5 76q0 48 -28.5 76t-70.5 28q-46 0 -72 -28.5t-26 -76.5z" />
    <glyph glyph-name="Emacron" unicode="&#x112;" horiz-adv-x="582" 
d="M534 147q6 -26 5.5 -81t-4.5 -69q4 -2 -96.5 -3.5t-218.5 -0.5t-155 5q-4 63 -1.5 329t7.5 371q69 4 268.5 5.5t206.5 -2.5q5 -13 5.5 -70.5t-3.5 -81.5q-22 -2 -135 -2.5t-175 1.5l2 -122q223 3 233 -6q3 -2 4 -13.5t1.5 -27t0 -33.5t-1 -33t-1.5 -26v-11q0 -4 -82.5 -4
t-153.5 2q0 -93 -1 -128q236 5 295 1zM149 777q-5 0 -4 46t4 48t160.5 5.5t159.5 -1.5q1 -5 -1.5 -48t-4.5 -43q-1 0 -156 -3.5t-158 -3.5z" />
    <glyph glyph-name="emacron" unicode="&#x113;" horiz-adv-x="504" 
d="M182 204q0 -40 28 -63t79 -23q60 0 117 35q8 -8 29.5 -52.5t22.5 -55.5q-23 -22 -72 -39.5t-105 -17.5q-127 0 -190.5 71.5t-63.5 177.5q0 108 64.5 184.5t176.5 76.5q96 0 155 -62t59 -150q0 -47 -9 -77q-34 -5 -142 -6t-149 1zM181 296l157 3q2 38 -17 62.5t-54 24.5
q-38 0 -62 -25.5t-24 -64.5zM112 569q-5 0 -4 46t4 48t160.5 5.5t159.5 -1.5q1 -5 -1.5 -48t-4.5 -43q-1 0 -156 -3.5t-158 -3.5z" />
    <glyph glyph-name="Ebreve" unicode="&#x114;" horiz-adv-x="582" 
d="M534 147q6 -26 5.5 -81t-4.5 -69q4 -2 -96.5 -3.5t-218.5 -0.5t-155 5q-4 63 -1.5 329t7.5 371q69 4 268.5 5.5t206.5 -2.5q5 -13 5.5 -70.5t-3.5 -81.5q-22 -2 -135 -2.5t-175 1.5l2 -122q223 3 233 -6q3 -2 4 -13.5t1.5 -27t0 -33.5t-1 -33t-1.5 -26v-11q0 -4 -82.5 -4
t-153.5 2q0 -93 -1 -128q236 5 295 1zM313 759q-116 0 -180 91q0 9 19.5 28t40.5 30q54 -52 122 -52q56 0 110 49q11 -3 32.5 -25.5t24.5 -29.5q-21 -34 -68.5 -62.5t-100.5 -28.5z" />
    <glyph glyph-name="ebreve" unicode="&#x115;" horiz-adv-x="504" 
d="M182 204q0 -40 28 -63t79 -23q60 0 117 35q8 -8 29.5 -52.5t22.5 -55.5q-23 -22 -72 -39.5t-105 -17.5q-127 0 -190.5 71.5t-63.5 177.5q0 108 64.5 184.5t176.5 76.5q96 0 155 -62t59 -150q0 -47 -9 -77q-34 -5 -142 -6t-149 1zM181 296l157 3q2 38 -17 62.5t-54 24.5
q-38 0 -62 -25.5t-24 -64.5zM275 551q-116 0 -180 91q0 9 19.5 28t40.5 30q54 -52 122 -52q56 0 110 49q11 -3 32.5 -25.5t24.5 -29.5q-21 -34 -68.5 -62.5t-100.5 -28.5z" />
    <glyph glyph-name="Edotaccent" unicode="&#x116;" horiz-adv-x="582" 
d="M534 147q6 -26 5.5 -81t-4.5 -69q4 -2 -96.5 -3.5t-218.5 -0.5t-155 5q-4 63 -1.5 329t7.5 371q69 4 268.5 5.5t206.5 -2.5q5 -13 5.5 -70.5t-3.5 -81.5q-22 -2 -135 -2.5t-175 1.5l2 -122q223 3 233 -6q3 -2 4 -13.5t1.5 -27t0 -33.5t-1 -33t-1.5 -26v-11q0 -4 -82.5 -4
t-153.5 2q0 -93 -1 -128q236 5 295 1zM216 852q0 44 19 68t69 24q41 0 66.5 -26t25.5 -72q0 -33 -26 -56t-66 -23t-64 22.5t-24 62.5z" />
    <glyph glyph-name="edotaccent" unicode="&#x117;" horiz-adv-x="504" 
d="M182 204q0 -40 28 -63t79 -23q60 0 117 35q8 -8 29.5 -52.5t22.5 -55.5q-23 -22 -72 -39.5t-105 -17.5q-127 0 -190.5 71.5t-63.5 177.5q0 108 64.5 184.5t176.5 76.5q96 0 155 -62t59 -150q0 -47 -9 -77q-34 -5 -142 -6t-149 1zM181 296l157 3q2 38 -17 62.5t-54 24.5
q-38 0 -62 -25.5t-24 -64.5zM179 652q0 44 19 68t69 24q41 0 66.5 -26t25.5 -72q0 -33 -26 -56t-66 -23t-64 22.5t-24 62.5z" />
    <glyph glyph-name="Eogonek" unicode="&#x118;" horiz-adv-x="583" 
d="M328 -119q0 67 77 112q-272 -2 -340 5q-3 60 -0.5 329t7.5 371q68 4 267.5 5.5t207.5 -2.5q5 -13 5.5 -70.5t-4.5 -81.5q-21 -2 -134 -2.5t-175 1.5l2 -122q221 3 233 -6q3 -3 4 -18t1 -35.5t-0.5 -40t-1.5 -34.5l-1 -16q0 -4 -82 -4t-154 2v-128q236 5 295 1
q6 -26 5.5 -81t-5.5 -69q-30 -15 -46.5 -25t-34.5 -26.5t-18 -31.5q0 -30 29 -30q11 0 23.5 5t19.5 10l7 5q5 1 27 -30.5t17 -36.5q-21 -23 -55.5 -42t-72.5 -19q-44 0 -73.5 30t-29.5 75z" />
    <glyph glyph-name="eogonek" unicode="&#x119;" horiz-adv-x="504" 
d="M191 -109q0 57 55 99q-110 10 -164.5 79.5t-54.5 167.5q0 108 64.5 184.5t176.5 76.5q96 0 155 -62t59 -150q0 -47 -9 -77q-34 -5 -142 -6t-149 1q0 -40 28 -63t79 -23q60 0 117 35q8 -8 29.5 -52.5t22.5 -55.5q-16 -15 -79 -42q-33 -14 -56.5 -36.5t-23.5 -42.5
q0 -30 29 -30q11 0 23.5 5t19.5 10l7 5q5 1 27 -30.5t17 -36.5q-20 -23 -55 -42t-73 -19q-44 0 -73.5 30t-29.5 75zM181 296l157 3q2 38 -17 62.5t-54 24.5q-38 0 -62 -25.5t-24 -64.5z" />
    <glyph glyph-name="Ecaron" unicode="&#x11a;" horiz-adv-x="582" 
d="M534 147q6 -26 5.5 -81t-4.5 -69q4 -2 -96.5 -3.5t-218.5 -0.5t-155 5q-4 63 -1.5 329t7.5 371q69 4 268.5 5.5t206.5 -2.5q5 -13 5.5 -70.5t-3.5 -81.5q-22 -2 -135 -2.5t-175 1.5l2 -122q223 3 233 -6q3 -2 4 -13.5t1.5 -27t0 -33.5t-1 -33t-1.5 -26v-11q0 -4 -82.5 -4
t-153.5 2q0 -93 -1 -128q236 5 295 1zM130 858q31 64 45 70q2 1 130 -71q25 14 57 31t53.5 27.5t23.5 9.5q6 -3 16.5 -19.5t17.5 -31.5l7 -16q-167 -110 -175 -113q-8 4 -52 32t-83 55z" />
    <glyph glyph-name="ecaron" unicode="&#x11b;" horiz-adv-x="504" 
d="M182 204q0 -40 28 -63t79 -23q60 0 117 35q8 -8 29.5 -52.5t22.5 -55.5q-23 -22 -72 -39.5t-105 -17.5q-127 0 -190.5 71.5t-63.5 177.5q0 108 64.5 184.5t176.5 76.5q96 0 155 -62t59 -150q0 -47 -9 -77q-34 -5 -142 -6t-149 1zM181 296l157 3q2 38 -17 62.5t-54 24.5
q-38 0 -62 -25.5t-24 -64.5zM95 650q31 64 45 70q2 1 130 -71q25 14 57 31t53.5 27.5t23.5 9.5q6 -3 16.5 -19.5t17.5 -31.5l7 -16q-167 -110 -175 -113q-8 4 -52 32t-84 55z" />
    <glyph glyph-name="Gcircumflex" unicode="&#x11c;" horiz-adv-x="688" 
d="M218 348q0 -103 48 -156t127 -53q41 0 90 18l-2 95q-96 -3 -116 -4q-4 5 -4.5 62.5t3.5 65.5q25 6 149.5 10t131.5 -2q5 -11 4 -159t-4 -168q-37 -29 -113.5 -53t-156.5 -24q-168 0 -255.5 104.5t-87.5 270.5q0 155 97.5 255.5t263.5 100.5q79 0 140 -21t90 -47
q0 -14 -30.5 -71t-44.5 -72q-76 43 -152 43q-77 0 -127.5 -55t-50.5 -140zM206 818q155 105 174 113l174 -112q-28 -62 -42 -68q-2 -1 -23 9.5t-52.5 27t-56.5 30.5q-126 -71 -129 -69q-6 3 -17.5 20t-19.5 33z" />
    <glyph glyph-name="gcircumflex" unicode="&#x11d;" horiz-adv-x="606" 
d="M408 490q13 8 75 6t65 -5q3 -16 9 -390q1 -95 -20.5 -161.5t-60 -100.5t-81 -48t-93.5 -14q-80 0 -141 25t-73 47q18 62 50 107q1 1 18.5 -9t52.5 -22.5t72 -12.5q118 0 115 150q-6 -10 -19 -22t-45.5 -24.5t-72.5 -12.5q-89 0 -160 63.5t-71 172.5q0 113 69.5 183.5
t164.5 70.5q89 0 144 -57q0 3 1 27t1 27zM201 239q0 -48 25.5 -76.5t71.5 -28.5q42 0 71 28t29 76q0 47 -25.5 76t-74.5 29q-42 0 -69.5 -27.5t-27.5 -76.5zM135 610q155 105 174 113l174 -112q-28 -62 -42 -68q-2 -1 -23 9.5t-52.5 27t-56.5 30.5q-126 -71 -129 -69
q-6 3 -17.5 20t-19.5 33z" />
    <glyph glyph-name="Gbreve" unicode="&#x11e;" horiz-adv-x="688" 
d="M218 348q0 -103 48 -156t127 -53q41 0 90 18l-2 95q-96 -3 -116 -4q-4 5 -4.5 62.5t3.5 65.5q25 6 149.5 10t131.5 -2q5 -11 4 -159t-4 -168q-37 -29 -113.5 -53t-156.5 -24q-168 0 -255.5 104.5t-87.5 270.5q0 155 97.5 255.5t263.5 100.5q79 0 140 -21t90 -47
q0 -14 -30.5 -71t-44.5 -72q-76 43 -152 43q-77 0 -127.5 -55t-50.5 -140zM386 759q-116 0 -180 91q0 9 19.5 28t40.5 30q54 -52 122 -52q56 0 110 49q11 -3 32.5 -25.5t24.5 -29.5q-21 -34 -68.5 -62.5t-100.5 -28.5z" />
    <glyph glyph-name="gbreve" unicode="&#x11f;" horiz-adv-x="606" 
d="M408 490q13 8 75 6t65 -5q3 -16 9 -390q1 -95 -20.5 -161.5t-60 -100.5t-81 -48t-93.5 -14q-80 0 -141 25t-73 47q18 62 50 107q1 1 18.5 -9t52.5 -22.5t72 -12.5q118 0 115 150q-6 -10 -19 -22t-45.5 -24.5t-72.5 -12.5q-89 0 -160 63.5t-71 172.5q0 113 69.5 183.5
t164.5 70.5q89 0 144 -57q0 3 1 27t1 27zM201 239q0 -48 25.5 -76.5t71.5 -28.5q42 0 71 28t29 76q0 47 -25.5 76t-74.5 29q-42 0 -69.5 -27.5t-27.5 -76.5zM314 551q-116 0 -180 91q0 9 19.5 28t40.5 30q54 -52 122 -52q56 0 110 49q11 -3 32.5 -25.5t24.5 -29.5
q-21 -34 -68.5 -62.5t-100.5 -28.5z" />
    <glyph glyph-name="Gdotaccent" unicode="&#x120;" horiz-adv-x="688" 
d="M218 348q0 -103 48 -156t127 -53q41 0 90 18l-2 95q-96 -3 -116 -4q-4 5 -4.5 62.5t3.5 65.5q25 6 149.5 10t131.5 -2q5 -11 4 -159t-4 -168q-37 -29 -113.5 -53t-156.5 -24q-168 0 -255.5 104.5t-87.5 270.5q0 155 97.5 255.5t263.5 100.5q79 0 140 -21t90 -47
q0 -14 -30.5 -71t-44.5 -72q-76 43 -152 43q-77 0 -127.5 -55t-50.5 -140zM290 852q0 44 19 68t69 24q41 0 66.5 -26t25.5 -72q0 -33 -26 -56t-66 -23t-64 22.5t-24 62.5z" />
    <glyph glyph-name="gdotaccent" unicode="&#x121;" horiz-adv-x="606" 
d="M408 490q13 8 75 6t65 -5q3 -16 9 -390q1 -95 -20.5 -161.5t-60 -100.5t-81 -48t-93.5 -14q-80 0 -141 25t-73 47q18 62 50 107q1 1 18.5 -9t52.5 -22.5t72 -12.5q118 0 115 150q-6 -10 -19 -22t-45.5 -24.5t-72.5 -12.5q-89 0 -160 63.5t-71 172.5q0 113 69.5 183.5
t164.5 70.5q89 0 144 -57q0 3 1 27t1 27zM201 239q0 -48 25.5 -76.5t71.5 -28.5q42 0 71 28t29 76q0 47 -25.5 76t-74.5 29q-42 0 -69.5 -27.5t-27.5 -76.5zM219 652q0 44 19 68t69 24q41 0 66.5 -26t25.5 -72q0 -33 -26 -56t-66 -23t-64 22.5t-24 62.5z" />
    <glyph glyph-name="Gcommaaccent" unicode="&#x122;" horiz-adv-x="688" 
d="M218 348q0 -103 48 -156t127 -53q41 0 90 18l-2 95q-96 -3 -116 -4q-4 5 -4.5 62.5t3.5 65.5q25 6 149.5 10t131.5 -2q5 -11 4 -159t-4 -168q-37 -29 -113.5 -53t-156.5 -24q-168 0 -255.5 104.5t-87.5 270.5q0 155 97.5 255.5t263.5 100.5q79 0 140 -21t90 -47
q0 -14 -30.5 -71t-44.5 -72q-76 43 -152 43q-77 0 -127.5 -55t-50.5 -140zM464 -139q0 -80 -64 -176q-1 -2 -17 1.5t-34 11.5t-24 16q-1 1 4.5 12t15.5 28t14 26q-30 3 -51.5 25t-21.5 54q0 41 26 63.5t73 19.5q34 -2 56.5 -21t22.5 -60z" />
    <glyph glyph-name="gcommaaccent" unicode="&#x123;" horiz-adv-x="606" 
d="M408 490q13 8 75 6t65 -5q3 -16 9 -390q1 -95 -20.5 -161.5t-60 -100.5t-81 -48t-93.5 -14q-80 0 -141 25t-73 47q18 62 50 107q1 1 18.5 -9t52.5 -22.5t72 -12.5q118 0 115 150q-6 -10 -19 -22t-45.5 -24.5t-72.5 -12.5q-89 0 -160 63.5t-71 172.5q0 113 69.5 183.5
t164.5 70.5q89 0 144 -57q0 3 1 27t1 27zM201 239q0 -48 25.5 -76.5t71.5 -28.5q42 0 71 28t29 76q0 47 -25.5 76t-74.5 29q-42 0 -69.5 -27.5t-27.5 -76.5zM220 643q0 77 64 176q1 2 17 -1.5t34.5 -11.5t24.5 -17q0 -1 -5.5 -11.5t-15 -27t-14.5 -26.5q31 -4 52 -25.5
t21 -53.5q0 -42 -25.5 -64t-73.5 -20q-33 2 -56 21.5t-23 60.5z" />
    <glyph glyph-name="Hcircumflex" unicode="&#x124;" horiz-adv-x="754" 
d="M682 -1q-2 -10 -46.5 -12t-88 1t-43.5 7q-1 42 -3 263q-162 -2 -247 -1q0 -183 -3 -261q-25 -7 -102 -8t-78 6q-4 49 -6.5 348.5t2.5 356.5q2 14 89 12.5t90 -8.5q4 -73 6 -283q124 2 249 2q2 231 5 269q24 6 99.5 6.5t78.5 -4.5q6 -2 5.5 -324t-7.5 -370zM203 818
q155 105 174 113l174 -112q-28 -62 -42 -68q-2 -1 -23 9.5t-52.5 27t-56.5 30.5q-126 -71 -129 -69q-6 3 -17.5 20t-19.5 33z" />
    <glyph glyph-name="hcircumflex" unicode="&#x125;" horiz-adv-x="588" 
d="M55 749q7 7 80 9t78 -12q2 -18 -0.5 -152t-4.5 -154q44 60 131 60q100 0 152 -58t52 -157q0 -56 -5 -162.5t-9 -119.5q-3 -6 -78.5 -7t-76.5 1q-1 21 -0.5 67t1 120t0.5 84q0 36 -19.5 63.5t-55.5 27.5q-39 0 -62 -25t-23 -57q0 -276 -4 -280q-2 -3 -77.5 -1.5t-77.5 5.5
q-3 5 -3.5 355.5t2.5 392.5zM117 862q155 105 174 113l174 -112q-28 -62 -42 -68q-2 -1 -23 9.5t-52.5 27t-56.5 30.5q-126 -71 -129 -69q-6 3 -17.5 20t-19.5 33z" />
    <glyph glyph-name="Hbar" unicode="&#x126;" horiz-adv-x="754" 
d="M681 -1q-3 -14 -90 -13t-88 9q-1 42 -3 263q-162 -2 -247 -1q0 -157 -2 -261q-26 -7 -102.5 -8t-77.5 6q-5 47 -8 348.5t3 356.5q2 14 89 12.5t90 -8.5q1 -15 3 -97q130 2 254 2l3 83q24 6 99.5 6.5t78.5 -4.5q6 -2 5.5 -324t-7.5 -370zM500 422q0 65 1 99l-251 -3l2 -98
q122 2 248 2z" />
    <glyph glyph-name="hbar" unicode="&#x127;" horiz-adv-x="588" 
d="M8 566q-6 0 -5 43.5t5 45.5l6 1q5 0 16 0.5t23 0.5q0 79 3 92q7 7 80 9t78 -12v-86q125 2 126 -1q2 -5 -1 -45.5t-5 -40.5q-26 0 -121 -3l-4 -130q42 60 131 60q99 0 151 -57.5t52 -157.5q0 -57 -4.5 -163t-8.5 -119q-3 -6 -78.5 -7t-77.5 1q0 5 0.5 64t1 126.5t0.5 80.5
q0 36 -20 63.5t-56 27.5q-38 0 -61 -25t-23 -57q0 -276 -5 -280q-1 -3 -76.5 -1.5t-78.5 5.5q-5 11 -3 566q-23 -1 -45 -1z" />
    <glyph glyph-name="Itilde" unicode="&#x128;" horiz-adv-x="317" 
d="M69 694q25 8 99 7.5t79 -5.5q5 -32 4.5 -340t-5.5 -356q-5 -12 -91 -11.5t-87 7.5q-4 63 -4 339.5t5 358.5zM-19 864q40 52 102 52q29 0 79.5 -28.5t77.5 -28.5q31 0 68 37q6 -2 19.5 -35t14.5 -51q-1 -2 -3.5 -6t-12 -13.5t-20 -16.5t-29 -13t-38.5 -6q-30 0 -84 26.5
t-80 26.5q-32 0 -67 -32q-7 -6 -24 69q-3 15 -3 19z" />
    <glyph glyph-name="itilde" unicode="&#x129;" horiz-adv-x="266" 
d="M-47 656q40 52 102 52q29 0 79.5 -28.5t77.5 -28.5q31 0 68 37q6 -2 19.5 -35t14.5 -51q-1 -2 -3.5 -6t-12 -13.5t-20 -16.5t-29 -13t-38.5 -6q-30 0 -84 26.5t-80 26.5q-32 0 -67 -32q-7 -6 -24 69q-3 15 -3 19zM53 493q5 7 81.5 5.5t80.5 -5.5q2 -3 -2 -244.5
t-6 -246.5q-3 -5 -75 -4.5t-74 3.5t-5.5 243t0.5 249z" />
    <glyph glyph-name="Imacron" unicode="&#x12a;" horiz-adv-x="317" 
d="M69 694q25 8 99 7.5t79 -5.5q5 -32 4.5 -340t-5.5 -356q-5 -12 -91 -11.5t-87 7.5q-4 63 -4 339.5t5 358.5zM-2 777q-5 0 -4 46t4 48t160.5 5.5t159.5 -1.5q1 -5 -1.5 -48t-4.5 -43q-1 0 -156 -3.5t-158 -3.5z" />
    <glyph glyph-name="imacron" unicode="&#x12b;" horiz-adv-x="266" 
d="M-24 569q-5 0 -4 46t4 48t160.5 5.5t159.5 -1.5q1 -5 -1.5 -48t-4.5 -43q-1 0 -156 -3.5t-158 -3.5zM53 493q5 7 81.5 5.5t80.5 -5.5q2 -3 -2 -244.5t-6 -246.5q-3 -5 -75 -4.5t-74 3.5t-5.5 243t0.5 249z" />
    <glyph glyph-name="Ibreve" unicode="&#x12c;" horiz-adv-x="317" 
d="M69 694q25 8 99 7.5t79 -5.5q5 -32 4.5 -340t-5.5 -356q-5 -12 -91 -11.5t-87 7.5q-4 63 -4 339.5t5 358.5zM165 759q-116 0 -180 91q0 9 19.5 28t40.5 30q54 -52 122 -52q56 0 110 49q11 -3 32.5 -25.5t24.5 -29.5q-21 -34 -68.5 -62.5t-100.5 -28.5z" />
    <glyph glyph-name="ibreve" unicode="&#x12d;" horiz-adv-x="266" 
d="M139 551q-116 0 -180 91q0 9 19.5 28t40.5 30q54 -52 122 -52q56 0 110 49q11 -3 32.5 -25.5t24.5 -29.5q-21 -34 -68.5 -62.5t-100.5 -28.5zM53 493q5 7 81.5 5.5t80.5 -5.5q2 -3 -2 -244.5t-6 -246.5q-3 -5 -75 -4.5t-74 3.5t-5.5 243t0.5 249z" />
    <glyph glyph-name="Iogonek" unicode="&#x12e;" horiz-adv-x="317" 
d="M20 -119q0 68 75 113q-26 0 -26 2q-4 63 -4 339.5t5 358.5q25 8 98.5 7.5t78.5 -5.5q5 -31 5 -340t-6 -356q-6 -3 -28.5 -14t-33.5 -17.5t-27 -16.5t-23 -19.5t-7 -18.5q0 -30 30 -30q10 0 22.5 5t19.5 10l7 5q5 1 27.5 -30.5t17.5 -36.5q-21 -23 -56 -42t-72 -19
q-44 0 -73.5 30t-29.5 75z" />
    <glyph glyph-name="iogonek" unicode="&#x12f;" horiz-adv-x="267" 
d="M-4 -119q0 69 83 119q-21 0 -21 1q-2 3 -5.5 243t0.5 249q5 7 81.5 5.5t80.5 -5.5q3 -3 -0.5 -246t-7.5 -245q-103 -53 -103 -88q0 -30 29 -30q11 0 23.5 5t19.5 10l7 5q5 1 27 -30.5t17 -36.5q-20 -23 -55 -42t-73 -19q-44 0 -73.5 30t-29.5 75zM47 652q0 45 19 69
t69 24q41 0 66.5 -26.5t25.5 -72.5q0 -33 -26 -55.5t-66 -22.5t-64 22t-24 62z" />
    <glyph glyph-name="Idotaccent" unicode="&#x130;" horiz-adv-x="317" 
d="M70 694q25 8 99 7.5t79 -5.5q5 -32 4.5 -340t-5.5 -356q-5 -12 -91 -11.5t-87 7.5q-4 63 -4 339.5t5 358.5zM69 852q0 44 19 68t69 24q41 0 66.5 -26t25.5 -72q0 -33 -26 -56t-66 -23t-64 22.5t-24 62.5z" />
    <glyph glyph-name="dotlessi" unicode="&#x131;" horiz-adv-x="266" 
d="M53 493q5 7 81.5 5.5t80.5 -5.5q2 -3 -2 -244.5t-6 -246.5q-3 -5 -75 -4.5t-74 3.5t-5.5 243t0.5 249z" />
    <glyph glyph-name="IJ" unicode="&#x132;" horiz-adv-x="799" 
d="M70 694q25 8 99 7.5t79 -5.5q5 -32 4.5 -340t-5.5 -356q-5 -12 -91 -11.5t-87 7.5q-4 63 -4 339.5t5 358.5zM320 49q-2 10 24.5 71t38.5 72q1 -1 7 -5t8 -5t8 -5t9 -5.5l9 -4.5t10 -4.5t10.5 -3.5t11.5 -3t11.5 -1.5t13.5 -0.5q35 0 57 22.5t22 74.5q0 71 -3.5 234
t-3.5 209q26 7 100 10.5t78 -1.5q9 -46 9 -466q0 -122 -60 -185.5t-168 -63.5q-131 0 -192 61z" />
    <glyph glyph-name="ij" unicode="&#x133;" horiz-adv-x="535" 
d="M53 493q5 7 81.5 5.5t80.5 -5.5q2 -3 -2 -244.5t-6 -246.5q-3 -5 -75 -4.5t-74 3.5t-5.5 243t0.5 249zM47 652q0 45 19 69t69 24q41 0 66.5 -26.5t25.5 -72.5q0 -33 -26 -55.5t-66 -22.5t-64 22t-24 62zM324 494q37 5 73 3.5t62 -5.5t28 -6q1 -1 -1.5 -80t-5.5 -201
t-3 -204q0 -173 -144 -224q-4 -1 -23 12.5t-39 39t-25 50.5q7 2 18 9.5t24.5 22t22.5 41.5t9 60q-3 481 4 482zM499 660q0 -45 -18.5 -68.5t-69.5 -23.5q-41 0 -66 26t-25 72q0 34 25.5 56.5t65.5 22.5t64 -22t24 -63z" />
    <glyph glyph-name="Jcircumflex" unicode="&#x134;" horiz-adv-x="482" 
d="M3 49q-2 10 24.5 71t38.5 72q1 -1 7 -5t8 -5t8 -5t9 -5.5l9 -4.5t10 -4.5t10.5 -3.5t11.5 -3t11.5 -1.5t13.5 -0.5q35 0 57 22.5t22 74.5q0 71 -3.5 234t-3.5 209q26 7 100 10.5t78 -1.5q9 -46 9 -466q0 -122 -60 -185.5t-168 -63.5q-131 0 -192 61zM146 818
q155 105 174 113l174 -112q-28 -62 -42 -68q-2 -1 -23 9.5t-52.5 27t-56.5 30.5q-126 -71 -129 -69q-6 3 -17.5 20t-19.5 33z" />
    <glyph glyph-name="jcircumflex" unicode="&#x135;" horiz-adv-x="268" 
d="M58 494q37 5 73 3.5t62 -5.5t28 -6q1 -1 -1.5 -80t-5.5 -201t-3 -204q0 -173 -144 -224q-4 -1 -23 12.5t-39 39t-25 50.5q7 2 18 9.5t24.5 22t22.5 41.5t9 60q-3 481 4 482zM-43 610q155 105 174 113l174 -112q-28 -62 -42 -68q-2 -1 -23 9.5t-52.5 27t-56.5 30.5
q-126 -71 -129 -69q-6 3 -17.5 20t-19.5 33z" />
    <glyph glyph-name="Kcommaaccent" unicode="&#x136;" horiz-adv-x="658" 
d="M68 696q12 8 92 8t87 -4q2 -12 1 -78.5t-4 -143.5l-2 -77q244 302 252 302q10 0 79 -22.5t70 -30.5q0 -5 -48.5 -70.5t-96.5 -128.5l-49 -63q34 -47 115.5 -192.5t85.5 -161.5q-1 -7 -72.5 -30.5t-93.5 -18.5q-6 5 -41.5 67t-74.5 133t-46 82l-75 -84l1 -186
q-14 -4 -90 -5.5t-82 2.5q-6 5 -12 347.5t4 354.5zM442 -139q0 -80 -64 -176q-1 -2 -17 1.5t-34 11.5t-24 16q-1 1 4.5 12t15.5 28t14 26q-30 3 -51.5 25t-21.5 54q0 41 26 63.5t73 19.5q34 -2 56.5 -21t22.5 -60z" />
    <glyph glyph-name="kcommaaccent" unicode="&#x137;" horiz-adv-x="550" 
d="M52 749q12 8 81.5 7.5t76.5 -4.5q2 -18 1 -112.5t-4 -203.5l-3 -110q198 186 208 186q8 0 62 -34t55 -43q0 -6 -38 -43t-77 -70l-38 -34l170 -262q-2 -7 -65 -30.5t-86 -20.5q-4 0 -71 115t-71 114q-4 0 -14.5 -9t-18.5 -17l-9 -9l5 -178q-145 -1 -152 5q-7 5 -14 374
t2 379zM370 -139q0 -80 -64 -176q-1 -2 -17 1.5t-34 11.5t-24 16q-1 1 4.5 12t15.5 28t14 26q-30 3 -51.5 25t-21.5 54q0 41 26 63.5t73 19.5q34 -2 56.5 -21t22.5 -60z" />
    <glyph glyph-name="kgreenlandic" unicode="&#x138;" horiz-adv-x="551" 
d="M53 493q12 8 81.5 8t76.5 -4q2 -9 1 -51.5t-4 -91.5l-3 -48q198 206 208 206q9 0 62.5 -33.5t54.5 -43.5q0 -6 -38 -48t-76 -81l-39 -38l170 -242q-2 -7 -65 -30.5t-86 -20.5q-4 0 -71 105t-71 104q-4 0 -14 -9t-18 -17l-9 -9l5 -158q-145 -1 -153 5q-7 5 -14 246t2 251z
" />
    <glyph glyph-name="Lacute" unicode="&#x139;" horiz-adv-x="539" 
d="M518 156q6 -24 7 -84t-3 -72q0 -4 -215 -3.5t-240 4.5q-4 57 -2.5 364t6.5 333q4 5 88.5 7t86.5 -2q2 -25 0 -263t-4 -285q225 8 276 1zM326 846q-1 0 -58 -26t-114 -51t-59 -25q-8 3 -19 22t-18 36l-8 18l224 116q5 0 18.5 -22.5t24.5 -44.5t9 -23z" />
    <glyph glyph-name="lacute" unicode="&#x13a;" horiz-adv-x="262" 
d="M65 748q10 9 78.5 9.5t69.5 -5.5q5 -8 -1.5 -350.5t-10.5 -409.5q-135 -1 -143 4q-7 4 -5 373.5t12 378.5zM297 880q-1 0 -58 -26t-114 -51t-59 -25q-8 3 -19 22t-19 36l-7 18l224 116q5 0 18.5 -22.5t24.5 -44.5t9 -23z" />
    <glyph glyph-name="Lcommaaccent" unicode="&#x13b;" horiz-adv-x="538" 
d="M518 156q6 -24 7 -84t-3 -72q0 -4 -215 -3.5t-240 4.5q-4 57 -2.5 364t6.5 333q4 5 88.5 7t86.5 -2q2 -25 0 -263t-4 -285q225 8 276 1zM393 -139q0 -80 -64 -176q-1 -2 -17 1.5t-34 11.5t-24 16q-1 1 4.5 12t15.5 28t14 26q-30 3 -51.5 25t-21.5 54q0 41 26 63.5
t73 19.5q34 -2 56.5 -21t22.5 -60z" />
    <glyph glyph-name="lcommaaccent" unicode="&#x13c;" horiz-adv-x="262" 
d="M65 748q10 9 78.5 9.5t69.5 -5.5q5 -8 -1.5 -350.5t-10.5 -409.5q-135 -1 -143 4q-7 4 -5 373.5t12 378.5zM217 -139q0 -80 -64 -176q-1 -2 -17 1.5t-34 11.5t-24 16q-1 1 4.5 12t15.5 28t14 26q-30 3 -51.5 25t-21.5 54q0 41 26 63.5t73 19.5q34 -2 56.5 -21t22.5 -60z
" />
    <glyph glyph-name="Lcaron" unicode="&#x13d;" horiz-adv-x="545" 
d="M518 156q6 -24 7 -84t-3 -72q0 -4 -215 -3.5t-240 4.5q-4 57 -2.5 364t6.5 333q4 5 88.5 7t86.5 -2q2 -25 0 -263t-4 -285q225 8 276 1zM516 645q0 -80 -64 -176q-1 -2 -17 1.5t-34 11.5t-24 16q-1 1 4.5 12t15.5 28t14 26q-30 3 -51.5 25t-21.5 54q0 41 26 63.5t73 19.5
q34 -2 56.5 -21t22.5 -60z" />
    <glyph glyph-name="lcaron" unicode="&#x13e;" horiz-adv-x="367" 
d="M65 748q10 9 78.5 9.5t69.5 -5.5q5 -8 -1.5 -350.5t-10.5 -409.5q-135 -1 -143 4q-7 4 -5 373.5t12 378.5zM418 632q0 -80 -64 -176q-1 -2 -17 1.5t-34 11.5t-24 16q-1 1 4.5 12t15.5 28t14 26q-30 3 -51.5 25t-21.5 54q0 41 26 63.5t73 19.5q34 -2 56.5 -21t22.5 -60z
" />
    <glyph glyph-name="Ldot" unicode="&#x13f;" horiz-adv-x="541" 
d="M518 156q6 -24 7 -84t-3 -72q0 -4 -215 -3.5t-240 4.5q-4 57 -2.5 364t6.5 333q4 5 88.5 7t86.5 -2q2 -25 0 -263t-4 -285q225 8 276 1zM500 408q0 -46 -27.5 -71t-78.5 -24q-33 1 -58 27t-25 65q0 47 27.5 72.5t78.5 22.5q35 -2 59 -24t24 -68z" />
    <glyph glyph-name="ldot" unicode="&#x140;" horiz-adv-x="410" 
d="M65 748q10 9 78.5 9.5t69.5 -5.5q5 -8 -1.5 -350.5t-10.5 -409.5q-135 -1 -143 4q-7 4 -5 373.5t12 378.5zM430 390q0 -46 -27.5 -71t-78.5 -24q-33 1 -58 27t-25 65q0 47 27.5 72.5t78.5 22.5q35 -2 59 -24t24 -68z" />
    <glyph glyph-name="Lslash" unicode="&#x141;" horiz-adv-x="550" 
d="M30 264q-7 -3 -23 78q-4 22 -3 23l9 4q9 4 27.5 11.5t35.5 15.5q2 279 6 302q4 5 88.5 7t86.5 -2q2 -27 0 -232q102 39 108 33q4 -4 17 -48t11 -45l-19 -7q-18 -8 -52.5 -22t-64.5 -26q-1 -136 -4 -201q226 8 277 1q5 -24 6.5 -83.5t-2.5 -72.5q-1 -4 -216 -3.5t-239 4.5
q-2 23 -4 280q-44 -17 -45 -17z" />
    <glyph glyph-name="lslash" unicode="&#x142;" horiz-adv-x="330" 
d="M339 419l-104 -49q-7 -311 -11 -378q-134 -1 -142 4q-6 5 -6 303q-42 -20 -45 -20q-8 3 -19 22t-18 37l-8 18q40 20 90 46q2 337 13 346q10 9 78 9.5t70 -5.5q5 -8 -1 -268q52 25 54 25q5 0 17.5 -22.5t23 -44.5t8.5 -23z" />
    <glyph glyph-name="Nacute" unicode="&#x143;" horiz-adv-x="739" 
d="M664 7q-3 -12 -79.5 -16t-85.5 3q-8 10 -51 78t-106.5 169t-102.5 162q0 -57 2.5 -207t0.5 -192q-26 -7 -99.5 -7t-74.5 7q-4 48 -5 340t5 348q3 12 82.5 15t82.5 -4q187 -289 265 -432q1 66 0 169t-1.5 154t1.5 96q26 6 97 6t76 -5q5 -1 2.5 -318.5t-9.5 -365.5z
M551 846q-1 0 -58 -26t-114 -51t-59 -25q-8 3 -19 22t-19 36l-7 18l224 116q5 0 18.5 -22.5t24.5 -44.5t9 -23z" />
    <glyph glyph-name="nacute" unicode="&#x144;" horiz-adv-x="582" 
d="M52 481q6 9 79 13t79 -3q-3 -59 -3 -60q47 70 152 70q81 0 129 -59.5t48 -156.5q0 -187 -8 -285q-1 -7 -76.5 -7.5t-77.5 1.5q-2 19 -1.5 64t1.5 123.5t1 86.5q0 42 -19 67t-57 25q-39 0 -63.5 -25.5t-24.5 -56.5q0 -273 -4 -278q-2 -3 -76 -1.5t-76 5.5q-1 2 -2.5 78.5
t-1.5 181.5t1 217zM450 638q-1 0 -58 -26t-114 -51t-59 -25q-8 3 -19 22t-18 36l-8 18l224 116q5 0 18.5 -22.5t24.5 -44.5t9 -23z" />
    <glyph glyph-name="Ncommaaccent" unicode="&#x145;" horiz-adv-x="739" 
d="M664 7q-3 -12 -79.5 -16t-85.5 3q-8 10 -51 78t-106.5 169t-102.5 162q0 -57 2.5 -207t0.5 -192q-26 -7 -99.5 -7t-74.5 7q-4 48 -5 340t5 348q3 12 82.5 15t82.5 -4q187 -289 265 -432q1 66 0 169t-1.5 154t1.5 96q26 6 97 6t76 -5q5 -1 2.5 -318.5t-9.5 -365.5z
M463 -139q0 -80 -64 -176q-1 -2 -17 1.5t-34 11.5t-24 16q-1 1 4.5 12t15.5 28t14 26q-30 3 -51.5 25t-21.5 54q0 41 26 63.5t73 19.5q34 -2 56.5 -21t22.5 -60z" />
    <glyph glyph-name="ncommaaccent" unicode="&#x146;" horiz-adv-x="582" 
d="M52 481q6 9 79 13t79 -3q-3 -59 -3 -60q47 70 152 70q81 0 129 -59.5t48 -156.5q0 -187 -8 -285q-1 -7 -76.5 -7.5t-77.5 1.5q-2 19 -1.5 64t1.5 123.5t1 86.5q0 42 -19 67t-57 25q-39 0 -63.5 -25.5t-24.5 -56.5q0 -273 -4 -278q-2 -3 -76 -1.5t-76 5.5q-1 2 -2.5 78.5
t-1.5 181.5t1 217zM376 -139q0 -80 -64 -176q-1 -2 -17 1.5t-34 11.5t-24 16q-1 1 4.5 12t15.5 28t14 26q-30 3 -51.5 25t-21.5 54q0 41 26 63.5t73 19.5q34 -2 56.5 -21t22.5 -60z" />
    <glyph glyph-name="Ncaron" unicode="&#x147;" horiz-adv-x="739" 
d="M664 7q-3 -12 -79.5 -16t-85.5 3q-8 10 -51 78t-106.5 169t-102.5 162q0 -57 2.5 -207t0.5 -192q-26 -7 -99.5 -7t-74.5 7q-4 48 -5 340t5 348q3 12 82.5 15t82.5 -4q187 -289 265 -432q1 66 0 169t-1.5 154t1.5 96q26 6 97 6t76 -5q5 -1 2.5 -318.5t-9.5 -365.5z
M202 858q31 64 45 70q2 1 130 -71q25 14 57 31t53.5 27.5t23.5 9.5q6 -3 16.5 -19.5t17.5 -31.5l7 -16q-167 -110 -175 -113q-8 4 -52 32t-83 55z" />
    <glyph glyph-name="ncaron" unicode="&#x148;" horiz-adv-x="582" 
d="M52 481q6 9 79 13t79 -3q-3 -59 -3 -60q47 70 152 70q81 0 129 -59.5t48 -156.5q0 -187 -8 -285q-1 -7 -76.5 -7.5t-77.5 1.5q-2 19 -1.5 64t1.5 123.5t1 86.5q0 42 -19 67t-57 25q-39 0 -63.5 -25.5t-24.5 -56.5q0 -273 -4 -278q-2 -3 -76 -1.5t-76 5.5q-1 2 -2.5 78.5
t-1.5 181.5t1 217zM120 650q31 64 45 70q2 1 130 -71q25 14 57 31t53.5 27.5t23.5 9.5q6 -3 16.5 -19.5t17.5 -31.5l7 -16q-167 -110 -175 -113q-8 4 -52 32t-83 55z" />
    <glyph glyph-name="napostrophe" unicode="&#x149;" horiz-adv-x="613" 
d="M84 481q6 9 79 13t79 -3q-3 -59 -3 -60q47 70 152 70q81 0 129 -59.5t48 -156.5q0 -187 -8 -285q-1 -7 -76.5 -7.5t-77.5 1.5q-2 19 -1.5 64t1.5 123.5t1 86.5q0 42 -19 67t-57 25q-39 0 -63.5 -25.5t-24.5 -56.5q0 -273 -4 -278q-2 -3 -76 -1.5t-76 5.5q-1 2 -2.5 78.5
t-1.5 181.5t1 217zM167 684q0 -69 -57 -157q-1 -2 -15 1.5t-30.5 10.5t-21.5 14q-1 1 30 59q-27 3 -46 22t-19 48q0 37 23 57t65 17q30 -1 50.5 -18t20.5 -54z" />
    <glyph glyph-name="Eng" unicode="&#x14a;" horiz-adv-x="737" 
d="M665 4q-3 -195 -148 -227q-4 -1 -22.5 12.5t-39 39t-24.5 50.5q8 2 18 7.5t23.5 17.5t23 37.5t9.5 58.5q-29 37 -266 403q0 -57 2.5 -207t0.5 -192q-26 -7 -99.5 -7t-74.5 7q-4 48 -5 340t5 348q3 12 82.5 15t82.5 -4q217 -335 272 -429q1 84 -4 238t-3 178q26 6 97 6
t76 -5q4 -4 0.5 -301t-6.5 -386z" />
    <glyph glyph-name="eng" unicode="&#x14b;" horiz-adv-x="583" 
d="M373 12q0 4 1 119.5t1 136.5q0 42 -19 67t-57 25q-39 0 -63.5 -25.5t-24.5 -56.5q0 -273 -4 -278q-2 -3 -76 -1.5t-76 5.5q-1 2 -2.5 78.5t-1.5 181.5t1 217q6 9 79 13t79 -3q-3 -59 -3 -60q47 70 152 70q81 0 129 -59.5t48 -156.5q0 -37 -3 -151.5t-3 -132.5
q0 -184 -145 -224q-4 -1 -22.5 12.5t-39 39t-24.5 50.5q7 2 18 9.5t24.5 22t22.5 41.5t9 60z" />
    <glyph glyph-name="Omacron" unicode="&#x14c;" horiz-adv-x="753" 
d="M374 713q159 0 253 -100t94 -274q0 -69 -20.5 -131t-61 -114t-108.5 -82.5t-154 -30.5q-159 0 -252.5 102.5t-93.5 271.5q0 94 37 173.5t116.5 132t189.5 52.5zM530 352q0 97 -42 147.5t-111 50.5q-76 0 -118.5 -55.5t-42.5 -149.5q0 -86 43 -143t114 -57q78 0 117.5 55
t39.5 152zM220 777q-5 0 -4 46t4 48t160.5 5.5t159.5 -1.5q1 -5 -1.5 -48t-4.5 -43q-1 0 -156 -3.5t-158 -3.5z" />
    <glyph glyph-name="omacron" unicode="&#x14d;" horiz-adv-x="559" 
d="M379 238q0 55 -26.5 80t-66.5 27q-52 1 -79 -28t-27 -80q0 -50 27 -79t65 -30q52 -1 79.5 28t27.5 82zM278 497q110 0 182.5 -70.5t72.5 -190.5q0 -101 -68.5 -173.5t-184.5 -74.5q-110 0 -182 71t-72 190q0 99 70 173.5t182 74.5zM126 569q-5 0 -4 46t4 48t160.5 5.5
t159.5 -1.5q1 -5 -1.5 -48t-4.5 -43q-1 0 -156 -3.5t-158 -3.5z" />
    <glyph glyph-name="Obreve" unicode="&#x14e;" horiz-adv-x="753" 
d="M374 713q159 0 253 -100t94 -274q0 -69 -20.5 -131t-61 -114t-108.5 -82.5t-154 -30.5q-159 0 -252.5 102.5t-93.5 271.5q0 94 37 173.5t116.5 132t189.5 52.5zM530 352q0 97 -42 147.5t-111 50.5q-76 0 -118.5 -55.5t-42.5 -149.5q0 -86 43 -143t114 -57q78 0 117.5 55
t39.5 152zM383 759q-116 0 -180 91q0 9 19.5 28t40.5 30q54 -52 122 -52q56 0 110 49q11 -3 32.5 -25.5t24.5 -29.5q-21 -34 -68.5 -62.5t-100.5 -28.5z" />
    <glyph glyph-name="obreve" unicode="&#x14f;" horiz-adv-x="559" 
d="M379 238q0 55 -26.5 80t-66.5 27q-52 1 -79 -28t-27 -80q0 -50 27 -79t65 -30q52 -1 79.5 28t27.5 82zM278 497q110 0 182.5 -70.5t72.5 -190.5q0 -101 -68.5 -173.5t-184.5 -74.5q-110 0 -182 71t-72 190q0 99 70 173.5t182 74.5zM290 551q-116 0 -180 91q0 9 19.5 28
t40.5 30q54 -52 122 -52q56 0 110 49q11 -3 32.5 -25.5t24.5 -29.5q-21 -34 -68.5 -62.5t-100.5 -28.5z" />
    <glyph glyph-name="Ohungarumlaut" unicode="&#x150;" horiz-adv-x="753" 
d="M374 713q159 0 253 -100t94 -274q0 -69 -20.5 -131t-61 -114t-108.5 -82.5t-154 -30.5q-159 0 -252.5 102.5t-93.5 271.5q0 94 37 173.5t116.5 132t189.5 52.5zM530 352q0 97 -42 147.5t-111 50.5q-76 0 -118.5 -55.5t-42.5 -149.5q0 -86 43 -143t114 -57q78 0 117.5 55
t39.5 152zM417 768q-1 2 34.5 82.5t37.5 81.5q-2 1 27 -3t58 -8.5t28 -4.5l-103 -161q-80 10 -82 13zM330 757q-3 0 -32.5 6t-32.5 9q-2 2 5 40.5t14 75.5l8 38q10 3 39 0t53 -7t24 -5t-38.5 -79t-39.5 -78z" />
    <glyph glyph-name="ohungarumlaut" unicode="&#x151;" horiz-adv-x="559" 
d="M379 238q0 55 -26.5 80t-66.5 27q-52 1 -79 -28t-27 -80q0 -50 27 -79t65 -30q52 -1 79.5 28t27.5 82zM278 497q110 0 182.5 -70.5t72.5 -190.5q0 -101 -68.5 -173.5t-184.5 -74.5q-110 0 -182 71t-72 190q0 99 70 173.5t182 74.5zM321 566q-1 3 36 93.5t40 92.5
q-2 1 28.5 -3.5t61 -9.5t29.5 -6l-109 -181q-84 11 -86 14zM229 555q-3 0 -34.5 6.5t-34.5 9.5q-2 2 5 45t15 86l8 42q16 3 43 0t53.5 -7.5t26.5 -5.5t-40.5 -88.5t-41.5 -87.5z" />
    <glyph glyph-name="OE" unicode="&#x152;" horiz-adv-x="1095" 
d="M1048 147q5 -26 4.5 -81t-4.5 -69q4 -2 -96.5 -3.5t-218.5 -0.5t-155 5q-1 11 -1 55q-77 -72 -200 -72q-159 0 -252.5 102.5t-93.5 271.5q0 94 37 173.5t116.5 132t189.5 52.5q130 0 209 -76l2 61q68 4 267.5 5.5t206.5 -2.5q6 -13 6 -70.5t-4 -81.5q-22 -2 -135 -2.5
t-174 1.5l2 -122q221 3 233 -6q3 -3 4 -18t1 -35.5t-0.5 -40t-1.5 -34.5l-1 -16q0 -4 -82 -4t-154 2v-128q236 5 295 1zM530 352q0 97 -42 147.5t-111 50.5q-76 0 -118.5 -55.5t-42.5 -149.5q0 -86 43 -143t114 -57q78 0 117.5 55t39.5 152z" />
    <glyph glyph-name="oe" unicode="&#x153;" horiz-adv-x="897" 
d="M575 204q0 -40 28 -63t80 -23q59 0 116 35q8 -8 29.5 -52.5t22.5 -55.5q-23 -22 -72 -39.5t-104 -17.5q-136 0 -203 87q-68 -84 -192 -87q-110 0 -182 71t-72 190q0 99 70 173.5t182 74.5q127 0 197 -90q67 91 187 91q96 0 154.5 -62t58.5 -150q0 -47 -9 -77
q-34 -5 -142 -6t-149 1zM379 238q0 55 -26.5 80t-66.5 27q-52 1 -79 -28t-27 -80q0 -50 27 -79t65 -30q52 -1 79.5 28t27.5 82zM575 296l157 3q2 38 -17.5 62.5t-54.5 24.5q-38 0 -61.5 -25.5t-23.5 -64.5z" />
    <glyph glyph-name="Racute" unicode="&#x154;" horiz-adv-x="658" 
d="M237 0q-8 -3 -88.5 -5t-82.5 2q-4 32 -1 339t9 356q94 11 237 11q302 0 302 -243q0 -145 -127 -197q35 -42 72.5 -95t59 -87t19.5 -36q-9 -12 -71.5 -37.5t-84.5 -24.5q-1 0 -26 38t-68 101.5t-79 110.5q-4 -1 -13 -1q-29 0 -53 2q-3 -221 -5 -234zM252 373q29 -3 72 -3
q51 0 80.5 21.5t29.5 64.5q0 92 -116 92q-36 0 -66 -3v-172zM475 846q-1 0 -58 -26t-114 -51t-59 -25q-8 3 -19 22t-19 36l-7 18l224 116q5 0 18.5 -22.5t24.5 -44.5t9 -23z" />
    <glyph glyph-name="racute" unicode="&#x155;" horiz-adv-x="401" 
d="M386 491q12 -7 2 -79t-23 -88q-45 11 -70 10q-33 -1 -52 -21.5t-24 -55.5q-1 -9 0.5 -76t2.5 -118.5t-1 -63.5q-2 -3 -83.5 -3.5t-83.5 3.5q-2 2 -2 234.5t3 246.5q6 11 78 15.5t78 -3.5v-69q49 87 175 68zM349 638q-1 0 -58 -26t-114 -51t-59 -25q-8 3 -19 22t-19 36
l-7 18l224 116q5 0 18.5 -22.5t24.5 -44.5t9 -23z" />
    <glyph glyph-name="Rcommaaccent" unicode="&#x156;" horiz-adv-x="658" 
d="M237 0q-8 -3 -88.5 -5t-82.5 2q-4 32 -1 339t9 356q94 11 237 11q302 0 302 -243q0 -145 -127 -197q35 -42 72.5 -95t59 -87t19.5 -36q-9 -12 -71.5 -37.5t-84.5 -24.5q-1 0 -26 38t-68 101.5t-79 110.5q-4 -1 -13 -1q-29 0 -53 2q-3 -221 -5 -234zM252 373q29 -3 72 -3
q51 0 80.5 21.5t29.5 64.5q0 92 -116 92q-36 0 -66 -3v-172zM414 -139q0 -80 -64 -176q-1 -2 -17 1.5t-34 11.5t-24 16q-1 1 4.5 12t15.5 28t14 26q-30 3 -51.5 25t-21.5 54q0 41 26 63.5t73 19.5q34 -2 56.5 -21t22.5 -60z" />
    <glyph glyph-name="rcommaaccent" unicode="&#x157;" horiz-adv-x="401" 
d="M386 491q12 -7 2 -79t-23 -88q-45 11 -70 10q-33 -1 -52 -21.5t-24 -55.5q-1 -9 0.5 -76t2.5 -118.5t-1 -63.5q-2 -3 -83.5 -3.5t-83.5 3.5q-2 2 -2 234.5t3 246.5q6 11 78 15.5t78 -3.5v-69q49 87 175 68zM224 -139q0 -80 -64 -176q-1 -2 -17 1.5t-34 11.5t-24 16
q-1 1 4.5 12t15.5 28t14 26q-30 3 -51.5 25t-21.5 54q0 41 26 63.5t73 19.5q34 -2 56.5 -21t22.5 -60z" />
    <glyph glyph-name="Rcaron" unicode="&#x158;" horiz-adv-x="658" 
d="M237 0q-8 -3 -88.5 -5t-82.5 2q-4 32 -1 339t9 356q94 11 237 11q302 0 302 -243q0 -145 -127 -197q35 -42 72.5 -95t59 -87t19.5 -36q-9 -12 -71.5 -37.5t-84.5 -24.5q-1 0 -26 38t-68 101.5t-79 110.5q-4 -1 -13 -1q-29 0 -53 2q-3 -221 -5 -234zM252 373q29 -3 72 -3
q51 0 80.5 21.5t29.5 64.5q0 92 -116 92q-36 0 -66 -3v-172zM144 858q31 64 45 70q2 1 130 -71q25 14 57 31t53.5 27.5t23.5 9.5q6 -3 16.5 -19.5t17.5 -31.5l7 -16q-167 -110 -175 -113q-8 4 -52 32t-83 55z" />
    <glyph glyph-name="rcaron" unicode="&#x159;" horiz-adv-x="401" 
d="M386 491q12 -7 2 -79t-23 -88q-45 11 -70 10q-33 -1 -52 -21.5t-24 -55.5q-1 -9 0.5 -76t2.5 -118.5t-1 -63.5q-2 -3 -83.5 -3.5t-83.5 3.5q-2 2 -2 234.5t3 246.5q6 11 78 15.5t78 -3.5v-69q49 87 175 68zM45 650q31 64 45 70q2 1 130 -71q25 14 57 31t53.5 27.5
t23.5 9.5q6 -3 16.5 -19.5t17.5 -31.5l7 -16q-167 -110 -175 -113q-8 4 -52 32t-84 55z" />
    <glyph glyph-name="Sacute" unicode="&#x15a;" horiz-adv-x="581" 
d="M277 -5q-76 0 -144 23t-102 48q-1 4 1 14.5t6.5 23.5t9.5 28t11 29t11.5 25t10 17.5t6.5 5.5q1 -1 12.5 -8t19.5 -11.5t22.5 -12.5t28.5 -13.5t30.5 -11t34.5 -8.5t35 -3q97 0 97 61q0 26 -27 44t-100 33q-102 21 -153 72.5t-51 146.5q0 90 70 151.5t192 61.5
q76 0 139.5 -17t94.5 -42q9 -7 -20 -73.5t-37 -65.5q-94 44 -173 44q-43 0 -65.5 -15.5t-22.5 -41.5q0 -24 22 -38.5t92 -30.5q110 -25 169.5 -74.5t59.5 -144.5q0 -88 -71.5 -152.5t-208.5 -64.5zM460 846q-1 0 -58 -26t-114 -51t-59 -25q-8 3 -19 22t-18 36l-8 18l224 116
q5 0 18.5 -22.5t24.5 -44.5t9 -23z" />
    <glyph glyph-name="sacute" unicode="&#x15b;" horiz-adv-x="455" 
d="M233 -17q-67 0 -129 20t-76 35q-4 5 6 34.5t23 56t17 24.5q1 -1 19.5 -11.5t34 -18.5t41 -15.5t47.5 -7.5q60 0 60 36q0 17 -17 27t-64 19q-84 14 -124 50.5t-40 99.5q0 80 52 124.5t144 44.5q62 0 117.5 -15.5t68.5 -28.5q6 -6 -16 -60t-28 -55q-1 0 -21 10t-50 19.5
t-56 9.5q-28 0 -42 -11.5t-14 -27.5q0 -17 16 -25.5t59 -14.5q91 -13 131.5 -47.5t40.5 -103.5q0 -72 -50.5 -120t-149.5 -48zM395 638q-1 0 -58 -26t-114 -51t-59 -25q-8 3 -19 22t-19 36l-7 18l224 116q5 0 18.5 -22.5t24.5 -44.5t9 -23z" />
    <glyph glyph-name="Scircumflex" unicode="&#x15c;" horiz-adv-x="581" 
d="M277 -5q-76 0 -144 23t-102 48q-1 4 1 14.5t6.5 23.5t9.5 28t11 29t11.5 25t10 17.5t6.5 5.5q1 -1 12.5 -8t19.5 -11.5t22.5 -12.5t28.5 -13.5t30.5 -11t34.5 -8.5t35 -3q97 0 97 61q0 26 -27 44t-100 33q-102 21 -153 72.5t-51 146.5q0 90 70 151.5t192 61.5
q76 0 139.5 -17t94.5 -42q9 -7 -20 -73.5t-37 -65.5q-94 44 -173 44q-43 0 -65.5 -15.5t-22.5 -41.5q0 -24 22 -38.5t92 -30.5q110 -25 169.5 -74.5t59.5 -144.5q0 -88 -71.5 -152.5t-208.5 -64.5zM127 818q155 105 174 113l174 -112q-28 -62 -42 -68q-2 -1 -23 9.5
t-52.5 27t-56.5 30.5q-126 -71 -129 -69q-6 3 -17.5 20t-19.5 33z" />
    <glyph glyph-name="scircumflex" unicode="&#x15d;" horiz-adv-x="455" 
d="M233 -17q-67 0 -129 20t-76 35q-4 5 6 34.5t23 56t17 24.5q1 -1 19.5 -11.5t34 -18.5t41 -15.5t47.5 -7.5q60 0 60 36q0 17 -17 27t-64 19q-84 14 -124 50.5t-40 99.5q0 80 52 124.5t144 44.5q62 0 117.5 -15.5t68.5 -28.5q6 -6 -16 -60t-28 -55q-1 0 -21 10t-50 19.5
t-56 9.5q-28 0 -42 -11.5t-14 -27.5q0 -17 16 -25.5t59 -14.5q91 -13 131.5 -47.5t40.5 -103.5q0 -72 -50.5 -120t-149.5 -48zM60 610q155 105 174 113l174 -112q-28 -62 -42 -68q-2 -1 -23 9.5t-52.5 27t-56.5 30.5q-126 -71 -129 -69q-6 3 -17.5 20t-19.5 33z" />
    <glyph glyph-name="Scedilla" unicode="&#x15e;" horiz-adv-x="581" 
d="M557 212q0 -74 -53 -134t-154 -77q-46 -164 -48 -165t-16 1.5t-32 6.5l-36 8t-30 7.5t-12 4.5l55 133q-63 5 -117.5 26t-82.5 43q-1 4 1 14.5t6.5 23.5t9.5 28t11 29t11.5 25t10 17.5t6.5 5.5q1 -1 12.5 -8t19.5 -11.5t22.5 -12.5t28.5 -13.5t30.5 -11t34.5 -8.5t35 -3
q97 0 97 61q0 26 -27 44t-100 33q-102 21 -153 72.5t-51 146.5q0 90 70 151.5t192 61.5q76 0 139.5 -17t94.5 -42q9 -7 -20 -73.5t-37 -65.5q-94 44 -173 44q-43 0 -65.5 -15.5t-22.5 -41.5q0 -24 22 -38.5t92 -30.5q110 -25 169.5 -74.5t59.5 -144.5z" />
    <glyph glyph-name="scedilla" unicode="&#x15f;" horiz-adv-x="455" 
d="M433 151q0 -60 -36.5 -104.5t-107.5 -57.5q-41 -156 -47 -160q-2 -1 -16 1.5t-32 6t-35.5 7.5t-29.5 7.5t-12 4.5q0 2 54 132q-50 7 -91.5 23t-51.5 27q-4 5 6 34.5t23 56t17 24.5q1 -1 19.5 -11.5t34 -18.5t41 -15.5t47.5 -7.5q60 0 60 36q0 17 -17 27t-64 19
q-84 14 -124 50.5t-40 99.5q0 80 52 124.5t144 44.5q62 0 117.5 -15.5t68.5 -28.5q6 -6 -16 -60t-28 -55q-1 0 -21 10t-50 19.5t-56 9.5q-28 0 -42 -11.5t-14 -27.5q0 -17 16 -25.5t59 -14.5q91 -13 131.5 -47.5t40.5 -103.5z" />
    <glyph glyph-name="Scaron" unicode="&#x160;" horiz-adv-x="581" 
d="M277 -5q-76 0 -144 23t-102 48q-1 4 1 14.5t6.5 23.5t9.5 28t11 29t11.5 25t10 17.5t6.5 5.5q1 -1 12.5 -8t19.5 -11.5t22.5 -12.5t28.5 -13.5t30.5 -11t34.5 -8.5t35 -3q97 0 97 61q0 26 -27 44t-100 33q-102 21 -153 72.5t-51 146.5q0 90 70 151.5t192 61.5
q76 0 139.5 -17t94.5 -42q9 -7 -20 -73.5t-37 -65.5q-94 44 -173 44q-43 0 -65.5 -15.5t-22.5 -41.5q0 -24 22 -38.5t92 -30.5q110 -25 169.5 -74.5t59.5 -144.5q0 -88 -71.5 -152.5t-208.5 -64.5zM126 858q31 64 45 70q2 1 130 -71q25 14 57 31t53.5 27.5t23.5 9.5
q6 -3 16.5 -19.5t17.5 -31.5l7 -16q-167 -110 -175 -113q-8 4 -52 32t-83 55z" />
    <glyph glyph-name="scaron" unicode="&#x161;" horiz-adv-x="456" 
d="M233 -17q-67 0 -129 20t-76 35q-4 5 6 34.5t23 56t17 24.5q1 -1 19.5 -11.5t34 -18.5t41 -15.5t47.5 -7.5q60 0 60 36q0 17 -17 27t-64 19q-84 14 -124 50.5t-40 99.5q0 80 52 124.5t144 44.5q62 0 117.5 -15.5t68.5 -28.5q6 -6 -16 -60t-28 -55q-1 0 -21 10t-50 19.5
t-56 9.5q-28 0 -42 -11.5t-14 -27.5q0 -17 16 -25.5t59 -14.5q91 -13 131.5 -47.5t40.5 -103.5q0 -72 -50.5 -120t-149.5 -48zM58 650q31 64 45 70q2 1 130 -71q25 14 57 31t53.5 27.5t23.5 9.5q6 -3 16.5 -19.5t17.5 -31.5l7 -16q-167 -110 -175 -113q-8 4 -52 32t-83 55z
" />
    <glyph glyph-name="Tcommaaccent" unicode="&#x162;" horiz-adv-x="570" 
d="M21 545q-6 21 -7 82.5t3 64.5q10 6 251 11t278 0q9 -4 10.5 -78t-5.5 -75q-39 -4 -177 -7q5 -480 -1 -539l-25 -4l-52 -174q-2 -1 -16 1.5t-32 6.5t-35.5 8t-29.5 7.5t-12 4.5q0 5 59 142q-33 2 -33 4q-2 41 -3 225t1 319q-145 -2 -174 1z" />
    <glyph glyph-name="tcommaaccent" unicode="&#x163;" horiz-adv-x="406" 
d="M248 360q0 -2 -1 -33.5t-2 -75t-1 -68.5q0 -52 49 -54q20 0 44 11.5t29 10.5q8 -2 21 -49t14 -66q-4 -4 -11.5 -11t-35.5 -19.5t-63 -16.5q-45 -159 -47 -160t-16 1.5t-32 6t-35.5 7.5t-29.5 7.5t-12 4.5q0 10 59 143q-94 32 -94 148q0 13 1 40.5t2 57.5t2 57.5t1 45.5
l1 19l-16 1q-16 0 -33.5 1t-19.5 3q-4 4 -4 62.5t4 59.5q1 0 37.5 -0.5t36.5 1.5q1 1 1 56.5t5 60.5q6 6 77 11.5t75 1.5q2 -7 1 -37t-2.5 -63.5t-0.5 -33.5q0 2 58 1.5t64 -8.5q4 -6 4.5 -35t-0.5 -55l-2 -25q-3 -5 -35 -5.5t-62.5 -0.5t-30.5 -3z" />
    <glyph glyph-name="Tcaron" unicode="&#x164;" horiz-adv-x="570" 
d="M22 545q-6 21 -7 82.5t3 64.5q10 5 252 10.5t276 0.5q10 -3 11 -77.5t-5 -75.5q-16 -2 -177 -8q3 -502 -1 -538q-5 -6 -89.5 -8t-85.5 4q-8 108 -3 544q-146 -2 -174 1zM111 858q31 64 45 70q2 1 130 -71q25 14 57 31t53.5 27.5t23.5 9.5q6 -3 16.5 -19.5t17.5 -31.5
l7 -16q-167 -110 -175 -113q-8 4 -52 32t-84 55z" />
    <glyph glyph-name="tcaron" unicode="&#x165;" horiz-adv-x="487" 
d="M248 360q0 -2 -1 -33.5t-2 -75t-1 -68.5q0 -52 49 -54q20 0 44 11.5t29 10.5q8 -2 21 -49t14 -66q-5 -6 -14.5 -14t-47.5 -21.5t-84 -13.5q-84 0 -127.5 42.5t-43.5 117.5q0 13 1 40.5t2 57.5t2 57.5t1 45.5l1 19l-16 1q-16 0 -33.5 1t-19.5 3q-4 4 -4 62.5t4 59.5
q1 0 37.5 -0.5t36.5 1.5q1 1 1 56.5t5 60.5q6 6 77 11.5t75 1.5q2 -7 1 -37t-2.5 -63.5t-0.5 -33.5q0 2 58 1.5t64 -8.5q4 -6 4.5 -35t-0.5 -55l-2 -25q-3 -5 -35 -5.5t-62.5 -0.5t-30.5 -3zM532 632q0 -80 -64 -176q-1 -2 -17 1.5t-34 11.5t-24 16q-1 1 4.5 12t15.5 28
t14 26q-30 3 -51.5 25t-21.5 54q0 41 26 63.5t73 19.5q34 -2 56.5 -21t22.5 -60z" />
    <glyph glyph-name="Tbar" unicode="&#x166;" horiz-adv-x="580" 
d="M94 265q-5 0 -4 46.5t4 48.5h14q13 1 39 1.5t52 0.5q0 132 1 182q-145 -2 -173 1q-7 21 -8 82.5t3 64.5q10 6 251.5 11t277.5 0q9 -3 10.5 -78t-4.5 -75q-15 -2 -177 -8q0 -28 0.5 -87t0.5 -89q110 2 112 -2q2 -5 -0.5 -48.5t-4.5 -43.5h-14q-14 -1 -40.5 -1.5
t-52.5 -0.5q2 -228 -2 -266q-5 -6 -89.5 -8t-85.5 4q-3 32 -5 266q-57 -1 -105 -1z" />
    <glyph glyph-name="tbar" unicode="&#x167;" horiz-adv-x="406" 
d="M34 219q-5 0 -4 38t4 39h7q7 1 20 1.5t26 0.5q0 11 0.5 21.5t1 19t1 15t0.5 10.5v3l-16 1q-16 0 -33.5 1t-19.5 3q-4 4 -4 62.5t4 59.5q1 0 37.5 -0.5t36.5 1.5q1 1 1 56.5t5 60.5q6 6 77 11.5t75 1.5q2 -7 1.5 -37t-2.5 -64l-1 -33q0 2 58 1.5t64 -8.5q4 -6 4.5 -35
t-1.5 -55l-1 -25q-3 -5 -35 -5.5t-62.5 -0.5t-30.5 -3q0 -1 -0.5 -8.5t-1 -22.5t-0.5 -28q100 2 102 -2q1 -4 -1 -39.5t-4 -35.5q-1 0 -97 -2q-1 -15 -1 -39q-2 -52 48 -54q20 0 44.5 11.5t28.5 10.5q9 -2 22 -49t13 -66q-5 -6 -14.5 -14t-47 -21.5t-84.5 -13.5
q-84 0 -127.5 42.5t-42.5 117.5q0 46 1 72h-51z" />
    <glyph glyph-name="Utilde" unicode="&#x168;" horiz-adv-x="715" 
d="M71 690q3 11 88.5 10.5t88.5 -7.5q2 -8 0 -81t-5.5 -168.5t-3.5 -136.5q0 -80 28 -115t87 -35q116 0 116 146q0 73 -3.5 228t-3.5 170q10 7 98 10t90 -4q8 -36 8 -415q0 -311 -302 -311q-301 0 -301 305q0 89 4.5 228t10.5 176zM172 864q40 52 102 52q29 0 79.5 -28.5
t77.5 -28.5q31 0 68 37q6 -2 19.5 -35t14.5 -51q-1 -2 -3.5 -6t-12 -13.5t-20 -16.5t-29 -13t-38.5 -6q-30 0 -84 26.5t-80 26.5q-32 0 -67 -32q-7 -6 -24 69q-3 15 -3 19z" />
    <glyph glyph-name="utilde" unicode="&#x169;" horiz-adv-x="576" 
d="M519 2q-7 -9 -74 -8t-75 8v32t1 25q-20 -29 -58.5 -51.5t-89.5 -22.5q-179 0 -179 214q0 86 13 290q1 7 77 7.5t78 -2.5q1 -5 -1 -65.5t-4.5 -129t-2.5 -83.5q0 -90 76 -90q39 0 61.5 25.5t23.5 60.5q0 40 2.5 158t5.5 121q2 3 75.5 1.5t76.5 -5.5q3 -12 -6 -485z
M111 656q40 52 102 52q29 0 79.5 -28.5t77.5 -28.5q31 0 68 37q6 -2 19.5 -35t14.5 -51q-1 -2 -3.5 -6t-12 -13.5t-20 -16.5t-29 -13t-38.5 -6q-30 0 -84 26.5t-80 26.5q-32 0 -67 -32q-7 -6 -24 69q-3 15 -3 19z" />
    <glyph glyph-name="Umacron" unicode="&#x16a;" horiz-adv-x="715" 
d="M71 690q3 11 88.5 10.5t88.5 -7.5q2 -8 0 -81t-5.5 -168.5t-3.5 -136.5q0 -80 28 -115t87 -35q116 0 116 146q0 73 -3.5 228t-3.5 170q10 7 98 10t90 -4q8 -36 8 -415q0 -311 -302 -311q-301 0 -301 305q0 89 4.5 228t10.5 176zM196 777q-5 0 -4 46t4 48t160.5 5.5
t159.5 -1.5q1 -5 -1.5 -48t-4.5 -43q-1 0 -156 -3.5t-158 -3.5z" />
    <glyph glyph-name="umacron" unicode="&#x16b;" horiz-adv-x="576" 
d="M519 2q-7 -9 -74 -8t-75 8v32t1 25q-20 -29 -58.5 -51.5t-89.5 -22.5q-179 0 -179 214q0 86 13 290q1 7 77 7.5t78 -2.5q1 -5 -1 -65.5t-4.5 -129t-2.5 -83.5q0 -90 76 -90q39 0 61.5 25.5t23.5 60.5q0 40 2.5 158t5.5 121q2 3 75.5 1.5t76.5 -5.5q3 -12 -6 -485z
M134 569q-5 0 -4 46t4 48t160.5 5.5t159.5 -1.5q1 -5 -1.5 -48t-4.5 -43q-1 0 -156 -3.5t-158 -3.5z" />
    <glyph glyph-name="Ubreve" unicode="&#x16c;" horiz-adv-x="715" 
d="M71 690q3 11 88.5 10.5t88.5 -7.5q2 -8 0 -81t-5.5 -168.5t-3.5 -136.5q0 -80 28 -115t87 -35q116 0 116 146q0 73 -3.5 228t-3.5 170q10 7 98 10t90 -4q8 -36 8 -415q0 -311 -302 -311q-301 0 -301 305q0 89 4.5 228t10.5 176zM359 759q-116 0 -180 91q0 9 19.5 28
t40.5 30q54 -52 122 -52q56 0 110 49q11 -3 32.5 -25.5t24.5 -29.5q-21 -34 -68.5 -62.5t-100.5 -28.5z" />
    <glyph glyph-name="ubreve" unicode="&#x16d;" horiz-adv-x="576" 
d="M519 2q-7 -9 -74 -8t-75 8v32t1 25q-20 -29 -58.5 -51.5t-89.5 -22.5q-179 0 -179 214q0 86 13 290q1 7 77 7.5t78 -2.5q1 -5 -1 -65.5t-4.5 -129t-2.5 -83.5q0 -90 76 -90q39 0 61.5 25.5t23.5 60.5q0 40 2.5 158t5.5 121q2 3 75.5 1.5t76.5 -5.5q3 -12 -6 -485z
M297 551q-116 0 -180 91q0 9 19.5 28t40.5 30q54 -52 122 -52q56 0 110 49q11 -3 32.5 -25.5t24.5 -29.5q-21 -34 -68.5 -62.5t-100.5 -28.5z" />
    <glyph glyph-name="Uring" unicode="&#x16e;" horiz-adv-x="715" 
d="M71 690q3 11 88.5 10.5t88.5 -7.5q2 -8 0 -81t-5.5 -168.5t-3.5 -136.5q0 -80 28 -115t87 -35q116 0 116 146q0 73 -3.5 228t-3.5 170q10 7 98 10t90 -4q8 -36 8 -415q0 -311 -302 -311q-301 0 -301 305q0 89 4.5 228t10.5 176zM356 730q-50 0 -78.5 25t-28.5 75
q0 48 29.5 72t77.5 24q43 0 71 -26t28 -71q0 -41 -25 -70t-74 -29zM354 791q37 0 37 36q0 15 -9.5 26.5t-27.5 11.5q-22 0 -32 -11t-10 -27t13 -26t29 -10z" />
    <glyph glyph-name="uring" unicode="&#x16f;" horiz-adv-x="576" 
d="M519 2q-7 -9 -74 -8t-75 8v32t1 25q-20 -29 -58.5 -51.5t-89.5 -22.5q-179 0 -179 214q0 86 13 290q1 7 77 7.5t78 -2.5q1 -5 -1 -65.5t-4.5 -129t-2.5 -83.5q0 -90 76 -90q39 0 61.5 25.5t23.5 60.5q0 40 2.5 158t5.5 121q2 3 75.5 1.5t76.5 -5.5q3 -12 -6 -485z
M302 544q-50 0 -78.5 25t-28.5 75q0 48 30 72t77 24q43 0 71 -26t28 -71q0 -41 -25 -70t-74 -29zM300 605q37 0 37 36q0 15 -9.5 26.5t-27.5 11.5q-22 0 -32 -11t-10 -27t13 -26t29 -10z" />
    <glyph glyph-name="Uhungarumlaut" unicode="&#x170;" horiz-adv-x="715" 
d="M71 690q3 11 88.5 10.5t88.5 -7.5q2 -8 0 -81t-5.5 -168.5t-3.5 -136.5q0 -80 28 -115t87 -35q116 0 116 146q0 73 -3.5 228t-3.5 170q10 7 98 10t90 -4q8 -36 8 -415q0 -311 -302 -311q-301 0 -301 305q0 89 4.5 228t10.5 176zM392 768q-1 2 34.5 82.5t37.5 81.5
q-2 1 27 -3t58 -8.5t28 -4.5l-103 -161q-80 10 -82 13zM305 757q-3 0 -32.5 6t-32.5 9q-2 2 5 40.5t15 75.5l7 38q10 3 39 0t53 -7t24 -5t-38.5 -79t-39.5 -78z" />
    <glyph glyph-name="uhungarumlaut" unicode="&#x171;" horiz-adv-x="576" 
d="M519 2q-7 -9 -74 -8t-75 8v32t1 25q-20 -29 -58.5 -51.5t-89.5 -22.5q-179 0 -179 214q0 86 13 290q1 7 77 7.5t78 -2.5q1 -5 -1 -65.5t-4.5 -129t-2.5 -83.5q0 -90 76 -90q39 0 61.5 25.5t23.5 60.5q0 40 2.5 158t5.5 121q2 3 75.5 1.5t76.5 -5.5q3 -12 -6 -485z
M328 566q-1 3 36 93.5t40 92.5q-2 1 28.5 -3.5t61 -9.5t29.5 -6l-109 -181q-84 11 -86 14zM236 555q-3 0 -34.5 6.5t-34.5 9.5q-2 2 5 45t15 86l8 42q16 3 43 0t53.5 -7.5t26.5 -5.5t-40.5 -88.5t-41.5 -87.5z" />
    <glyph glyph-name="Uogonek" unicode="&#x172;" horiz-adv-x="716" 
d="M254 -119q0 58 59 102q-257 21 -257 303q0 89 4.5 228t10.5 176q3 11 88.5 10.5t88.5 -7.5q2 -8 0 -81t-5.5 -168.5t-3.5 -136.5q0 -80 28 -115t87 -35q116 0 116 146q0 73 -3.5 228t-3.5 170q10 7 98 10t90 -4q8 -36 8 -415q0 -272 -230 -306q-67 -40 -67 -72
q0 -30 29 -30q11 0 23.5 5t19.5 10l7 5q5 1 27 -30.5t17 -36.5q-20 -23 -55 -42t-73 -19q-44 0 -73.5 30t-29.5 75z" />
    <glyph glyph-name="uogonek" unicode="&#x173;" horiz-adv-x="576" 
d="M289 -119q0 73 85 119l-2 1q-1 0 -1 1q1 11 0.5 32.5t-0.5 24.5q-19 -29 -58 -51.5t-90 -22.5q-179 0 -179 214q0 125 14 290q1 7 76.5 7.5t77.5 -2.5q1 -5 -1 -65.5t-4 -129t-2 -83.5q0 -90 76 -90q39 0 61.5 25.5t22.5 60.5q0 33 3 155t5 124q2 3 75.5 2t76.5 -5
q2 -7 -5 -486q-3 -2 -20.5 -10t-24.5 -11.5t-22 -12t-22.5 -14t-17 -13t-13.5 -14t-4 -13.5q0 -30 30 -30q10 0 22.5 5t19.5 10l7 5q5 1 27.5 -30.5t17.5 -36.5q-21 -23 -56 -42t-72 -19q-44 0 -73.5 30t-29.5 75z" />
    <glyph glyph-name="Wcircumflex" unicode="&#x174;" horiz-adv-x="956" 
d="M482 434h-6q-100 -399 -122 -434q-6 -8 -89 -8.5t-97 4.5q-7 3 -74.5 331t-67.5 357q5 9 48.5 16.5t78.5 8.5t42 -1q10 -43 43.5 -214.5t41.5 -247.5h4q20 90 62.5 247t60.5 207q13 4 80 4t72 -6q9 -20 53 -197.5t60 -256.5h4q9 69 43 237t48 222q27 3 98 -5.5t72 -17.5
q-3 -36 -71.5 -340t-79.5 -338q-5 -11 -85.5 -12.5t-95.5 4.5q-12 27 -55.5 181t-67.5 259zM306 818q155 105 174 113l174 -112q-28 -62 -42 -68q-2 -1 -23 9.5t-52.5 27t-56.5 30.5q-126 -71 -129 -69q-6 3 -17.5 20t-19.5 33z" />
    <glyph glyph-name="wcircumflex" unicode="&#x175;" horiz-adv-x="794" 
d="M19 475q0 5 66 17t79 12q5 0 26 -82t40 -164l18 -83q13 42 48 130t40 105q-2 5 -8 23.5t-10.5 33t-4.5 19.5q7 7 68 13.5t70 1.5q4 -3 25.5 -79t43.5 -159.5t23 -85.5q2 5 26.5 88.5t48.5 162t26 78.5q6 1 76 -15t69 -20q-9 -43 -83.5 -258t-79.5 -220q-12 -5 -47 -4
t-72.5 4t-38.5 5q-1 1 -10.5 30.5t-26.5 87.5t-31 116q-19 -57 -41.5 -115.5t-35.5 -90t-15 -33.5q-11 -5 -46.5 -4.5t-73 4t-38.5 4.5q-1 2 -33.5 113.5t-65 231t-32.5 133.5zM227 610q155 105 174 113l174 -112q-28 -62 -42 -68q-2 -1 -23 9.5t-52.5 27t-56.5 30.5
q-126 -71 -129 -69q-6 3 -17.5 20t-19.5 33z" />
    <glyph glyph-name="Ycircumflex" unicode="&#x176;" horiz-adv-x="629" 
d="M629 658q0 -10 -225 -390q2 -231 -3 -268q-3 -8 -48 -10t-89 1.5t-44 7.5q-2 28 2 271q-212 376 -211 387q1 8 77 31.5t86 20.5q3 -2 29.5 -51.5t60 -115.5t49.5 -103h6q10 18 31 57.5t38.5 72t36.5 66.5t30.5 54t13.5 20q11 1 85 -21t75 -30zM146 818q155 105 174 113
l174 -112q-28 -62 -42 -68q-2 -1 -23 9.5t-52.5 27t-56.5 30.5q-126 -71 -129 -69q-6 3 -17.5 20t-19.5 33z" />
    <glyph glyph-name="ycircumflex" unicode="&#x177;" horiz-adv-x="533" 
d="M532 470q-13 -47 -152.5 -364.5t-151.5 -330.5q-26 -1 -84 24t-67 35q0 2 22.5 50t47 102t29.5 69q-29 57 -96.5 228.5t-66.5 190.5q0 5 68.5 17.5t81.5 12.5q6 0 32 -71t49 -141l23 -71q109 283 114 284q6 1 78.5 -15t72.5 -20zM96 610q155 105 174 113l174 -112
q-28 -62 -42 -68q-2 -1 -23 9.5t-52.5 27t-56.5 30.5q-126 -71 -129 -69q-6 3 -17.5 20t-19.5 33z" />
    <glyph glyph-name="Ydieresis" unicode="&#x178;" horiz-adv-x="629" 
d="M629 658q0 -10 -225 -390q2 -231 -3 -268q-3 -8 -48 -10t-89 1.5t-44 7.5q-2 28 2 271q-212 376 -211 387q1 8 77 31.5t86 20.5q3 -2 29.5 -51.5t60 -115.5t49.5 -103h6q10 18 31 57.5t38.5 72t36.5 66.5t30.5 54t13.5 20q11 1 85 -21t75 -30zM435 766q-39 0 -59.5 20.5
t-21.5 55.5t20 57t52 22t54.5 -23t23.5 -52q0 -34 -16.5 -57t-52.5 -23zM213 766q-38 0 -58.5 20.5t-22.5 55.5q-1 35 20 57t52 22t54.5 -23t23.5 -52q0 -34 -16.5 -57t-52.5 -23z" />
    <glyph glyph-name="Zacute" unicode="&#x179;" horiz-adv-x="573" 
d="M265 157v-3q21 1 141.5 0.5t129.5 -3.5q4 -1 2.5 -74t-5.5 -76q-6 -4 -247 -5t-243 3q-4 12 -7 49t-2.5 63.5t0.5 33.5q1 2 63.5 92.5t130.5 189t81 115.5l1 4h-266q-3 1 -7 76t3 78q9 3 244 4t241 0q2 -2 9 -73t5 -79q-1 -2 -63 -93.5t-130.5 -189.5t-80.5 -112z
M450 846q-1 0 -58 -26t-114 -51t-59 -25q-8 3 -19 22t-18 36l-8 18l224 116q5 0 18.5 -22.5t24.5 -44.5t9 -23z" />
    <glyph glyph-name="zacute" unicode="&#x17a;" horiz-adv-x="449" 
d="M40 491q7 1 187.5 4t183.5 2q2 -1 6 -53t2 -58q-1 -2 -99.5 -131.5t-100.5 -132.5q13 3 97 5t97 -4q2 -2 1.5 -63t-4.5 -64q-5 -3 -184.5 -1.5t-182.5 2.5q-2 1 -5 24t-4.5 47.5t1.5 40.5l197 256q-183 -12 -197 1q-7 6 -4.5 64.5t9.5 60.5zM390 638q-1 0 -58 -26
t-114 -51t-59 -25q-8 3 -19 22t-18 36l-8 18l224 116q5 0 18.5 -22.5t24.5 -44.5t9 -23z" />
    <glyph glyph-name="Zdotaccent" unicode="&#x17b;" horiz-adv-x="573" 
d="M265 157v-3q21 1 141.5 0.5t129.5 -3.5q4 -1 2.5 -74t-5.5 -76q-6 -4 -247 -5t-243 3q-4 12 -7 49t-2.5 63.5t0.5 33.5q1 2 63.5 92.5t130.5 189t81 115.5l1 4h-266q-3 1 -7 76t3 78q9 3 244 4t241 0q2 -2 9 -73t5 -79q-1 -2 -63 -93.5t-130.5 -189.5t-80.5 -112z
M209 852q0 44 19 68t69 24q41 0 66.5 -26t25.5 -72q0 -33 -26 -56t-66 -23t-64 22.5t-24 62.5z" />
    <glyph glyph-name="zdotaccent" unicode="&#x17c;" horiz-adv-x="449" 
d="M40 491q7 1 187.5 4t183.5 2q2 -1 6 -53t2 -58q-1 -2 -99.5 -131.5t-100.5 -132.5q13 3 97 5t97 -4q2 -2 1.5 -63t-4.5 -64q-5 -3 -184.5 -1.5t-182.5 2.5q-2 1 -5 24t-4.5 47.5t1.5 40.5l197 256q-183 -12 -197 1q-7 6 -4.5 64.5t9.5 60.5zM147 652q0 44 19 68t69 24
q41 0 66.5 -26t25.5 -72q0 -33 -26 -56t-66 -23t-64 22.5t-24 62.5z" />
    <glyph glyph-name="Zcaron" unicode="&#x17d;" horiz-adv-x="573" 
d="M265 157v-3q21 1 141.5 0.5t129.5 -3.5q4 -1 2.5 -74t-5.5 -76q-6 -4 -247 -5t-243 3q-4 12 -7 49t-2.5 63.5t0.5 33.5q1 2 63.5 92.5t130.5 189t81 115.5l1 4h-266q-3 1 -7 76t3 78q9 3 244 4t241 0q2 -2 9 -73t5 -79q-1 -2 -63 -93.5t-130.5 -189.5t-80.5 -112z
M119 858q31 64 45 70q2 1 130 -71q25 14 57 31t53.5 27.5t23.5 9.5q6 -3 16.5 -19.5t17.5 -31.5l7 -16q-167 -110 -175 -113q-8 4 -52 32t-84 55z" />
    <glyph glyph-name="zcaron" unicode="&#x17e;" horiz-adv-x="449" 
d="M40 491q7 1 187.5 4t183.5 2q2 -1 6 -53t2 -58q-1 -2 -99.5 -131.5t-100.5 -132.5q13 3 97 5t97 -4q2 -2 1.5 -63t-4.5 -64q-5 -3 -184.5 -1.5t-182.5 2.5q-2 1 -5 24t-4.5 47.5t1.5 40.5l197 256q-183 -12 -197 1q-7 6 -4.5 64.5t9.5 60.5zM57 650q31 64 45 70
q2 1 130 -71q25 14 57 31t53.5 27.5t23.5 9.5q6 -3 16.5 -19.5t17.5 -31.5l7 -16q-167 -110 -175 -113q-8 4 -52 32t-84 55z" />
    <glyph glyph-name="florin" unicode="&#x192;" horiz-adv-x="593" 
d="M62 327l128 1q40 254 41 259q33 166 196 166q105 0 155 -50q-6 -22 -27.5 -70.5t-26.5 -46.5q-3 1 -10.5 5t-13 6.5t-14 5.5t-18 4.5t-19.5 1.5q-30 0 -48.5 -20.5t-22.5 -49.5q-13 -75 -32 -211l143 1q1 -1 1.5 -34t-0.5 -35l-154 -2q-20 -138 -42 -273
q-17 -105 -63.5 -157t-139.5 -52q-105 0 -155 50q6 22 27.5 70.5t26.5 46.5q45 -24 74 -24q31 0 49.5 20.5t22.5 50.5q7 49 20 137.5t19 128.5h-113q-4 1 -5 35.5t1 35.5z" />
    <glyph glyph-name="AEacute" unicode="&#x1fc;" horiz-adv-x="948" 
d="M900 147q5 -26 4.5 -81t-4.5 -69q4 -2 -96.5 -3.5t-218.5 -0.5t-155 5q-2 58 -2 143h-174q-5 -11 -22.5 -51t-30 -66.5t-16.5 -30.5q-4 -3 -93 4t-97 13q29 71 170 379t149 309q35 7 312 8.5t285 -5.5q10 -21 8.5 -68.5t-6.5 -83.5q-22 -2 -135 -2.5t-174 1.5l2 -122
q221 3 233 -6q3 -3 4 -18t1 -35.5t-0.5 -40t-1.5 -34.5l-1 -16q0 -4 -82 -4t-154 2v-128q236 5 295 1zM425 551l-126 -273q8 0 30 0.5t51.5 1t48.5 0.5q0 33 3 270zM794 846q-1 0 -58 -26t-114 -51t-59 -25q-8 3 -19 22t-18 36l-8 18l224 116q5 0 18.5 -22.5t24.5 -44.5
t9 -23z" />
    <glyph glyph-name="aeacute" unicode="&#x1fd;" horiz-adv-x="849" 
d="M527 204q0 -40 28 -63t79 -23q60 0 117 35q8 -8 29.5 -52.5t22.5 -55.5q-23 -22 -72 -39.5t-105 -17.5q-111 0 -177 60q-2 -42 -3 -43q-1 -3 -33.5 -3t-64.5 2l-31 1l-9 43q-55 -55 -128 -55q-78 0 -116.5 41t-38.5 110q0 66 51 106.5t128 40.5q56 0 93 -27
q1 23 -0.5 35.5t-8.5 30.5t-26.5 27t-51.5 9q-27 0 -50 -11t-35.5 -22.5t-14.5 -11.5q-7 0 -42.5 31.5t-34.5 39.5q0 8 13.5 25t36.5 37t63.5 34.5t87.5 14.5q134 0 190 -98q66 93 189 93q96 0 155 -62t59 -150q0 -47 -9 -77q-34 -5 -142 -6t-149 1zM526 296l157 3
q2 38 -17 62.5t-54 24.5q-38 0 -62 -25.5t-24 -64.5zM159 147q0 -25 18.5 -40.5t46.5 -15.5q32 0 49 16t17 40q0 26 -19 41.5t-47 15.5q-29 0 -47 -16.5t-18 -40.5zM588 638q-1 0 -58 -26t-114 -51t-59 -25q-8 3 -19 22t-18 36l-8 18l224 116q5 0 18.5 -22.5t24.5 -44.5
t9 -23z" />
    <glyph glyph-name="Oslashacute" unicode="&#x1fe;" horiz-adv-x="752" 
d="M72 23q19 25 48 65q-89 101 -89 267q0 94 37 173.5t116.5 132t189.5 52.5q97 0 176 -44q44 60 45 60l93 -46l-6 -9q-6 -9 -21 -29.5t-28 -39.5q88 -97 88 -266q0 -69 -20.5 -131t-61 -114t-108.5 -82.5t-154 -30.5q-95 0 -171 41q-45 -58 -48 -56q-7 3 -20 10t-29 16
t-27 18t-10 13zM216 345q0 -57 22 -97q24 32 98 132.5t111 150.5q-32 19 -70 19q-76 0 -118.5 -55.5t-42.5 -149.5zM530 352q0 50 -17 87q-63 -88 -202 -276q28 -18 62 -18q78 0 117.5 55t39.5 152zM544 846q-1 0 -58 -26t-114 -51t-59 -25q-8 3 -19 22t-18 36l-8 18
l224 116q5 0 18.5 -22.5t24.5 -44.5t9 -23z" />
    <glyph glyph-name="oslashacute" unicode="&#x1ff;" horiz-adv-x="559" 
d="M44 22q17 20 42 49q-60 69 -60 178q0 99 69.5 173.5t182.5 74.5q79 0 140 -38q21 25 51 57l52 -38l-5 -6q-6 -7 -19 -22.5t-27 -33.5q63 -71 63 -180q0 -101 -69 -173.5t-184 -74.5q-78 0 -141 38q-13 -15 -24 -27t-17 -17l-6 -6q-5 3 -12 8t-17 12.5t-15.5 14.5t-3.5 11
zM385 238q0 38 -13 62l-142 -169q16 -11 41 -11q55 -1 84.5 30t29.5 88zM173 237q0 -29 10 -52q8 9 136 160q-14 7 -33 7q-55 2 -84 -29.5t-29 -85.5zM430 638q-1 0 -58 -26t-114 -51t-59 -25q-8 3 -19 22t-18 36l-8 18l224 116q5 0 18.5 -22.5t24.5 -44.5t9 -23z" />
    <glyph glyph-name="Scommaaccent" unicode="&#x218;" horiz-adv-x="581" 
d="M277 -5q-76 0 -144 23t-102 48q-1 4 1 14.5t6.5 23.5t9.5 28t11 29t11.5 25t10 17.5t6.5 5.5q1 -1 12.5 -8t19.5 -11.5t22.5 -12.5t28.5 -13.5t30.5 -11t34.5 -8.5t35 -3q97 0 97 61q0 26 -27 44t-100 33q-102 21 -153 72.5t-51 146.5q0 90 70 151.5t192 61.5
q76 0 139.5 -17t94.5 -42q9 -7 -20 -73.5t-37 -65.5q-94 44 -173 44q-43 0 -65.5 -15.5t-22.5 -41.5q0 -24 22 -38.5t92 -30.5q110 -25 169.5 -74.5t59.5 -144.5q0 -88 -71.5 -152.5t-208.5 -64.5zM372 -139q0 -80 -64 -176q-1 -2 -17 1.5t-34 11.5t-24 16q-1 1 4.5 12
t15.5 28t14 26q-30 3 -51.5 25t-21.5 54q0 41 26 63.5t73 19.5q34 -2 56.5 -21t22.5 -60z" />
    <glyph glyph-name="scommaaccent" unicode="&#x219;" horiz-adv-x="455" 
d="M233 -17q-67 0 -129 20t-76 35q-4 5 6 34.5t23 56t17 24.5q1 -1 19.5 -11.5t34 -18.5t41 -15.5t47.5 -7.5q60 0 60 36q0 17 -17 27t-64 19q-84 14 -124 50.5t-40 99.5q0 80 52 124.5t144 44.5q62 0 117.5 -15.5t68.5 -28.5q6 -6 -16 -60t-28 -55q-1 0 -21 10t-50 19.5
t-56 9.5q-28 0 -42 -11.5t-14 -27.5q0 -17 16 -25.5t59 -14.5q91 -13 131.5 -47.5t40.5 -103.5q0 -72 -50.5 -120t-149.5 -48zM320 -139q0 -80 -64 -176q-1 -2 -17 1.5t-34 11.5t-24 16q-1 1 4.5 12t15.5 28t14 26q-30 3 -51.5 25t-21.5 54q0 41 26 63.5t73 19.5
q34 -2 56.5 -21t22.5 -60z" />
    <glyph glyph-name="uni021A" unicode="&#x21a;" horiz-adv-x="570" 
d="M21 545q-6 21 -7 82.5t3 64.5q10 5 252 10.5t276 0.5q10 -3 11 -77.5t-5 -75.5q-16 -2 -177 -8q3 -502 -1 -538q-5 -6 -89.5 -8t-85.5 4q-8 108 -3 544q-146 -2 -174 1zM375 -139q0 -80 -64 -176q-1 -2 -17 1.5t-34 11.5t-24 16q-1 1 4.5 12t15.5 28t14 26
q-30 3 -51.5 25t-21.5 54q0 41 26 63.5t73 19.5q34 -2 56.5 -21t22.5 -60z" />
    <glyph glyph-name="uni021B" unicode="&#x21b;" horiz-adv-x="406" 
d="M248 360q0 -2 -1 -33.5t-2 -75t-1 -68.5q0 -52 49 -54q20 0 44 11.5t29 10.5q8 -2 21 -49t14 -66q-5 -6 -14.5 -14t-47.5 -21.5t-84 -13.5q-84 0 -127.5 42.5t-43.5 117.5q0 13 1 40.5t2 57.5t2 57.5t1 45.5l1 19l-16 1q-16 0 -33.5 1t-19.5 3q-4 4 -4 62.5t4 59.5
q1 0 37.5 -0.5t36.5 1.5q1 1 1 56.5t5 60.5q6 6 77 11.5t75 1.5q2 -7 1 -37t-2.5 -63.5t-0.5 -33.5q0 2 58 1.5t64 -8.5q4 -6 4.5 -35t-0.5 -55l-2 -25q-3 -5 -35 -5.5t-62.5 -0.5t-30.5 -3zM322 -139q0 -80 -64 -176q-1 -2 -17 1.5t-34 11.5t-24 16q-1 1 4.5 12t15.5 28
t14 26q-30 3 -51.5 25t-21.5 54q0 41 26 63.5t73 19.5q34 -2 56.5 -21t22.5 -60z" />
    <glyph glyph-name="dotlessj" unicode="&#x237;" horiz-adv-x="268" 
d="M58 494q37 5 73 3.5t62 -5.5t28 -6q1 -1 -1.5 -80t-5.5 -201t-3 -204q0 -173 -144 -224q-4 -1 -23 12.5t-39 39t-25 50.5q7 2 18 9.5t24.5 22t22.5 41.5t9 60q-3 481 4 482z" />
    <glyph glyph-name="circumflex" unicode="&#x2c6;" 
d="M76 610q155 105 174 113l174 -112q-28 -62 -42 -68q-2 -1 -23 9.5t-52.5 27t-56.5 30.5q-126 -71 -129 -69q-6 3 -17.5 20t-19.5 33z" />
    <glyph glyph-name="caron" unicode="&#x2c7;" 
d="M75 650q31 64 45 70q2 1 130 -71q25 14 57 31t53.5 27.5t23.5 9.5q6 -3 16.5 -19.5t17.5 -31.5l7 -16q-167 -110 -175 -113q-8 4 -52 32t-84 55z" />
    <glyph glyph-name="breve" unicode="&#x2d8;" 
d="M255 551q-116 0 -180 91q0 9 19.5 28t40.5 30q54 -52 122 -52q56 0 110 49q11 -3 32.5 -25.5t24.5 -29.5q-21 -34 -68.5 -62.5t-100.5 -28.5z" />
    <glyph glyph-name="dotaccent" unicode="&#x2d9;" 
d="M160 652q0 44 19 68t69 24q41 0 66.5 -26t25.5 -72q0 -33 -26 -56t-66 -23t-64 22.5t-24 62.5z" />
    <glyph glyph-name="ring" unicode="&#x2da;" 
d="M254 532q-50 0 -78.5 25t-28.5 75q0 48 29.5 72t77.5 24q43 0 71 -26t28 -71q0 -41 -25 -70t-74 -29zM252 593q37 0 37 36q0 15 -9.5 26.5t-27.5 11.5q-22 0 -32 -11t-10 -27t13 -26t29 -10z" />
    <glyph glyph-name="ogonek" unicode="&#x2db;" 
d="M134 -119q0 51 39 85.5t86 52.5l83 -16q-100 -50 -100 -89q0 -30 29 -30q10 0 22.5 5t19.5 10l7 5q5 1 27.5 -30t17.5 -37q-21 -23 -56 -42t-72 -19q-44 0 -73.5 30t-29.5 75z" />
    <glyph glyph-name="tilde" unicode="&#x2dc;" 
d="M69 656q40 52 102 52q29 0 79.5 -28.5t77.5 -28.5q31 0 68 37q6 -2 19.5 -35t14.5 -51q-1 -2 -3.5 -6t-12 -13.5t-20 -16.5t-29 -13t-38.5 -6q-30 0 -84 26.5t-80 26.5q-32 0 -67 -32q-7 -6 -24 69q-3 15 -3 19z" />
    <glyph glyph-name="hungarumlaut" unicode="&#x2dd;" 
d="M233 535q-1 3 35.5 113.5t38.5 112.5q-2 1 28 -4.5t60 -11.5t29 -7l-107 -220q-82 13 -84 17zM143 521q-3 0 -34 8.5t-34 11.5q-2 2 5 55t15 104l8 52q15 4 41.5 0t52.5 -9.5t26 -6.5t-39.5 -108t-40.5 -107z" />
    <glyph glyph-name="uni0394" unicode="&#x394;" horiz-adv-x="670" 
d="M19 5q-1 2 134.5 350t136.5 348l99 2q0 -3 68 -175t132.5 -345.5t58.5 -184.5q-3 -7 -160.5 -10.5t-313 0.5t-155.5 15zM209 122q7 -2 124.5 -1t117.5 4q0 2 -28 83t-57.5 165.5t-31.5 91.5q1 0 -31 -84.5t-63.5 -170.5t-30.5 -88z" />
    <glyph glyph-name="uni03A9" unicode="&#x3a9;" horiz-adv-x="747" 
d="M338 -1l-265 -2q-8 7 -11.5 41t-3.5 64v31l99 7q-5 4 -13 10.5t-28.5 30t-36 50t-28.5 68.5t-13 87q0 153 98 239t237 86q166 0 252 -86.5t86 -224.5q0 -45 -13.5 -89t-33 -74t-39 -53.5t-33.5 -35.5l-13 -11l101 2l2 -139q-7 -5 -137 -2.5t-137 4.5q-3 1 -3 61t2 61
q54 31 95 96.5t41 137.5q0 95 -43 144.5t-125 49.5q-77 0 -120 -49t-43 -146q0 -82 37 -144t92 -89z" />
    <glyph glyph-name="uni03BC" unicode="&#x3bc;" horiz-adv-x="593" 
d="M530 2q-8 -9 -75 -8t-74 8q1 11 0.5 32.5t-0.5 24.5q-49 -73 -130 -73q-27 0 -39 9q-6 -172 -7 -208q-144 -5 -144 4q-7 90 -7 408q0 125 14 290q1 7 76.5 7.5t77.5 -2.5q1 -5 -1 -65.5t-4 -129t-2 -83.5q0 -90 76 -90q39 0 61.5 25.5t22.5 60.5q0 33 3 153t5 122
q2 3 75.5 1.5t76.5 -5.5q2 -7 -5 -481z" />
    <glyph glyph-name="pi" unicode="&#x3c0;" horiz-adv-x="608" 
d="M586 351q-9 0 -28.5 -0.5t-29.5 -0.5q-3 -289 -6 -350q-1 -7 -77 -7.5t-77 1.5q-3 2 0 353q-16 0 -50 -0.5t-50 -0.5q-3 -344 -5 -346q-2 -3 -76 -1.5t-76 5.5q-3 9 -3 340q-11 0 -36.5 -0.5t-36.5 -0.5q-13 21 -18.5 53t-4.5 54v21q15 19 130 25q59 3 247 0t194 -8
q4 -13 6 -53.5t-3 -83.5z" />
    <glyph glyph-name="Wgrave" unicode="&#x1e80;" horiz-adv-x="956" 
d="M482 434h-6q-100 -399 -122 -434q-6 -8 -89 -8.5t-97 4.5q-7 3 -74.5 331t-67.5 357q5 9 48.5 16.5t78.5 8.5t42 -1q10 -43 43.5 -214.5t41.5 -247.5h4q20 90 62.5 247t60.5 207q13 4 80 4t72 -6q9 -20 53 -197.5t60 -256.5h4q9 69 43 237t48 222q27 3 98 -5.5t72 -17.5
q-3 -36 -71.5 -340t-79.5 -338q-5 -11 -85.5 -12.5t-95.5 4.5q-12 27 -55.5 181t-67.5 259zM311 846q-2 1 9.5 23t25 44.5t18.5 22.5q2 1 58 -28t111 -58l55 -30q-29 -70 -46 -76q-2 0 -59 25t-114 51t-58 26z" />
    <glyph glyph-name="wgrave" unicode="&#x1e81;" horiz-adv-x="794" 
d="M19 475q0 5 66 17t79 12q5 0 26 -82t40 -164l18 -83q13 42 48 130t40 105q-2 5 -8 23.5t-10.5 33t-4.5 19.5q7 7 68 13.5t70 1.5q4 -3 25.5 -79t43.5 -159.5t23 -85.5q2 5 26.5 88.5t48.5 162t26 78.5q6 1 76 -15t69 -20q-9 -43 -83.5 -258t-79.5 -220q-12 -5 -47 -4
t-72.5 4t-38.5 5q-1 1 -10.5 30.5t-26.5 87.5t-31 116q-19 -57 -41.5 -115.5t-35.5 -90t-15 -33.5q-11 -5 -46.5 -4.5t-73 4t-38.5 4.5q-1 2 -33.5 113.5t-65 231t-32.5 133.5zM238 638q-2 1 9.5 23t25 44.5t18.5 22.5q2 1 58 -28t111 -58l55 -30q-29 -70 -46 -76
q-2 0 -59 25t-114 51t-58 26z" />
    <glyph glyph-name="Wacute" unicode="&#x1e82;" horiz-adv-x="956" 
d="M482 434h-6q-100 -399 -122 -434q-6 -8 -89 -8.5t-97 4.5q-7 3 -74.5 331t-67.5 357q5 9 48.5 16.5t78.5 8.5t42 -1q10 -43 43.5 -214.5t41.5 -247.5h4q20 90 62.5 247t60.5 207q13 4 80 4t72 -6q9 -20 53 -197.5t60 -256.5h4q9 69 43 237t48 222q27 3 98 -5.5t72 -17.5
q-3 -36 -71.5 -340t-79.5 -338q-5 -11 -85.5 -12.5t-95.5 4.5q-12 27 -55.5 181t-67.5 259zM665 846q-1 0 -58 -26t-114 -51t-59 -25q-8 3 -19 22t-19 36l-7 18l224 116q5 0 18.5 -22.5t24.5 -44.5t9 -23z" />
    <glyph glyph-name="wacute" unicode="&#x1e83;" horiz-adv-x="794" 
d="M19 475q0 5 66 17t79 12q5 0 26 -82t40 -164l18 -83q13 42 48 130t40 105q-2 5 -8 23.5t-10.5 33t-4.5 19.5q7 7 68 13.5t70 1.5q4 -3 25.5 -79t43.5 -159.5t23 -85.5q2 5 26.5 88.5t48.5 162t26 78.5q6 1 76 -15t69 -20q-9 -43 -83.5 -258t-79.5 -220q-12 -5 -47 -4
t-72.5 4t-38.5 5q-1 1 -10.5 30.5t-26.5 87.5t-31 116q-19 -57 -41.5 -115.5t-35.5 -90t-15 -33.5q-11 -5 -46.5 -4.5t-73 4t-38.5 4.5q-1 2 -33.5 113.5t-65 231t-32.5 133.5zM551 638q-1 0 -58 -26t-114 -51t-59 -25q-8 3 -19 22t-19 36l-7 18l224 116q5 0 18.5 -22.5
t24.5 -44.5t9 -23z" />
    <glyph glyph-name="Wdieresis" unicode="&#x1e84;" horiz-adv-x="956" 
d="M482 434h-6q-100 -399 -122 -434q-6 -8 -89 -8.5t-97 4.5q-7 3 -74.5 331t-67.5 357q5 9 48.5 16.5t78.5 8.5t42 -1q10 -43 43.5 -214.5t41.5 -247.5h4q20 90 62.5 247t60.5 207q13 4 80 4t72 -6q9 -20 53 -197.5t60 -256.5h4q9 69 43 237t48 222q27 3 98 -5.5t72 -17.5
q-3 -36 -71.5 -340t-79.5 -338q-5 -11 -85.5 -12.5t-95.5 4.5q-12 27 -55.5 181t-67.5 259zM598 766q-39 0 -59.5 20.5t-21.5 55.5t20 57t52 22t54.5 -23t23.5 -52q0 -34 -16.5 -57t-52.5 -23zM376 766q-38 0 -58.5 20.5t-22.5 55.5q-1 35 20 57t52 22t54.5 -23t23.5 -52
q0 -34 -16.5 -57t-52.5 -23z" />
    <glyph glyph-name="wdieresis" unicode="&#x1e85;" horiz-adv-x="794" 
d="M19 475q0 5 66 17t79 12q5 0 26 -82t40 -164l18 -83q13 42 48 130t40 105q-2 5 -8 23.5t-10.5 33t-4.5 19.5q7 7 68 13.5t70 1.5q4 -3 25.5 -79t43.5 -159.5t23 -85.5q2 5 26.5 88.5t48.5 162t26 78.5q6 1 76 -15t69 -20q-9 -43 -83.5 -258t-79.5 -220q-12 -5 -47 -4
t-72.5 4t-38.5 5q-1 1 -10.5 30.5t-26.5 87.5t-31 116q-19 -57 -41.5 -115.5t-35.5 -90t-15 -33.5q-11 -5 -46.5 -4.5t-73 4t-38.5 4.5q-1 2 -33.5 113.5t-65 231t-32.5 133.5zM516 558q-39 0 -59.5 20.5t-21.5 55.5t20 57t52 22t54.5 -23t23.5 -52q0 -34 -16.5 -57
t-52.5 -23zM294 558q-38 0 -58.5 20.5t-22.5 55.5q-1 35 20 57t52 22t54.5 -23t23.5 -52q0 -34 -16.5 -57t-52.5 -23z" />
    <glyph glyph-name="Ygrave" unicode="&#x1ef2;" horiz-adv-x="629" 
d="M629 658q0 -10 -225 -390q2 -231 -3 -268q-3 -8 -48 -10t-89 1.5t-44 7.5q-2 28 2 271q-212 376 -211 387q1 8 77 31.5t86 20.5q3 -2 29.5 -51.5t60 -115.5t49.5 -103h6q10 18 31 57.5t38.5 72t36.5 66.5t30.5 54t13.5 20q11 1 85 -21t75 -30zM142 846q-2 1 9.5 23
t25 44.5t18.5 22.5q2 1 58 -28t111 -58l55 -30q-29 -70 -46 -76q-2 0 -59 25t-114 51t-58 26z" />
    <glyph glyph-name="ygrave" unicode="&#x1ef3;" horiz-adv-x="533" 
d="M532 470q-13 -47 -152.5 -364.5t-151.5 -330.5q-26 -1 -84 24t-67 35q0 2 22.5 50t47 102t29.5 69q-29 57 -96.5 228.5t-66.5 190.5q0 5 68.5 17.5t81.5 12.5q6 0 32 -71t49 -141l23 -71q109 283 114 284q6 1 78.5 -15t72.5 -20zM110 638q-2 1 9.5 23t25 44.5t18.5 22.5
q2 1 58 -28t111 -58l55 -30q-29 -70 -46 -76q-2 0 -59 25t-114 51t-58 26z" />
    <glyph glyph-name="endash" unicode="&#x2013;" horiz-adv-x="516" 
d="M54 216q-5 0 -4 58.5t4 60.5q4 2 207 6.5t204 0.5q2 -5 -1 -61t-5 -56l-201 -5q-200 -4 -204 -4z" />
    <glyph glyph-name="emdash" unicode="&#x2014;" horiz-adv-x="724" 
d="M54 231q-5 0 -4 55t4 56q4 2 312 6.5t309 0.5q2 -5 -1 -56.5t-5 -51.5l-305 -5q-306 -5 -310 -5z" />
    <glyph glyph-name="quoteleft" unicode="&#x2018;" horiz-adv-x="270" 
d="M27 422q0 56 35 139.5t73 147.5q2 2 21 -2.5t40.5 -15t28.5 -20.5q1 -1 -12 -27.5t-32.5 -65t-27.5 -54.5q36 -4 61.5 -31t25.5 -69q0 -52 -31 -80.5t-88 -25.5q-40 3 -67 27.5t-27 76.5z" />
    <glyph glyph-name="quoteright" unicode="&#x2019;" horiz-adv-x="267" 
d="M244 604q0 -56 -34.5 -138t-73.5 -149q-2 -2 -21 2.5t-40.5 15t-28.5 20.5q-1 1 11.5 27t32.5 65.5t27 54.5q-35 4 -60.5 31t-25.5 69q0 52 31 80.5t87 25.5q40 -3 67.5 -27.5t27.5 -76.5z" />
    <glyph glyph-name="quotesinglbase" unicode="&#x201a;" horiz-adv-x="279" 
d="M245 92q0 -56 -34.5 -138t-73.5 -149q-2 -2 -21 2.5t-40.5 15t-28.5 20.5q-1 1 11.5 27t32.5 65.5t27 54.5q-35 4 -60.5 31t-25.5 69q0 52 31 80.5t87 25.5q40 -3 67.5 -27.5t27.5 -76.5z" />
    <glyph glyph-name="quotedblleft" unicode="&#x201c;" horiz-adv-x="498" 
d="M26 442q0 52 32 129t68 138q2 2 19.5 -2.5t38 -13.5t26.5 -19q1 -1 -11 -25t-30.5 -61.5t-25.5 -50.5q33 -4 57 -29t24 -64q0 -49 -29 -75t-82 -23q-36 2 -61.5 25t-25.5 71zM271 442q0 52 32 129t68 138q2 2 19.5 -2.5t38 -13.5t26.5 -19q1 -1 -11 -25t-30.5 -61.5
t-25.5 -50.5q33 -4 57 -29t24 -64q0 -49 -29 -75t-82 -23q-36 2 -61.5 25t-25.5 71z" />
    <glyph glyph-name="quotedblright" unicode="&#x201d;" horiz-adv-x="497" 
d="M228 613q0 -90 -100 -266q-2 -2 -19.5 2.5t-37.5 14t-26 19.5q-1 1 11 25t29.5 59.5t24.5 51.5q-32 3 -55.5 28.5t-23.5 63.5q0 48 28.5 74.5t80.5 24.5q38 -3 63 -25.5t25 -71.5zM474 614q0 -90 -100 -266q-2 -2 -19.5 2.5t-37.5 14t-26 19.5q-1 1 11 25t29.5 59.5
t24.5 51.5q-32 3 -55.5 28.5t-23.5 63.5q0 48 28.5 74.5t80.5 24.5q38 -3 63 -25.5t25 -71.5z" />
    <glyph glyph-name="quotedblbase" unicode="&#x201e;" horiz-adv-x="507" 
d="M228 90q0 -90 -100 -266q-2 -2 -19.5 2.5t-37.5 14t-26 19.5q-1 1 11 25t29.5 59.5t24.5 51.5q-32 3 -55.5 28.5t-23.5 63.5q0 48 28.5 74.5t80.5 24.5q38 -3 63 -25.5t25 -71.5zM474 89q0 -90 -100 -266q-2 -2 -19.5 2.5t-37.5 14t-26 19.5q-1 1 11 25t29.5 59.5
t24.5 51.5q-32 3 -55.5 28.5t-23.5 63.5q0 48 28.5 74.5t80.5 24.5q38 -3 63 -25.5t25 -71.5z" />
    <glyph glyph-name="dagger" unicode="&#x2020;" horiz-adv-x="436" 
d="M410 409l-140 -1v-624l-52 -8q-16 -1 -17 3q-2 14 -9 628l-162 -1q-2 1 -4.5 16t-4 29.5t-0.5 14.5l171 1q-2 268 0 270q4 5 23.5 7t37 1t17.5 -2v-275l144 1q1 -57 -4 -60z" />
    <glyph glyph-name="daggerdbl" unicode="&#x2021;" horiz-adv-x="456" 
d="M420 79l-138 -2v-293l-52 -8q-16 -1 -17 3q-1 6 -5 297l-161 -1q-2 1 -4.5 17t-4 31.5t-0.5 15.5l169 1l-3 267l-160 -1q-2 1 -5 16t-4 29t0 14l169 1q-2 269 0 271q4 5 23.5 7t37 1t17.5 -2v-276l146 1q0 -56 -4 -59l-142 -1v-267l142 1q1 -60 -4 -63z" />
    <glyph glyph-name="bullet" unicode="&#x2022;" horiz-adv-x="360" 
d="M184 171q-127 0 -127 125q0 61 35.5 89.5t91.5 28.5q52 0 85.5 -32t33.5 -87q0 -52 -30 -88t-89 -36z" />
    <glyph glyph-name="ellipsis" unicode="&#x2026;" horiz-adv-x="790" 
d="M223 82q0 -46 -28.5 -71.5t-79.5 -24.5q-33 2 -58.5 28.5t-25.5 65.5q0 47 28 73t79 23q36 -2 60.5 -24t24.5 -70zM490 82q0 -46 -28.5 -71.5t-79.5 -24.5q-33 2 -58.5 28.5t-25.5 65.5q0 47 28 73t79 23q36 -2 60.5 -24t24.5 -70zM756 82q0 -46 -28.5 -71.5t-79.5 -24.5
q-33 2 -58.5 28.5t-25.5 65.5q0 47 28 73t79 23q36 -2 60.5 -24t24.5 -70z" />
    <glyph glyph-name="perthousand" unicode="&#x2030;" horiz-adv-x="1207" 
d="M173 -3q-2 3 182 359t190 359q7 3 51.5 -3t43.5 -14q-1 -13 -177.5 -365t-189.5 -355q-16 -4 -56 4.5t-44 14.5zM197 341q-79 0 -125 44.5t-46 134.5q0 87 48 130.5t122 43.5q73 0 117.5 -46.5t44.5 -129.5q0 -74 -41 -125.5t-120 -51.5zM190 447q29 0 47 16.5t18 51.5
q0 34 -15 57t-44 23q-67 0 -67 -80q0 -34 18 -51t43 -17zM648 -10q-81 0 -128 45.5t-47 138.5q0 89 49 133.5t125 44.5q74 0 119.5 -47.5t45.5 -132.5q0 -76 -42 -129t-122 -53zM640 95q31 0 51.5 18.5t20.5 55.5q0 36 -16.5 60.5t-48.5 24.5q-38 0 -56 -23.5t-18 -61.5
q0 -37 19.5 -55.5t47.5 -18.5zM1017 -10q-81 0 -128 45.5t-47 138.5q0 89 49 133.5t125 44.5q74 0 119.5 -47.5t45.5 -132.5q0 -76 -42 -129t-122 -53zM1009 95q31 0 51.5 18.5t20.5 55.5q0 36 -16.5 60.5t-49.5 24.5q-73 0 -73 -85q0 -37 19.5 -55.5t47.5 -18.5z" />
    <glyph glyph-name="guilsinglleft" unicode="&#x2039;" horiz-adv-x="288" 
d="M192 44q-2 1 -84 126.5t-82 130.5t82.5 119t86.5 117q3 2 27.5 -16t24.5 -21q0 -1 -52.5 -96t-51.5 -97q0 -1 55 -104.5t55 -106.5q0 -4 -29.5 -28.5t-31.5 -23.5z" />
    <glyph glyph-name="guilsinglright" unicode="&#x203a;" horiz-adv-x="288" 
d="M95 537q2 -1 84 -121t82 -125t-82 -123t-86 -121q-3 -2 -28 16t-25 21q0 1 52.5 102t51.5 103q0 1 -55 97.5t-55 99.5t29.5 27.5t31.5 23.5z" />
    <glyph glyph-name="fraction" unicode="&#x2044;" horiz-adv-x="240" 
d="M-94 33l86 171q87 170 173.5 339.5t90.5 169.5q9 0 43.5 -15t32.5 -23q-4 -17 -169.5 -353.5t-177.5 -336.5q-7 3 -26.5 14.5t-36.5 22t-16 11.5z" />
    <glyph glyph-name="zerosuperior" unicode="&#x2070;" horiz-adv-x="444" 
d="M223 306q-95 0 -141.5 59t-46.5 184t48.5 186t135.5 61q88 0 139 -60.5t51 -188.5q0 -119 -47.5 -180t-138.5 -61zM219 416q35 0 50.5 29.5t15.5 95.5q0 140 -65 140q-68 0 -68 -135q0 -68 15.5 -99t51.5 -31z" />
    <glyph glyph-name="foursuperior" unicode="&#x2074;" horiz-adv-x="429" 
d="M342 317q-62 -9 -113 4v82q-122 -5 -200 -1q-4 16 -8 49t-2 47q15 36 91.5 150.5t106.5 148.5q86 0 129 -15l-1 -281q47 0 60 -1v-94q0 -2 -64 -2q1 -86 1 -87zM237 649h-4q-81 -109 -99 -149l97 1z" />
    <glyph glyph-name="fivesuperior" unicode="&#x2075;" horiz-adv-x="395" 
d="M18 370q2 12 23 52.5t25 40.5q1 0 16.5 -11t41 -22t52.5 -11q28 0 44.5 14t16.5 41q0 49 -55 52q-27 1 -65 -18l-62 36q0 45 6.5 132t14.5 113q7 3 127.5 5.5t140.5 -1.5q1 -102 -3 -103l-174 -5l-4 -73q22 11 64 11q62 0 100.5 -39t38.5 -108q0 -80 -50.5 -123
t-132.5 -43q-57 0 -106 21.5t-59 38.5z" />
    <glyph glyph-name="sixsuperior" unicode="&#x2076;" horiz-adv-x="411" 
d="M175 607l2 -2q31 19 70 19q58 0 100.5 -38t42.5 -113q0 -80 -50.5 -121.5t-129.5 -41.5q-71 0 -124.5 50.5t-53.5 149.5q0 60 22.5 114.5t55 90t63.5 57.5t54 29q9 0 45 -29.5t40 -44.5q-48 -18 -88.5 -52.5t-48.5 -67.5zM154 475q0 -29 15 -47t46 -18t48 17t17 44
q0 28 -15.5 47t-46.5 19q-32 0 -48 -18.5t-16 -43.5z" />
    <glyph glyph-name="sevensuperior" unicode="&#x2077;" horiz-adv-x="354" 
d="M47 336l161 342l-179 -3q-4 12 -6 59t1 52q30 4 303 4l11 -97q-160 -384 -161 -384q-4 0 -29 3t-58 9.5t-43 14.5z" />
    <glyph glyph-name="eightsuperior" unicode="&#x2078;" horiz-adv-x="430" 
d="M32 451q0 39 24 69t57 45q-27 14 -47 40.5t-20 59.5q0 65 46.5 98.5t119.5 33.5q75 0 122 -34t47 -99q0 -33 -17 -59t-42 -38q32 -15 54.5 -46t22.5 -73q0 -66 -51 -103t-128 -37q-87 0 -137.5 35t-50.5 108zM212 615q55 0 55 41q0 46 -52 46q-57 0 -57 -44q0 -43 54 -43
zM154 461q0 -54 62 -54q32 0 48.5 13.5t16.5 36.5q0 25 -15.5 41t-47.5 16t-48 -15t-16 -38z" />
    <glyph glyph-name="ninesuperior" unicode="&#x2079;" horiz-adv-x="411" 
d="M235 504l-2 3q-30 -20 -75 -20q-54 0 -95 38t-41 112q0 80 50 122t129 42q71 0 124.5 -51t53.5 -150q0 -60 -22.5 -114.5t-55 -89.5t-63.5 -57t-54 -29q-9 0 -45 29.5t-41 44.5q49 18 89 52.5t48 67.5zM257 636q0 28 -15.5 46.5t-45.5 18.5q-31 0 -48 -17.5t-17 -44.5
t16 -46t46 -19q31 0 47.5 18.5t16.5 43.5z" />
    <glyph glyph-name="zeroinferior" unicode="&#x2080;" horiz-adv-x="444" 
d="M223 -132q-95 0 -141.5 59t-46.5 184t48.5 186t135.5 61q88 0 139 -60.5t51 -188.5q0 -119 -47.5 -180t-138.5 -61zM219 -22q35 0 50.5 29.5t15.5 95.5q0 140 -65 140q-68 0 -68 -135q0 -68 15.5 -99t51.5 -31z" />
    <glyph glyph-name="oneinferior" unicode="&#x2081;" horiz-adv-x="307" 
d="M254 -118q-5 -2 -61.5 -3.5t-60.5 2.5q-2 12 4 339q-1 -1 -3 -1.5t-8 -3.5l-12 -6t-14.5 -6.5t-15.5 -7t-14.5 -6.5t-13.5 -5l-10.5 -3.5t-5.5 -1.5q-4 1 -17 47t-11 49q9 9 86 43.5t91 38.5q15 -1 40 -6.5t30 -11.5q0 -430 -4 -457z" />
    <glyph glyph-name="twoinferior" unicode="&#x2082;" horiz-adv-x="380" 
d="M195 -7l1 -2l141 3q2 -2 3.5 -14.5t1.5 -29t-1 -32.5t-2.5 -27t-3.5 -11q-12 -1 -150 -1.5t-143 0.5q-3 2 -9.5 42t-4.5 51q23 25 64.5 65t63 62t40 49.5t18.5 47.5t-12.5 33.5t-37.5 13.5q-42 0 -72 -37q-11 7 -38 40.5t-26 40.5q1 8 16.5 24t54.5 32.5t88 16.5
q70 0 114 -37.5t44 -103.5q0 -53 -36 -102.5t-114 -123.5z" />
    <glyph glyph-name="threeinferior" unicode="&#x2083;" horiz-adv-x="389" 
d="M283 122v-4q23 -4 48.5 -31t25.5 -72q0 -69 -50 -106t-124 -37q-58 0 -100 18t-62 39q-2 7 21.5 41.5t36.5 40.5q33 -31 89 -31q31 0 46.5 13.5t15.5 33.5q0 44 -69 44h-59q-6 8 -6.5 51t6.5 48q7 0 32.5 -0.5t34.5 -0.5q21 0 37.5 9t16.5 31q0 21 -16 32.5t-40 11.5
q-41 0 -71 -28q-11 0 -67 73q56 62 155 62q71 0 115.5 -35.5t44.5 -95.5q0 -40 -19.5 -68t-41.5 -39z" />
    <glyph glyph-name="fourinferior" unicode="&#x2084;" horiz-adv-x="429" 
d="M342 -121q-62 -9 -113 4v82q-122 -5 -200 -1q-4 16 -8 49t-2 47q15 36 91.5 150.5t106.5 148.5q86 0 129 -15l-1 -281q47 0 60 -1v-94q0 -2 -64 -2q1 -86 1 -87zM237 211h-4q-81 -109 -99 -149l97 1z" />
    <glyph glyph-name="fiveinferior" unicode="&#x2085;" horiz-adv-x="395" 
d="M18 -68q2 12 23 52.5t25 40.5q1 0 16.5 -11t41 -22t52.5 -11q28 0 44.5 14t16.5 41q0 49 -55 52q-27 1 -65 -18l-62 36q0 45 6.5 132t14.5 113q7 3 127.5 5.5t140.5 -1.5q1 -102 -3 -103l-174 -5l-4 -73q22 11 64 11q62 0 100.5 -39t38.5 -108q0 -80 -50.5 -123
t-132.5 -43q-57 0 -106 21.5t-59 38.5z" />
    <glyph glyph-name="sixinferior" unicode="&#x2086;" horiz-adv-x="411" 
d="M175 169l2 -2q31 19 70 19q58 0 100.5 -38t42.5 -113q0 -80 -50.5 -121.5t-129.5 -41.5q-71 0 -124.5 50.5t-53.5 149.5q0 60 22.5 114.5t55 90t63.5 57.5t54 29q9 0 45 -29.5t40 -44.5q-48 -18 -88.5 -52.5t-48.5 -67.5zM154 37q0 -29 15 -47t46 -18t48 17t17 44
q0 28 -15.5 47t-46.5 19q-32 0 -48 -18.5t-16 -43.5z" />
    <glyph glyph-name="seveninferior" unicode="&#x2087;" horiz-adv-x="355" 
d="M47 -102l161 342l-179 -3q-4 12 -6 59t1 52q30 4 303 4l11 -97q-160 -384 -161 -384q-4 0 -29 3t-58 9.5t-43 14.5z" />
    <glyph glyph-name="eightinferior" unicode="&#x2088;" horiz-adv-x="431" 
d="M32 13q0 39 24 69t57 45q-27 14 -47 40.5t-20 59.5q0 65 46.5 98.5t119.5 33.5q75 0 122 -34t47 -99q0 -33 -17 -59t-42 -38q32 -15 54.5 -46t22.5 -73q0 -66 -51 -103t-128 -37q-87 0 -137.5 35t-50.5 108zM212 177q55 0 55 41q0 46 -52 46q-57 0 -57 -44q0 -43 54 -43z
M154 23q0 -54 62 -54q32 0 48.5 13.5t16.5 36.5q0 25 -15.5 41t-47.5 16t-48 -15t-16 -38z" />
    <glyph glyph-name="nineinferior" unicode="&#x2089;" horiz-adv-x="411" 
d="M235 66l-2 3q-30 -20 -75 -20q-54 0 -95 38t-41 112q0 80 50 122t129 42q71 0 124.5 -51t53.5 -150q0 -60 -22.5 -114.5t-55 -89.5t-63.5 -57t-54 -29q-9 0 -45 29.5t-41 44.5q49 18 89 52.5t48 67.5zM257 198q0 28 -15.5 46.5t-45.5 18.5q-31 0 -48 -17.5t-17 -44.5
t16 -46t46 -19q31 0 47.5 18.5t16.5 43.5z" />
    <glyph glyph-name="rupee" unicode="&#x20a8;" horiz-adv-x="593" 
d="M57 471l253 -1q-16 89 -131 89q-105 0 -124 -3q-7 8 -4 143q61 4 140 4q137 0 215 -61t86 -174h73q1 -1 1.5 -30.5t-0.5 -30.5t-76 -1q-11 -109 -108 -163q32 -42 65.5 -89t52.5 -77t17 -32q-9 -12 -71.5 -37.5t-84.5 -24.5q-1 0 -21.5 28.5t-58.5 82t-69 95.5
q-6 0 -18.5 -0.5t-18.5 -0.5q-48 0 -124 2q-3 32 -1.5 77.5t6.5 60.5q9 -1 134 -1q43 0 75.5 20.5t42.5 57.5q-115 -2 -247 -6q-4 1 -5 36t1 36z" />
    <glyph glyph-name="Euro" unicode="&#x20ac;" horiz-adv-x="667" 
d="M40 302h57q-2 36 -2 41q0 23 1 27q-43 0 -66 -1q-3 2 -0.5 36t5.5 36q11 0 34 -0.5t34 -0.5q23 122 108.5 196.5t213.5 74.5q71 0 126 -20t80 -45q0 -17 -23 -75.5t-38 -73.5q-71 49 -143 49q-49 0 -88 -29.5t-58 -79.5l178 -2q0 -3 -2.5 -31.5t-3.5 -29.5q-66 1 -189 0
q-1 -7 -1 -24q0 -24 3 -47q33 0 99.5 0.5t99.5 0.5q1 -1 1.5 -29.5t-0.5 -30.5q-1 -1 -180 -5q41 -88 132 -88q70 0 142 58q14 -11 37.5 -55.5t35.5 -74.5q-30 -39 -94 -67.5t-137 -28.5q-119 0 -193.5 67.5t-100.5 182.5q-20 0 -64 -2q-4 1 -5 35.5t1 35.5z" />
    <glyph glyph-name="afii61289" unicode="&#x2113;" horiz-adv-x="357" 
d="M278 125l58 -25q-1 -5 -3 -13t-13 -29t-26.5 -37t-45.5 -29t-67 -13q-62 0 -98.5 36t-36.5 98q0 68 25 173.5t82 304.5q17 64 -20 64q-24 0 -38.5 -32t-14.5 -75q0 -50 10 -84l-38 -21q-23 48 -23 115q0 84 45 129.5t118 45.5q57 0 90 -37t33 -101q0 -66 -55 -256.5
t-55 -227.5t31 -37q14 0 24.5 13t13.5 25z" />
    <glyph glyph-name="uni2117" unicode="&#x2117;" horiz-adv-x="855" 
d="M34 336q0 202 114.5 303.5t298.5 101.5q165 0 269 -105t104 -294q0 -72 -22.5 -138t-67 -121t-119.5 -88t-171 -33q-180 0 -293 102.5t-113 271.5zM107 336q0 -144 97 -226.5t237 -82.5q83 0 151 32t112 104t44 175q0 64 -18.5 123t-54.5 106.5t-94.5 76t-132.5 28.5
q-91 0 -159 -27.5t-106.5 -75.5t-57 -106.5t-18.5 -126.5zM408 154q-2 -3 -59.5 -3.5t-58.5 1.5q-3 18 -2.5 193.5t4.5 203.5q62 6 148 6t133.5 -38t47.5 -103q0 -145 -181 -145h-29v-43t-0.5 -49t-2.5 -23zM408 362q10 -1 38 -1q65 0 65 46q0 49 -70 49q-26 0 -33 -2v-92z
" />
    <glyph glyph-name="trademark" unicode="&#x2122;" horiz-adv-x="788" 
d="M549 499h3q48 189 59 199q4 3 43.5 4t46.5 -1q2 -2 25 -149t22 -159q-2 -4 -24 -7.5t-39.5 -4t-20.5 0.5l-23 190h-1q-44 -162 -53 -186q-6 -2 -39.5 -1.5t-35.5 2.5q-11 25 -49 186h-2q-4 -25 -13.5 -100.5t-12.5 -88.5q-13 -1 -49 3t-36 7q2 19 26 154.5t28 149.5
q2 5 40.5 5.5t46.5 -1.5q6 -10 27 -82.5t31 -120.5zM51 630q-3 10 -3 39.5t2 31.5q5 2 131 4.5t143 0.5q4 -1 5.5 -19.5t0.5 -36t-3 -17.5q-11 -2 -89 -4q0 -231 -1 -240q-2 -2 -48.5 -3.5t-46.5 1.5q-4 54 -2 243h-33.5h-35.5h-20z" />
    <glyph glyph-name="Omega" unicode="&#x2126;" horiz-adv-x="747" 
d="M338 -1l-265 -2q-8 7 -11.5 41t-3.5 64v31l99 7q-5 4 -13 10.5t-28.5 30t-36 50t-28.5 68.5t-13 87q0 153 98 239t237 86q166 0 252 -86.5t86 -224.5q0 -45 -13.5 -89t-33 -74t-39 -53.5t-33.5 -35.5l-13 -11l101 2l2 -139q-7 -5 -137 -2.5t-137 4.5q-3 1 -3 61t2 61
q54 31 95 96.5t41 137.5q0 95 -43 144.5t-125 49.5q-77 0 -120 -49t-43 -146q0 -82 37 -144t92 -89z" />
    <glyph glyph-name="estimated" unicode="&#x212e;" horiz-adv-x="775" 
d="M234 132q7 -7 21 -17.5t61 -28t99 -17.5q39 0 77 12t64.5 29t47 34.5t30.5 29.5l10 12q35 -17 61 -49q-3 -6 -10 -16t-33 -35t-56.5 -44t-82.5 -35t-110 -16q-105 0 -188 36.5t-136 119t-53 202.5q0 165 108 267t263 101q176 -1 272 -116.5t53 -275.5q-23 -8 -148.5 -8.5
t-239.5 3.5l-113 3q-2 -48 -1.5 -90.5t2.5 -71.5zM231 402q53 -4 134 -4t135 2l55 2q3 16 3 58.5t-2 77.5l-1 34q-10 24 -56 43.5t-96 19.5t-99.5 -18.5t-69.5 -43.5q-1 -11 -2 -28.5t-2 -66.5t1 -76z" />
    <glyph glyph-name="onethird" unicode="&#x2153;" horiz-adv-x="928" 
d="M265 241q-5 -2 -61.5 -3.5t-60.5 2.5q-2 12 4 339q-1 -1 -3 -1.5t-8 -3.5l-12 -6t-14.5 -6.5t-15.5 -7t-14.5 -6.5t-13.5 -5l-10.5 -3.5t-5.5 -1.5q-4 1 -17 47t-11 49q9 9 86 43.5t91 38.5q15 -1 40 -6.5t30 -11.5q0 -430 -4 -457zM219 33l87 171q86 170 172.5 339.5
t90.5 169.5q9 0 43.5 -15t32.5 -23q-4 -17 -169.5 -353.5t-177.5 -336.5q-7 3 -26.5 14.5t-36.5 22t-16 11.5zM819 237v-4q23 -4 48.5 -31t25.5 -72q0 -69 -50 -106t-124 -37q-58 0 -100 18t-62 39q-2 7 21.5 41.5t36.5 40.5q33 -31 89 -31q31 0 46.5 13.5t15.5 33.5
q0 44 -69 44h-59q-6 8 -6.5 51t6.5 48q7 0 32.5 -0.5t34.5 -0.5q21 0 37.5 9t16.5 31q0 21 -16 32.5t-40 11.5q-41 0 -71 -28q-11 0 -67 73q56 62 155 62q71 0 115.5 -35.5t44.5 -95.5q0 -40 -19.5 -68t-41.5 -39z" />
    <glyph glyph-name="twothirds" unicode="&#x2154;" horiz-adv-x="992" 
d="M288 33l86 171q87 170 173.5 339.5t90.5 169.5q9 0 43.5 -15t32.5 -23q-4 -17 -169.5 -353.5t-177.5 -336.5q-7 3 -26.5 14.5t-36.5 22t-16 11.5zM888 237v-4q23 -4 48.5 -31t25.5 -72q0 -69 -50 -106t-124 -37q-58 0 -100 18t-62 39q-2 7 21.5 41.5t36.5 40.5
q33 -31 89 -31q31 0 46.5 13.5t15.5 33.5q0 44 -69 44h-59q-6 8 -6.5 51t6.5 48q7 0 32.5 -0.5t34.5 -0.5q21 0 37.5 9t16.5 31q0 21 -16 32.5t-40 11.5q-41 0 -71 -28q-11 0 -67 73q56 62 155 62q71 0 115.5 -35.5t44.5 -95.5q0 -40 -19.5 -68t-41.5 -39zM200 352l1 -2
l141 3q2 -2 3.5 -14.5t1.5 -29t-1 -32.5t-2.5 -27t-3.5 -11q-12 -1 -150 -1.5t-143 0.5q-3 2 -9.5 42t-4.5 51q23 25 64.5 65t63 62t40 49.5t18.5 47.5t-12.5 33.5t-37.5 13.5q-42 0 -72 -37q-11 7 -38 40.5t-26 40.5q1 8 16.5 24t54.5 32.5t88 16.5q70 0 114 -37.5
t44 -103.5q0 -53 -36 -102.5t-114 -123.5z" />
    <glyph glyph-name="oneeighth" unicode="&#x215b;" horiz-adv-x="940" 
d="M265 241q-5 -2 -61.5 -3.5t-60.5 2.5q-2 12 4 339q-1 -1 -3 -1.5t-8 -3.5l-12 -6t-14.5 -6.5t-15.5 -7t-14.5 -6.5t-13.5 -5l-10.5 -3.5t-5.5 -1.5q-4 1 -17 47t-11 49q9 9 86 43.5t91 38.5q15 -1 40 -6.5t30 -11.5q0 -430 -4 -457zM219 33l87 171q86 170 172.5 339.5
t90.5 169.5q9 0 43.5 -15t32.5 -23q-4 -17 -169.5 -353.5t-177.5 -336.5q-7 3 -26.5 14.5t-36.5 22t-16 11.5zM540 129q0 39 24 69t57 45q-27 14 -47 40.5t-20 59.5q0 65 46.5 98.5t119.5 33.5q75 0 122 -34t47 -99q0 -33 -17 -59t-42 -38q32 -15 54.5 -46t22.5 -73
q0 -66 -51 -103t-128 -37q-87 0 -137.5 35t-50.5 108zM720 293q55 0 55 41q0 46 -52 46q-57 0 -57 -44q0 -43 54 -43zM662 139q0 -54 62 -54q32 0 48.5 13.5t16.5 36.5q0 25 -15.5 41t-47.5 16t-48 -15t-16 -38z" />
    <glyph glyph-name="threeeighths" unicode="&#x215c;" horiz-adv-x="1006" 
d="M288 33l86 171q87 170 173.5 339.5t90.5 169.5q9 0 43.5 -15t32.5 -23q-4 -17 -169.5 -353.5t-177.5 -336.5q-7 3 -26.5 14.5t-36.5 22t-16 11.5zM291 484v-4q23 -4 48.5 -31t25.5 -72q0 -69 -50 -106t-124 -37q-58 0 -100 18t-62 39q-2 7 21.5 41.5t36.5 40.5
q33 -31 89 -31q31 0 46.5 13.5t15.5 33.5q0 44 -69 44h-59q-6 8 -6.5 51t6.5 48q7 0 32.5 -0.5t34.5 -0.5q21 0 37.5 9t16.5 31q0 21 -16 32.5t-40 11.5q-41 0 -71 -28q-11 0 -67 73q56 62 155 62q71 0 115.5 -35.5t44.5 -95.5q0 -40 -19.5 -68t-41.5 -39zM609 129
q0 39 24 69t57 45q-27 14 -47 40.5t-20 59.5q0 65 46.5 98.5t119.5 33.5q75 0 122 -34t47 -99q0 -33 -17 -59t-42 -38q32 -15 54.5 -46t22.5 -73q0 -66 -51 -103t-128 -37q-87 0 -137.5 35t-50.5 108zM789 293q55 0 55 41q0 46 -52 46q-57 0 -57 -44q0 -43 54 -43zM731 139
q0 -54 62 -54q32 0 48.5 13.5t16.5 36.5q0 25 -16 41t-47 16q-32 0 -48 -15t-16 -38z" />
    <glyph glyph-name="fiveeighths" unicode="&#x215d;" horiz-adv-x="1014" 
d="M295 33l87 171q86 170 172.5 339.5t90.5 169.5q9 0 43.5 -15t32.5 -23q-4 -17 -169.5 -353.5t-177.5 -336.5q-7 3 -26.5 14.5t-36.5 22t-16 11.5zM616 129q0 39 24 69t57 45q-27 14 -47 40.5t-20 59.5q0 65 46.5 98.5t119.5 33.5q75 0 122 -34t47 -99q0 -33 -17 -59
t-42 -38q32 -15 54.5 -46t22.5 -73q0 -66 -51 -103t-128 -37q-87 0 -137.5 35t-50.5 108zM796 293q55 0 55 41q0 46 -52 46q-57 0 -57 -44q0 -43 54 -43zM738 139q0 -54 62 -54q32 0 48.5 13.5t16.5 36.5q0 25 -15.5 41t-47.5 16t-48 -15t-16 -38zM26 290q2 12 23 52.5
t25 40.5q1 0 16.5 -11t41 -22t52.5 -11q28 0 44.5 14t16.5 41q0 49 -55 52q-27 1 -65 -18l-62 36q0 45 6.5 132t14.5 113q7 3 127.5 5.5t140.5 -1.5q1 -102 -3 -103l-174 -5l-4 -73q22 11 64 11q62 0 100.5 -39t38.5 -108q0 -80 -50.5 -123t-132.5 -43q-57 0 -106 21.5
t-59 38.5z" />
    <glyph glyph-name="seveneighths" unicode="&#x215e;" horiz-adv-x="915" 
d="M198 33l86 171q87 170 173.5 339.5t90.5 169.5q9 0 43.5 -15t32.5 -23q-4 -17 -169.5 -353.5t-177.5 -336.5q-7 3 -26.5 14.5t-36.5 22t-16 11.5zM518 129q0 39 24 69t57 45q-27 14 -47 40.5t-20 59.5q0 65 46.5 98.5t119.5 33.5q75 0 122 -34t47 -99q0 -33 -17 -59
t-42 -38q32 -15 54.5 -46t22.5 -73q0 -66 -51 -103t-128 -37q-87 0 -137.5 35t-50.5 108zM698 293q55 0 55 41q0 46 -52 46q-57 0 -57 -44q0 -43 54 -43zM640 139q0 -54 62 -54q32 0 48.5 13.5t16.5 36.5q0 25 -15.5 41t-47.5 16t-48 -15t-16 -38zM53 258l161 342l-179 -3
q-4 12 -6 59t1 52q30 4 303 4l11 -97q-160 -384 -161 -384q-4 0 -29 3t-58 9.5t-43 14.5z" />
    <glyph glyph-name="arrowleft" unicode="&#x2190;" horiz-adv-x="734" 
d="M299 -11q-5 2 -134 149.5t-129 160.5q0 11 127.5 157t136.5 153q3 3 41 -24.5t38 -30.5q0 -1 -28 -37t-66.5 -84t-53.5 -68q82 3 251 4.5t196 -0.5q10 -9 13 -65t-2 -56q-3 -2 -190.5 -5.5t-267.5 -3.5q15 -20 53 -68t66 -83t28 -37q0 -5 -38 -34t-41 -28z" />
    <glyph glyph-name="arrowup" unicode="&#x2191;" horiz-adv-x="714" 
d="M45 364q2 5 150 134t161 129q11 0 157 -127.5t153 -136.5q3 -3 -24.5 -41t-30.5 -38t-189 148q3 -82 4.5 -251t-0.5 -196q-6 -7 -37 -11t-55 -3t-29 2q-1 3 -5 187t-5 272q-18 -14 -66.5 -53t-83.5 -66.5t-37 -27.5q-5 0 -34.5 38t-28.5 41z" />
    <glyph glyph-name="arrowright" unicode="&#x2192;" horiz-adv-x="734" 
d="M430 609q5 -2 134 -150t129 -161q0 -11 -127.5 -156.5t-136.5 -152.5q-3 -3 -40.5 24t-37.5 30q0 2 148 188q-402 -7 -448 -2q-7 6 -11 36.5t-3 54.5t2 29q3 2 191 5.5t268 3.5q-12 15 -52 66t-67 85.5t-27 36.5q0 5 37.5 34.5t40.5 28.5z" />
    <glyph glyph-name="arrowdown" unicode="&#x2193;" horiz-adv-x="714" 
d="M664 232q-2 -5 -149.5 -133.5t-160.5 -128.5q-11 0 -157 127.5t-153 136.5q-3 3 24.5 40.5t30.5 37.5l36 -28q36 -29 84 -66.5t69 -53.5q-3 82 -4.5 251.5t0.5 196.5q9 10 64.5 13t55.5 -2q2 -3 6 -191.5t4 -266.5q19 14 67.5 52.5t83.5 66t37 27.5q5 0 34 -38t28 -41z
" />
    <glyph glyph-name="uni2196" unicode="&#x2196;" horiz-adv-x="734" 
d="M99 126q-2 6 11 200.5t23 204.5q8 8 201.5 21t204.5 11q4 -1 11.5 -46.5t4.5 -47.5q0 -1 -44.5 -6.5t-107 -12.5t-85.5 -10q54 -51 176.5 -171.5t141.5 -141.5q1 -13 -36 -54.5t-42 -40.5q-2 1 -67.5 63.5t-146.5 141t-116 114.5q-3 -23 -10 -85t-12.5 -106.5t-6.5 -45.5
q-4 -3 -51 3t-49 9z" />
    <glyph glyph-name="uni2197" unicode="&#x2197;" horiz-adv-x="714" 
d="M180 564q6 2 201 -11t205 -23q8 -8 21 -201.5t11 -204.5q-1 -4 -46.5 -11.5t-47.5 -5.5q-1 1 -6.5 46t-12.5 107t-10 86q-55 -59 -174 -180.5t-139 -138.5q-13 -1 -54.5 35.5t-39.5 41.5q1 4 130.5 139t187.5 192q-23 3 -85 10t-106.5 12.5t-45.5 6.5q-3 3 2.5 51t8.5 49
z" />
    <glyph glyph-name="uni2198" unicode="&#x2198;" horiz-adv-x="734" 
d="M630 472q2 -6 -11 -201t-23 -205q-8 -8 -201.5 -21t-203.5 -11q-5 1 -12.5 46t-4.5 48l46 6q45 5 106 12.5t86 10.5q-64 60 -183.5 177.5t-135.5 136.5q-1 13 35.5 54t41.5 39q3 -2 139 -132t192 -185q3 20 10 83.5t12.5 107t7.5 44.5q3 4 50 -1.5t49 -8.5z" />
    <glyph glyph-name="uni2199" unicode="&#x2199;" horiz-adv-x="714" 
d="M528 33q-1 -1 -98.5 4.5t-198 14t-107.5 14.5q-8 8 -21 201.5t-11 204.5q1 4 46 11.5t48 5.5q0 -18 28 -239q52 57 172.5 179.5t141.5 140.5q13 1 54 -35.5t39 -41.5q0 -2 -63 -68t-140.5 -147t-113.5 -116q20 -3 84 -10.5t107.5 -13t44.5 -6.5q3 -3 -3 -50.5t-9 -48.5z
" />
    <glyph glyph-name="partialdiff" unicode="&#x2202;" horiz-adv-x="564" 
d="M332 416l3 4q-12 56 -71.5 110.5t-133.5 81.5q6 21 55.5 62t63.5 41q27 -8 61 -29t74 -59t72.5 -85.5t54 -115t21.5 -140.5q0 -75 -22.5 -134t-60 -93.5t-81.5 -52t-91 -17.5q-113 0 -184.5 61.5t-71.5 179.5q0 110 60.5 166t143.5 56q58 0 107 -36zM362 232
q0 40 -24.5 69.5t-72.5 29.5q-46 0 -69.5 -30.5t-23.5 -74.5q0 -43 25.5 -71t72.5 -28q46 0 69 29.5t23 75.5z" />
    <glyph glyph-name="Delta" unicode="&#x2206;" horiz-adv-x="665" 
d="M16 5q0 2 135 350t136 348l99 2q0 -2 68.5 -174.5t133 -346t58.5 -184.5q-6 -12 -318 -12t-312 17zM207 122q6 -2 124 -1t118 4q0 2 -28.5 83t-58 165.5t-31.5 91.5q1 0 -31 -84.5t-63.5 -170.5t-29.5 -88z" />
    <glyph glyph-name="product" unicode="&#x220f;" horiz-adv-x="749" 
d="M678 -212q-3 -14 -90 -13t-88 9q0 634 -1 752q-129 -2 -247 0q0 -647 -4 -751q-26 -7 -102 -8t-78 6q-4 50 -7 453.5t3 462.5q1 9 275 9t343 -10q6 -1 5 -431t-9 -479z" />
    <glyph glyph-name="summation" unicode="&#x2211;" horiz-adv-x="547" 
d="M423 284l-2 -36l-191 -315q217 5 270 1q6 -26 5.5 -81t-5.5 -69q4 -2 -96 -3.5t-218 -0.5t-156 5v115q0 25 220 361q-49 71 -131.5 198.5t-83.5 142.5q-1 10 0 48.5t2 47.5q68 4 267.5 5.5t207.5 -2.5q5 -13 5.5 -70.5t-4.5 -81.5q-21 -2 -118 -2.5t-158 1.5z" />
    <glyph glyph-name="minus" unicode="&#x2212;" horiz-adv-x="516" 
d="M459 254l-397 -5q-2 2 -5 23.5t-4.5 42t-0.5 20.5l411 4q1 -81 -4 -85z" />
    <glyph glyph-name="uni2215" unicode="&#x2215;" horiz-adv-x="403" 
d="M-13 33l87 171q86 170 172.5 339.5t90.5 169.5q9 0 43.5 -15t32.5 -23q-4 -17 -169 -353.5t-177 -336.5q-7 3 -26.5 14.5t-37 22t-16.5 11.5z" />
    <glyph glyph-name="uni2219" unicode="&#x2219;" horiz-adv-x="285" 
d="M249 292q0 -52 -31.5 -80.5t-89.5 -27.5q-37 2 -65.5 31.5t-28.5 73.5q0 53 31 82.5t89 25.5q40 -2 67.5 -27t27.5 -78z" />
    <glyph glyph-name="radical" unicode="&#x221a;" horiz-adv-x="594" 
d="M238 -55l-152 358q-70 2 -76 3q-1 0 -2 6.5t-1 16t0.5 21.5t1 23.5t0.5 20.5t1 15v6q103 5 148 0l120 -276q219 661 223 665q2 3 46 -7t51 -14q4 -2 -63.5 -212t-136.5 -419l-70 -209z" />
    <glyph glyph-name="infinity" unicode="&#x221e;" horiz-adv-x="685" 
d="M480 115q-97 0 -139 62q-44 -62 -127 -62q-79 0 -125 44.5t-46 134.5q0 87 48 130.5t122 43.5q85 0 129 -61q46 61 137 61q73 0 118 -46t45 -129q0 -74 -41.5 -126t-120.5 -52zM207 221q28 0 46.5 17t18.5 51t-15 57t-45 23q-66 0 -66 -80q0 -34 18 -51t43 -17zM473 221
q29 0 47 16.5t18 51.5q0 34 -14.5 57t-44.5 23q-66 0 -66 -80q0 -34 17.5 -51t42.5 -17z" />
    <glyph glyph-name="integral" unicode="&#x222b;" horiz-adv-x="621" 
d="M189 -10q88 579 92 597q31 166 195 166q59 0 98.5 -16t57.5 -34q-6 -22 -28 -70.5t-27 -46.5q-1 1 -13 6.5t-18 8t-18 5.5t-25 3q-30 0 -48.5 -20.5t-23.5 -49.5q-10 -62 -38 -256t-46 -298q-17 -105 -63.5 -157t-138.5 -52q-59 0 -98.5 16t-57.5 34q6 22 28 70.5
t27 46.5q45 -24 74 -24q30 0 48.5 20.5t22.5 50.5z" />
    <glyph glyph-name="approxequal" unicode="&#x2248;" horiz-adv-x="517" 
d="M84 321q-1 -1 -6 4.5t-11.5 15t-12.5 19t-10.5 17t-4.5 8.5q0 4 16.5 17t49.5 27t66 14q34 0 89 -29t81 -29q47 0 81 42q7 -4 29.5 -29t22.5 -27q0 -3 -17 -20.5t-52 -36.5t-71 -19q-46 0 -100.5 28t-74.5 28q-35 0 -75 -30zM88 144q-3 -2 -24 29t-21 35t16.5 17t49 27
t65.5 14q34 0 89 -28.5t81 -28.5q47 0 81 41q7 -3 30 -27.5t23 -26.5q0 -3 -17.5 -21t-52.5 -37t-71 -19q-46 0 -100 28t-74 28q-17 0 -36 -7.5t-27 -13.5t-12 -10z" />
    <glyph glyph-name="notequal" unicode="&#x2260;" horiz-adv-x="489" 
d="M39 347q-7 1 -6 72q0 11 1 10q144 0 261 -2q39 69 56 90q3 4 18 -3t28 -16l13 -9l-37 -66q63 -2 69 -9q5 -10 2.5 -26.5t-7 -32t-5.5 -16.5t-107 1l-60 -107q88 2 113.5 2.5t50.5 -0.5q0 -4 -4 -52t-5 -48q-11 0 -209 2l-55 -97l-51 24q1 4 35 75q-82 3 -83 5
q-4 4 -9.5 40t-0.5 40l141 6l59 112q-45 1 -96.5 2t-81.5 2z" />
    <glyph glyph-name="lessequal" unicode="&#x2264;" horiz-adv-x="505" 
d="M51 335q-9 0 -9 83q0 4 191.5 82t195.5 74q5 -4 18 -39.5t11 -39.5q-2 -3 -137 -63l-135 -59q-1 -1 63 -25.5t129 -48.5t67 -24t-4.5 -20.5t-14.5 -41.5t-10 -24q-2 -2 -91.5 34.5t-180 74t-93.5 37.5zM455 54l-404 -6q-2 2 -5 23.5t-4.5 42.5t-0.5 21l418 4
q1 -81 -4 -85z" />
    <glyph glyph-name="greaterequal" unicode="&#x2265;" horiz-adv-x="514" 
d="M459 54l-405 -6q-2 2 -5 23.5t-4.5 42.5t-0.5 21l419 4q1 -81 -4 -85zM91 173q-2 2 -9.5 23.5t-14 42t-4.5 20.5t74.5 28.5t143.5 57t70 29.5l-148 63q-148 63 -150 66q-2 4 10.5 39t17.5 39q4 4 197.5 -72.5t193.5 -81.5q0 -1 0.5 -10.5t1.5 -21t1 -23.5t-1 -20t-3 -8
q-3 0 -97.5 -44t-187.5 -86.5t-95 -40.5z" />
    <glyph glyph-name="lozenge" unicode="&#x25ca;" horiz-adv-x="649" 
d="M301 -37q0 2 -70.5 96t-140.5 187l-70 93q11 36 126 214t127 190q7 6 38.5 3t34.5 -7l30 -39q30 -40 71 -95t82.5 -112.5t70 -102.5t28.5 -56q2 -6 -62.5 -98t-130.5 -181l-66 -89q-17 -2 -34 -3.5t-34 0.5zM331 160q0 -1 13 18t31 46.5t37 55t32.5 47.5t14.5 21
q1 0 -34.5 50t-73 100t-38.5 50q-4 0 -64 -97t-58 -101q6 -8 73 -98t67 -92z" />
    <glyph glyph-name="commaaccent" unicode="&#xf6c3;" 
d="M338 -139q0 -80 -64 -176q-1 -2 -17 1.5t-34 11.5t-24 16q-1 1 4.5 12t15.5 28t14 26q-30 3 -51.5 25t-21.5 54q0 41 26 63.5t73 19.5q34 -2 56.5 -21t22.5 -60z" />
    <glyph glyph-name="uniF8FF" unicode="&#xf8ff;" horiz-adv-x="612" 
d="M50 720h512v-720h-512v720zM266 283h48q0 26 14 47t34 36t40 29.5t34 36t14 48.5q0 51 -36.5 85t-101.5 34q-39 0 -67 -14.5t-41.5 -37t-19 -43.5t-5.5 -41h47q0 40 21 66.5t65 26.5q41 0 64 -21.5t23 -54.5q0 -23 -21 -45t-45.5 -38t-45.5 -46t-21 -68zM255 194v-71h68
v71h-68z" />
    <glyph glyph-name="commaaccent.alt" 
d="M160 643q0 77 64 176q1 2 17 -1.5t34.5 -11.5t24.5 -17q0 -1 -5.5 -11.5t-15 -27t-14.5 -26.5q31 -4 52 -25.5t21 -53.5q0 -42 -25.5 -64t-73.5 -20q-33 2 -56 21.5t-23 60.5z" />
    <glyph glyph-name="zero.denom" horiz-adv-x="444" 
d="M223 -12q-95 0 -141.5 59t-46.5 184t48.5 186t135.5 61q88 0 139 -60.5t51 -188.5q0 -119 -47.5 -180t-138.5 -61zM219 98q35 0 50.5 29.5t15.5 95.5q0 140 -65 140q-68 0 -68 -135q0 -68 15.5 -99t51.5 -31z" />
    <glyph glyph-name="one.denom" horiz-adv-x="307" 
d="M254 2q-5 -2 -61.5 -3.5t-60.5 2.5q-2 12 4 339q-1 -1 -3 -1.5t-8 -3.5l-12 -6t-14.5 -6.5t-15.5 -7t-14.5 -6.5t-13.5 -5l-10.5 -3.5t-5.5 -1.5q-4 1 -17 47t-11 49q9 9 86 43.5t91 38.5q15 -1 40 -6.5t30 -11.5q0 -430 -4 -457z" />
    <glyph glyph-name="two.denom" horiz-adv-x="380" 
d="M195 113l1 -2l141 3q2 -2 3.5 -14.5t1.5 -29t-1 -32.5t-2.5 -27t-3.5 -11q-12 -1 -150 -1.5t-143 0.5q-3 2 -9.5 42t-4.5 51q23 25 64.5 65t63 62t40 49.5t18.5 47.5t-12.5 33.5t-37.5 13.5q-42 0 -72 -37q-11 7 -38 40.5t-26 40.5q1 8 16.5 24t54.5 32.5t88 16.5
q70 0 114 -37.5t44 -103.5q0 -53 -36 -102.5t-114 -123.5z" />
    <glyph glyph-name="three.denom" horiz-adv-x="389" 
d="M283 242v-4q23 -4 48.5 -31t25.5 -72q0 -69 -50 -106t-124 -37q-58 0 -100 18t-62 39q-2 7 21.5 41.5t36.5 40.5q33 -31 89 -31q31 0 46.5 13.5t15.5 33.5q0 44 -69 44h-59q-6 8 -6.5 51t6.5 48q7 0 32.5 -0.5t34.5 -0.5q21 0 37.5 9t16.5 31q0 21 -16 32.5t-40 11.5
q-41 0 -71 -28q-11 0 -67 73q56 62 155 62q71 0 115.5 -35.5t44.5 -95.5q0 -40 -19.5 -68t-41.5 -39z" />
    <glyph glyph-name="four.denom" horiz-adv-x="429" 
d="M342 -1q-62 -9 -113 4v82q-122 -5 -200 -1q-4 16 -8 49t-2 47q15 36 91.5 150.5t106.5 148.5q86 0 129 -15l-1 -281q47 0 60 -1v-94q0 -2 -64 -2q1 -86 1 -87zM237 331h-4q-81 -109 -99 -149l97 1z" />
    <glyph glyph-name="five.denom" horiz-adv-x="395" 
d="M18 52q2 12 23 52.5t25 40.5q1 0 16.5 -11t41 -22t52.5 -11q28 0 44.5 14t16.5 41q0 49 -55 52q-27 1 -65 -18l-62 36q0 45 6.5 132t14.5 113q7 3 127.5 5.5t140.5 -1.5q1 -102 -3 -103l-174 -5l-4 -73q22 11 64 11q62 0 100.5 -39t38.5 -108q0 -80 -50.5 -123
t-132.5 -43q-57 0 -106 21.5t-59 38.5z" />
    <glyph glyph-name="six.denom" horiz-adv-x="411" 
d="M175 289l2 -2q31 19 70 19q58 0 100.5 -38t42.5 -113q0 -80 -50.5 -121.5t-129.5 -41.5q-71 0 -124.5 50.5t-53.5 149.5q0 60 22.5 114.5t55 90t63.5 57.5t54 29q9 0 45 -29.5t40 -44.5q-48 -18 -88.5 -52.5t-48.5 -67.5zM154 157q0 -29 15 -47t46 -18t48 17t17 44
q0 28 -15.5 47t-46.5 19q-32 0 -48 -18.5t-16 -43.5z" />
    <glyph glyph-name="seven.denom" horiz-adv-x="355" 
d="M47 18l161 342l-179 -3q-4 12 -6 59t1 52q30 4 303 4l11 -97q-160 -384 -161 -384q-4 0 -29 3t-58 9.5t-43 14.5z" />
    <glyph glyph-name="eight.denom" horiz-adv-x="431" 
d="M32 133q0 39 24 69t57 45q-27 14 -47 40.5t-20 59.5q0 65 46.5 98.5t119.5 33.5q75 0 122 -34t47 -99q0 -33 -17 -59t-42 -38q32 -15 54.5 -46t22.5 -73q0 -66 -51 -103t-128 -37q-87 0 -137.5 35t-50.5 108zM212 297q55 0 55 41q0 46 -52 46q-57 0 -57 -44q0 -43 54 -43
zM154 143q0 -54 62 -54q32 0 48.5 13.5t16.5 36.5q0 25 -15.5 41t-47.5 16t-48 -15t-16 -38z" />
    <glyph glyph-name="nine.denom" horiz-adv-x="411" 
d="M235 186l-2 3q-30 -20 -75 -20q-54 0 -95 38t-41 112q0 80 50 122t129 42q71 0 124.5 -51t53.5 -150q0 -60 -22.5 -114.5t-55 -89.5t-63.5 -57t-54 -29q-9 0 -45 29.5t-41 44.5q49 18 89 52.5t48 67.5zM257 318q0 28 -15.5 46.5t-45.5 18.5q-31 0 -48 -17.5t-17 -44.5
t16 -46t46 -19q31 0 47.5 18.5t16.5 43.5z" />
    <glyph glyph-name="zero.num" horiz-adv-x="444" 
d="M223 216q-95 0 -141.5 59t-46.5 184t48.5 186t135.5 61q88 0 139 -60.5t51 -188.5q0 -119 -47.5 -180t-138.5 -61zM219 326q35 0 50.5 29.5t15.5 95.5q0 140 -65 140q-68 0 -68 -135q0 -68 15.5 -99t51.5 -31z" />
    <glyph glyph-name="one.num" horiz-adv-x="307" 
d="M254 230q-5 -2 -61.5 -3.5t-60.5 2.5q-2 12 4 339q-1 -1 -3 -1.5t-8 -3.5l-12 -6t-14.5 -6.5t-15.5 -7t-14.5 -6.5t-13.5 -5l-10.5 -3.5t-5.5 -1.5q-4 1 -17 47t-11 49q9 9 86 43.5t91 38.5q15 -1 40 -6.5t30 -11.5q0 -430 -4 -457z" />
    <glyph glyph-name="two.num" horiz-adv-x="380" 
d="M195 341l1 -2l141 3q2 -2 3.5 -14.5t1.5 -29t-1 -32.5t-2.5 -27t-3.5 -11q-12 -1 -150 -1.5t-143 0.5q-3 2 -9.5 42t-4.5 51q23 25 64.5 65t63 62t40 49.5t18.5 47.5t-12.5 33.5t-37.5 13.5q-42 0 -72 -37q-11 7 -38 40.5t-26 40.5q1 8 16.5 24t54.5 32.5t88 16.5
q70 0 114 -37.5t44 -103.5q0 -53 -36 -102.5t-114 -123.5z" />
    <glyph glyph-name="three.num" horiz-adv-x="389" 
d="M283 470v-4q23 -4 48.5 -31t25.5 -72q0 -69 -50 -106t-124 -37q-58 0 -100 18t-62 39q-2 7 21.5 41.5t36.5 40.5q33 -31 89 -31q31 0 46.5 13.5t15.5 33.5q0 44 -69 44h-59q-6 8 -6.5 51t6.5 48q7 0 32.5 -0.5t34.5 -0.5q21 0 37.5 9t16.5 31q0 21 -16 32.5t-40 11.5
q-41 0 -71 -28q-11 0 -67 73q56 62 155 62q71 0 115.5 -35.5t44.5 -95.5q0 -40 -19.5 -68t-41.5 -39z" />
    <glyph glyph-name="four.num" horiz-adv-x="429" 
d="M342 227q-62 -9 -113 4v82q-122 -5 -200 -1q-4 16 -8 49t-2 47q15 36 91.5 150.5t106.5 148.5q86 0 129 -15l-1 -281q47 0 60 -1v-94q0 -2 -64 -2q1 -86 1 -87zM237 559h-4q-81 -109 -99 -149l97 1z" />
    <glyph glyph-name="five.num" horiz-adv-x="397" 
d="M19 280q2 12 23 52.5t25 40.5q1 0 16.5 -11t41 -22t52.5 -11q28 0 44.5 14t16.5 41q0 49 -55 52q-27 1 -65 -18l-62 36q0 45 6.5 132t14.5 113q7 3 127.5 5.5t140.5 -1.5q1 -102 -3 -103l-174 -5l-4 -73q22 11 64 11q62 0 100.5 -39t38.5 -108q0 -80 -50.5 -123
t-132.5 -43q-57 0 -106 21.5t-59 38.5z" />
    <glyph glyph-name="six.num" horiz-adv-x="411" 
d="M175 517l2 -2q31 19 70 19q58 0 100.5 -38t42.5 -113q0 -80 -50.5 -121.5t-129.5 -41.5q-71 0 -124.5 50.5t-53.5 149.5q0 60 22.5 114.5t55 90t63.5 57.5t54 29q9 0 45 -29.5t40 -44.5q-48 -18 -88.5 -52.5t-48.5 -67.5zM154 385q0 -29 15 -47t46 -18t48 17t17 44
q0 28 -15.5 47t-46.5 19q-32 0 -48 -18.5t-16 -43.5z" />
    <glyph glyph-name="seven.num" horiz-adv-x="354" 
d="M47 246l161 342l-179 -3q-4 12 -6 59t1 52q30 4 303 4l11 -97q-160 -384 -161 -384q-4 0 -29 3t-58 9.5t-43 14.5z" />
    <glyph glyph-name="eight.num" horiz-adv-x="431" 
d="M32 361q0 39 24 69t57 45q-27 14 -47 40.5t-20 59.5q0 65 46.5 98.5t119.5 33.5q75 0 122 -34t47 -99q0 -33 -17 -59t-42 -38q32 -15 54.5 -46t22.5 -73q0 -66 -51 -103t-128 -37q-87 0 -137.5 35t-50.5 108zM212 525q55 0 55 41q0 46 -52 46q-57 0 -57 -44q0 -43 54 -43
zM154 371q0 -54 62 -54q32 0 48.5 13.5t16.5 36.5q0 25 -15.5 41t-47.5 16t-48 -15t-16 -38z" />
    <glyph glyph-name="nine.num" horiz-adv-x="411" 
d="M235 414l-2 3q-30 -20 -75 -20q-54 0 -95 38t-41 112q0 80 50 122t129 42q71 0 124.5 -51t53.5 -150q0 -60 -22.5 -114.5t-55 -89.5t-63.5 -57t-54 -29q-9 0 -45 29.5t-41 44.5q49 18 89 52.5t48 67.5zM257 546q0 28 -15.5 46.5t-45.5 18.5q-31 0 -48 -17.5t-17 -44.5
t16 -46t46 -19q31 0 47.5 18.5t16.5 43.5z" />
    <glyph glyph-name="parenleft.case" horiz-adv-x="384" 
d="M333 -72q-3 0 -18 3.5t-43.5 15.5t-59 30t-64 52.5t-59 78t-42.5 110.5t-17 147q0 79 17 145t44.5 108.5t61 75t67 49.5t61 27t44.5 13t18 2q5 -9 10 -49.5t5 -51.5q0 -2 -11.5 -4.5t-29.5 -9.5t-40 -19t-44 -35.5t-40 -55.5t-29.5 -83.5t-11.5 -114.5q0 -62 12 -114
t31 -85t42 -58t46.5 -38t42.5 -21t31 -11l12 -3q-1 -16 -9.5 -41.5t-16.5 -44t-10 -18.5z" />
    <glyph glyph-name="parenright.case" horiz-adv-x="384" 
d="M50 787q3 0 18 -3.5t43.5 -15.5t59 -30t64 -52.5t59 -78t42.5 -110.5t17 -147q0 -79 -17 -145t-44.5 -108.5t-61 -75t-67 -49.5t-61 -27t-44.5 -13t-18 -2q-5 9 -14 52t-9 50q0 1 22 6.5t53.5 22.5t63 47.5t53.5 94t22 150.5q0 62 -11.5 114t-30 85t-40.5 58.5t-44 38.5
t-40.5 21t-30.5 11l-11 3q2 16 8 41.5t11.5 43.5t7.5 18z" />
    <glyph glyph-name="hyphen.case" horiz-adv-x="403" 
d="M348 405q3 -14 2.5 -40.5t-2.5 -53t-3 -26.5q-3 -1 -135.5 -4t-145.5 -1q-9 8 -12.5 63t0.5 55q4 2 148.5 7t147.5 0z" />
    <glyph glyph-name="bracketleft.case" horiz-adv-x="378" 
d="M197 18l154 -4q1 -106 -3 -108h-22t-52 1t-67.5 2t-67 2t-51.5 1l-21 1l-5 856l289 4q1 0 1.5 -26.5t0.5 -49.5t-1 -28q-2 -1 -74 -3.5t-82 -1.5q-6 -6 1 -643v-3z" />
    <glyph glyph-name="bracketright.case" horiz-adv-x="373" 
d="M28 23q10 0 26 -1t49.5 -2t56.5 -2h22v22q1 23 1.5 60t1 86t1 102t1 107t1 102t0 85.5t-1 59.5t-1.5 22q-152 0 -158 4q-1 5 -1 28t0.5 49t1.5 26l293 -2q-24 -856 -25 -856q-261 0 -265 2q-1 1 -2 12t-1 27v31.5v26.5v11z" />
    <glyph glyph-name="braceleft.case" horiz-adv-x="333" 
d="M153 341v-3q30 -10 57 -35t27 -62q0 -33 -19.5 -90t-19.5 -82q0 -38 22.5 -52t76.5 -14q2 -8 2.5 -33t0 -46.5t-1.5 -21.5q-109 0 -163.5 33.5t-54.5 111.5q0 27 18 81.5t18 92.5q0 57 -92 59q-4 0 -6 28.5t-1.5 57t3.5 28.5q63 0 87 10.5t24 45.5q0 10 -15.5 73.5
t-15.5 92.5q0 85 55 125.5t148 40.5q5 -12 6 -37t-1 -45t-5 -20q-101 0 -101 -78q0 -22 17.5 -81t17.5 -83q0 -36 -27.5 -64t-56.5 -33z" />
    <glyph glyph-name="bar.case" horiz-adv-x="201" 
d="M71 -163q-2 8 -7 480.5t-2 476.5q4 5 23 7t36.5 1t17.5 -2v-958l-52 -8q-15 -1 -16 3z" />
    <glyph glyph-name="braceright.case" horiz-adv-x="332" 
d="M180 344v3q-30 10 -57 35t-27 62q0 33 19.5 90t19.5 82q0 38 -22.5 52t-76.5 14q-2 8 -2.5 32.5t0 46t1.5 21.5q109 0 163.5 -33.5t54.5 -110.5q0 -27 -18 -81.5t-18 -92.5q0 -58 92 -58q4 0 6 -28.5t1.5 -57t-3.5 -28.5q-62 0 -86.5 -11t-24.5 -46q0 -10 15.5 -74
t15.5 -93q0 -85 -54.5 -125.5t-146.5 -40.5q-5 12 -6.5 37t0.5 45t6 20q99 0 99 79q0 21 -17.5 80.5t-17.5 84.5q0 36 27.5 63.5t56.5 32.5z" />
    <glyph glyph-name="guilsinglleft.case" horiz-adv-x="306" 
d="M198 102q-2 1 -84.5 126t-82.5 130t82.5 119.5t86.5 117.5q3 2 28 -16t25 -21q0 -1 -52.5 -96.5t-51.5 -97.5q0 -1 55 -104.5t55 -106.5t-29.5 -27.5t-31.5 -23.5z" />
    <glyph glyph-name="guilsinglright.case" horiz-adv-x="306" 
d="M108 595q2 -1 84 -121.5t82 -125.5t-82 -123t-86 -121q-3 -2 -28 16t-25 21q0 1 52.5 102t51.5 103q0 1 -55 97.5t-55 99.5q0 4 29.5 28.5t31.5 23.5z" />
    <glyph glyph-name="guillemotleft.case" horiz-adv-x="528" 
d="M198 102q-2 1 -84.5 126t-82.5 130t82.5 119.5t86.5 117.5q3 2 28 -16t25 -21q0 -1 -52.5 -96.5t-51.5 -97.5q0 -1 55 -104.5t55 -106.5t-29.5 -27.5t-31.5 -23.5zM419 102q-2 1 -84.5 126t-82.5 130t82.5 119.5t86.5 117.5q3 2 28 -16t25 -21q0 -1 -52.5 -96.5
t-51.5 -97.5q0 -1 55 -104.5t55 -106.5t-29.5 -27.5t-31.5 -23.5z" />
    <glyph glyph-name="guillemotright.case" horiz-adv-x="519" 
d="M108 594q2 -1 84 -121.5t82 -125.5t-82 -123t-86 -121q-3 -2 -28 16t-25 21q0 1 52.5 102t51.5 103q0 1 -55 97.5t-55 99.5q0 4 29.5 28.5t31.5 23.5zM322 594q2 -1 84 -121.5t82 -125.5t-82 -123t-86 -121q-3 -2 -28 16t-25 21q0 1 52.5 102t51.5 103q0 1 -55 97.5
t-55 99.5q0 4 29.5 28.5t31.5 23.5z" />
    <glyph glyph-name="endash.case" horiz-adv-x="522" 
d="M57 274q-5 0 -4 58.5t4 59.5q3 2 206.5 7t204.5 0q2 -5 -1 -60.5t-5 -55.5q-1 0 -201.5 -4.5t-203.5 -4.5z" />
    <glyph glyph-name="emdash.case" horiz-adv-x="730" 
d="M57 289q-5 0 -4 54.5t4 56.5q5 2 312.5 6t308.5 0q2 -5 -1 -56.5t-5 -51.5q-1 0 -306.5 -4.5t-308.5 -4.5z" />
    <glyph glyph-name="bullet.case" horiz-adv-x="358" 
d="M183 229q-127 0 -127 124q0 61 35.5 89.5t91.5 28.5q52 0 85.5 -31.5t33.5 -87.5q0 -52 -30 -87.5t-89 -35.5z" />
    <glyph glyph-name="periodcentered.case" horiz-adv-x="290" 
d="M252 350q0 -52 -31.5 -80.5t-89.5 -27.5q-37 2 -65.5 31.5t-28.5 73.5q0 53 31 82.5t89 25.5q40 -2 67.5 -27t27.5 -78z" />
    <glyph glyph-name="w.alt" horiz-adv-x="816" 
d="M20 475q0 5 66 17t79 12q6 0 38.5 -143t40.5 -185q106 318 112 321q28 4 68.5 1t57.5 -5q5 -1 25 -75t40.5 -156t21.5 -84q1 4 24.5 88t46 162t24.5 78q6 1 76.5 -15t69.5 -20q-10 -43 -82.5 -258.5t-76.5 -219.5q-11 -5 -46 -4t-72.5 4t-38.5 5q-1 1 -14.5 46
t-33.5 118.5t-34 131.5q-20 -61 -46.5 -134.5t-43.5 -119t-18 -47.5q-11 -6 -46 -5t-72.5 4.5t-38.5 4.5q-1 2 -32.5 114t-63 231t-31.5 133z" />
    <glyph glyph-name="a.alt" horiz-adv-x="607" 
d="M248 -3q-95 0 -157.5 67t-62.5 187q0 110 72 176t160 67q40 0 74.5 -17t48.5 -31t21 -25q0 55 1 58q2 8 69 9.5t82 -6.5q2 -1 -1.5 -238t-5.5 -245q-2 -2 -30.5 -4.5t-65 -1.5t-52.5 7q0 34 -3 55q-10 -15 -53 -36.5t-97 -21.5zM200 245q0 -49 27.5 -76.5t70.5 -27.5
q48 0 73.5 29t25.5 76q0 48 -28.5 76t-70.5 28q-46 0 -72 -28.5t-26 -76.5z" />
    <glyph glyph-name="agrave.alt" horiz-adv-x="607" 
d="M248 -3q-95 0 -157.5 67t-62.5 187q0 110 72 176t160 67q40 0 74.5 -17t48.5 -31t21 -25q0 55 1 58q2 8 69 9.5t82 -6.5q2 -1 -1.5 -238t-5.5 -245q-2 -2 -30.5 -4.5t-65 -1.5t-52.5 7q0 34 -3 55q-10 -15 -53 -36.5t-97 -21.5zM200 245q0 -49 27.5 -76.5t70.5 -27.5
q48 0 73.5 29t25.5 76q0 48 -28.5 76t-70.5 28q-46 0 -72 -28.5t-26 -76.5zM153 638q-2 1 9.5 23t25 44.5t18.5 22.5q2 1 58 -28t111 -58l55 -30q-29 -70 -46 -76q-2 0 -59 25t-114 51t-58 26z" />
    <glyph glyph-name="aacute.alt" horiz-adv-x="607" 
d="M248 -3q-95 0 -157.5 67t-62.5 187q0 110 72 176t160 67q40 0 74.5 -17t48.5 -31t21 -25q0 55 1 58q2 8 69 9.5t82 -6.5q2 -1 -1.5 -238t-5.5 -245q-2 -2 -30.5 -4.5t-65 -1.5t-52.5 7q0 34 -3 55q-10 -15 -53 -36.5t-97 -21.5zM200 245q0 -49 27.5 -76.5t70.5 -27.5
q48 0 73.5 29t25.5 76q0 48 -28.5 76t-70.5 28q-46 0 -72 -28.5t-26 -76.5zM467 638q-1 0 -58 -26t-114 -51t-59 -25q-8 3 -19 22t-19 36l-7 18l224 116q5 0 18.5 -22.5t24.5 -44.5t9 -23z" />
    <glyph glyph-name="acircumflex.alt" horiz-adv-x="607" 
d="M248 -3q-95 0 -157.5 67t-62.5 187q0 110 72 176t160 67q40 0 74.5 -17t48.5 -31t21 -25q0 55 1 58q2 8 69 9.5t82 -6.5q2 -1 -1.5 -238t-5.5 -245q-2 -2 -30.5 -4.5t-65 -1.5t-52.5 7q0 34 -3 55q-10 -15 -53 -36.5t-97 -21.5zM200 245q0 -49 27.5 -76.5t70.5 -27.5
q48 0 73.5 29t25.5 76q0 48 -28.5 76t-70.5 28q-46 0 -72 -28.5t-26 -76.5zM130 610q155 105 174 113l174 -112q-28 -62 -42 -68q-2 -1 -23 9.5t-52.5 27t-56.5 30.5q-126 -71 -129 -69q-6 3 -17.5 20t-19.5 33z" />
    <glyph glyph-name="atilde.alt" horiz-adv-x="607" 
d="M248 -3q-95 0 -157.5 67t-62.5 187q0 110 72 176t160 67q40 0 74.5 -17t48.5 -31t21 -25q0 55 1 58q2 8 69 9.5t82 -6.5q2 -1 -1.5 -238t-5.5 -245q-2 -2 -30.5 -4.5t-65 -1.5t-52.5 7q0 34 -3 55q-10 -15 -53 -36.5t-97 -21.5zM200 245q0 -49 27.5 -76.5t70.5 -27.5
q48 0 73.5 29t25.5 76q0 48 -28.5 76t-70.5 28q-46 0 -72 -28.5t-26 -76.5zM124 656q40 52 102 52q29 0 79.5 -28.5t77.5 -28.5q31 0 68 37q6 -2 19.5 -35t14.5 -51q-1 -2 -3.5 -6t-12 -13.5t-20 -16.5t-29 -13t-38.5 -6q-30 0 -84 26.5t-80 26.5q-32 0 -67 -32
q-7 -6 -24 69q-3 15 -3 19z" />
    <glyph glyph-name="adieresis.alt" horiz-adv-x="607" 
d="M248 -3q-95 0 -157.5 67t-62.5 187q0 110 72 176t160 67q40 0 74.5 -17t48.5 -31t21 -25q0 55 1 58q2 8 69 9.5t82 -6.5q2 -1 -1.5 -238t-5.5 -245q-2 -2 -30.5 -4.5t-65 -1.5t-52.5 7q0 34 -3 55q-10 -15 -53 -36.5t-97 -21.5zM200 245q0 -49 27.5 -76.5t70.5 -27.5
q48 0 73.5 29t25.5 76q0 48 -28.5 76t-70.5 28q-46 0 -72 -28.5t-26 -76.5zM419 558q-39 0 -59.5 20.5t-21.5 55.5t20 57t52 22t54.5 -23t23.5 -52q0 -34 -16.5 -57t-52.5 -23zM197 558q-38 0 -58.5 20.5t-22.5 55.5q-1 35 20 57t52 22t54.5 -23t23.5 -52q0 -34 -16.5 -57
t-52.5 -23z" />
    <glyph glyph-name="amacron.alt" horiz-adv-x="607" 
d="M248 -3q-95 0 -157.5 67t-62.5 187q0 110 72 176t160 67q40 0 74.5 -17t48.5 -31t21 -25q0 55 1 58q2 8 69 9.5t82 -6.5q2 -1 -1.5 -238t-5.5 -245q-2 -2 -30.5 -4.5t-65 -1.5t-52.5 7q0 34 -3 55q-10 -15 -53 -36.5t-97 -21.5zM200 245q0 -49 27.5 -76.5t70.5 -27.5
q48 0 73.5 29t25.5 76q0 48 -28.5 76t-70.5 28q-46 0 -72 -28.5t-26 -76.5zM147 569q-5 0 -4 46t4 48t160.5 5.5t159.5 -1.5q1 -5 -1.5 -48t-4.5 -43q-1 0 -156 -3.5t-158 -3.5z" />
    <glyph glyph-name="abreve.alt" horiz-adv-x="607" 
d="M248 -3q-95 0 -157.5 67t-62.5 187q0 110 72 176t160 67q40 0 74.5 -17t48.5 -31t21 -25q0 55 1 58q2 8 69 9.5t82 -6.5q2 -1 -1.5 -238t-5.5 -245q-2 -2 -30.5 -4.5t-65 -1.5t-52.5 7q0 34 -3 55q-10 -15 -53 -36.5t-97 -21.5zM200 245q0 -49 27.5 -76.5t70.5 -27.5
q48 0 73.5 29t25.5 76q0 48 -28.5 76t-70.5 28q-46 0 -72 -28.5t-26 -76.5zM313 551q-116 0 -180 91q0 9 19.5 28t40.5 30q54 -52 122 -52q56 0 110 49q11 -3 32.5 -25.5t24.5 -29.5q-21 -34 -68.5 -62.5t-100.5 -28.5z" />
    <glyph glyph-name="aring.alt" horiz-adv-x="607" 
d="M248 -3q-95 0 -157.5 67t-62.5 187q0 110 72 176t160 67q40 0 74.5 -17t48.5 -31t21 -25q0 55 1 58q2 8 69 9.5t82 -6.5q2 -1 -1.5 -238t-5.5 -245q-2 -2 -30.5 -4.5t-65 -1.5t-52.5 7q0 34 -3 55q-10 -15 -53 -36.5t-97 -21.5zM200 245q0 -49 27.5 -76.5t70.5 -27.5
q48 0 73.5 29t25.5 76q0 48 -28.5 76t-70.5 28q-46 0 -72 -28.5t-26 -76.5zM316 532q-50 0 -78.5 25t-28.5 75q0 48 29.5 72t77.5 24q43 0 71 -26t28 -71q0 -41 -25 -70t-74 -29zM314 593q37 0 37 36q0 15 -9.5 26.5t-27.5 11.5q-22 0 -32 -11t-10 -27t13 -26t29 -10z" />
    <glyph glyph-name="aogonek.alt" horiz-adv-x="607" 
d="M341 -119q0 69 76 115l-16 4q0 34 -3 55q-10 -15 -53 -36.5t-97 -21.5q-95 0 -157.5 67t-62.5 187q0 110 72 176t160 67q40 0 74.5 -17t48.5 -31t21 -25q0 55 1 58q2 8 69 9.5t82 -6.5q2 -1 -1.5 -238t-5.5 -245q-100 -49 -100 -85q0 -30 29 -30q11 0 23.5 5t19.5 10l7 5
q5 1 27 -30.5t17 -36.5q-20 -23 -55 -42t-73 -19q-44 0 -73.5 30t-29.5 75zM200 245q0 -49 27.5 -76.5t70.5 -27.5q48 0 73.5 29t25.5 76q0 48 -28.5 76t-70.5 28q-46 0 -72 -28.5t-26 -76.5z" />
    </font>
</defs>
</svg>
